<?xml version="1.0" encoding="UTF-8"?>
<svg width="851px" height="158px" viewBox="0 0 851 158" version="1.1" xmlns="http://www.w3.org/2000/svg" xmlns:xlink="http://www.w3.org/1999/xlink">
    <!-- Generator: Sketch 54 (76480) - https://sketchapp.com -->
    <title>ETHFSX</title>
    <desc>Created with Sketch.</desc>
    <g id="Page-1" stroke="none" stroke-width="1" fill="none" fill-rule="evenodd" opacity="0.349999994">
        <g id="ethfs" transform="translate(-434.000000, -1743.000000)" fill="#DFDFDF" fill-rule="nonzero">
            <path d="M545.86,1879.86 L545.86,1899 L434.1,1899 L434.1,1745 L542.78,1745 L542.78,1764.14 L456.1,1764.14 L456.1,1811.44 L533.32,1811.44 L533.32,1830.14 L456.1,1830.14 L456.1,1879.86 L545.86,1879.86 Z M612.08,1764.14 L559.28,1764.14 L559.28,1745 L686.66,1745 L686.66,1764.14 L633.86,1764.14 L633.86,1899 L612.08,1899 L612.08,1764.14 Z M843.08,1745 L843.08,1899 L821.08,1899 L821.08,1830.36 L732.64,1830.36 L732.64,1899 L710.64,1899 L710.64,1745 L732.64,1745 L732.64,1811.22 L821.08,1811.22 L821.08,1745 L843.08,1745 Z M911.28,1764.14 L911.28,1817.82 L988.5,1817.82 L988.5,1836.74 L911.28,1836.74 L911.28,1899 L889.28,1899 L889.28,1745 L997.96,1745 L997.96,1764.14 L911.28,1764.14 Z M1073.2,1900.76 C1061.61328,1900.76 1050.43005,1898.96335 1039.65,1895.37 C1028.86995,1891.77665 1020.40003,1887.12003 1014.24,1881.4 L1022.38,1864.24 C1028.2467,1869.52003 1035.76329,1873.80998 1044.93,1877.11 C1054.09671,1880.41002 1063.51995,1882.06 1073.2,1882.06 C1085.96006,1882.06 1095.4933,1879.89669 1101.8,1875.57 C1108.1067,1871.24331 1111.26,1865.4867 1111.26,1858.3 C1111.26,1853.01997 1109.53668,1848.73002 1106.09,1845.43 C1102.64332,1842.12998 1098.39003,1839.60001 1093.33,1837.84 C1088.26997,1836.07999 1081.12005,1834.10001 1071.88,1831.9 C1060.29328,1829.11332 1050.94337,1826.32668 1043.83,1823.54 C1036.71663,1820.75332 1030.63003,1816.46336 1025.57,1810.67 C1020.50997,1804.87664 1017.98,1797.06672 1017.98,1787.24 C1017.98,1779.02663 1020.14331,1771.62003 1024.47,1765.02 C1028.79669,1758.41997 1035.35996,1753.14002 1044.16,1749.18 C1052.96004,1745.21998 1063.8866,1743.24 1076.94,1743.24 C1086.03338,1743.24 1094.97996,1744.41332 1103.78,1746.76 C1112.58004,1749.10668 1120.1333,1752.47998 1126.44,1756.88 L1119.18,1774.48 C1112.72663,1770.37331 1105.83337,1767.25668 1098.5,1765.13 C1091.16663,1763.00332 1083.98004,1761.94 1076.94,1761.94 C1064.47327,1761.94 1055.12336,1764.21331 1048.89,1768.76 C1042.65664,1773.30669 1039.54,1779.1733 1039.54,1786.36 C1039.54,1791.64003 1041.29998,1795.92998 1044.82,1799.23 C1048.34002,1802.53002 1052.70331,1805.09666 1057.91,1806.93 C1063.11669,1808.76334 1070.19329,1810.70666 1079.14,1812.76 C1090.72672,1815.54668 1100.03996,1818.33332 1107.08,1821.12 C1114.12004,1823.90668 1120.16997,1828.15997 1125.23,1833.88 C1130.29003,1839.60003 1132.82,1847.29995 1132.82,1856.98 C1132.82,1865.04671 1130.62002,1872.41663 1126.22,1879.09 C1121.81998,1885.76337 1115.14671,1891.04331 1106.2,1894.93 C1097.25329,1898.81669 1086.2534,1900.76 1073.2,1900.76 Z M1258.88,1899 L1212.68,1835.42 L1167.14,1899 L1141.84,1899 L1199.7,1820.02 L1145.36,1745 L1170.44,1745 L1213.56,1804.18 L1256.24,1745 L1280.22,1745 L1225.88,1819.36 L1284.18,1899 L1258.88,1899 Z" id="ETHFSX"></path>
        </g>
    </g>
</svg>