<?xml version="1.0" encoding="UTF-8"?>
<svg width="552px" height="100px" viewBox="0 0 552 100" version="1.1" xmlns="http://www.w3.org/2000/svg" xmlns:xlink="http://www.w3.org/1999/xlink">
    <!-- Generator: Sketch 54 (76480) - https://sketchapp.com -->
    <title>ethfs_logo</title>
    <desc>Created with Sketch.</desc>
    <defs>
        <path d="M26.2348635,0.114650884 L31.3364606,0.104348821 C35.5194711,0.0959017341 38.9173189,3.48005404 38.9257659,7.66306455 C38.9257865,7.67326621 38.9257865,7.68346791 38.9257659,7.69366957 L38.8285993,55.7622464 C38.8201679,59.9333099 35.4409472,63.3125237 31.2698837,63.3209467 L26.1682865,63.3312487 C21.985276,63.3396958 18.5874283,59.9555435 18.5789812,55.772533 C18.5789606,55.7623313 18.5789606,55.7521297 18.5789812,55.741928 L18.6761478,7.67335119 C18.6845792,3.50228769 22.0637999,0.123073846 26.2348635,0.114650884 Z" id="path-1"></path>
        <filter x="-56.1%" y="-64.0%" width="212.3%" height="228.0%" filterUnits="objectBoundingBox" id="filter-3">
            <feGaussianBlur stdDeviation="3.78701299" in="SourceGraphic"></feGaussianBlur>
        </filter>
    </defs>
    <g id="Page-1" stroke="none" stroke-width="1" fill="none" fill-rule="evenodd">
        <g id="ethfs" transform="translate(-145.000000, -349.000000)">
            <g id="ethfs_logo" transform="translate(135.000000, 325.000000)">
                <text id="ETHFS复制-6" font-family="MicrosoftSansSerif, Microsoft Sans Serif" font-size="132.64" font-weight="normal" letter-spacing="6.17381815" fill="#FFFFFF">
                    <tspan x="0.359268626" y="122">ETHFS</tspan>
                </text>
                <g id="编组复制-19" transform="translate(475.209677, 20.000000)">
                    <g id="矩形复制-22" transform="translate(0.000000, 42.439356)">
                        <mask id="mask-2" fill="white">
                            <use xlink:href="#path-1"></use>
                        </mask>
                        <use id="蒙版" fill="#FFFFFF" fill-rule="nonzero" transform="translate(28.752374, 31.717799) rotate(38.000000) translate(-28.752374, -31.717799) " xlink:href="#path-1"></use>
                        <path d="M37.0674638,5.69186654 L49.7118754,5.66904136 C51.8033815,5.66526585 53.5019429,7.35770591 53.5057184,9.44921202 C53.5057266,9.45376471 53.5057266,9.45831742 53.5057184,9.46287011 L53.487427,19.6168481 C53.4836689,21.7030224 51.7934306,23.3932671 49.7072563,23.397033 L37.0628447,23.4198582 C34.9713386,23.4236337 33.2727772,21.7311937 33.2690017,19.6396875 C33.2689935,19.6351348 33.2689935,19.6305821 33.2690017,19.6260295 L33.2872931,9.47205142 C33.2910512,7.38587712 34.9812895,5.69563242 37.0674638,5.69186654 Z" id="矩形复制-7" fill-opacity="0.65" fill="#185AA5" filter="url(#filter-3)" mask="url(#mask-2)" transform="translate(43.387360, 14.544450) rotate(60.000000) translate(-43.387360, -14.544450) "></path>
                    </g>
                    <path d="M42.6114353,-5.14629116 L47.7130324,-5.13598909 C51.884096,-5.12756613 55.2633167,-1.74835228 55.2717481,2.42271122 L55.476256,103.593334 C55.4847116,107.776345 52.1005662,111.174199 47.9175557,111.182655 C47.9073541,111.182675 47.8971524,111.182675 47.8869507,111.182655 L42.7853536,111.172353 C38.61429,111.16393 35.2350693,107.784716 35.2266379,103.613652 L35.02213,2.4430296 C35.0136744,-1.7399809 38.3978198,-5.13783552 42.5808303,-5.14629112 C42.5910319,-5.14631175 42.6012336,-5.14631176 42.6114353,-5.14629116 Z" id="矩形复制-23" fill="#FFFFFF" fill-rule="nonzero" transform="translate(45.249193, 53.018182) rotate(-38.000000) translate(-45.249193, -53.018182) "></path>
                    <path d="M75.0864853,4.89360897 L75.1598879,4.8934585 C80.7239969,4.88205278 85.2438446,9.38340816 85.2552503,14.9475171 C85.2552785,14.96129 85.2552785,14.975063 85.2552503,14.9888358 L85.2551297,15.0476021 C85.2437218,20.6087817 80.7383302,25.1141665 75.1771507,25.1255662 L75.1037481,25.1257167 C69.5396391,25.1371224 65.0197914,20.635767 65.0083857,15.0716581 C65.0083575,15.0578852 65.0083575,15.0441122 65.0083857,15.0303394 L65.0085063,14.9715731 C65.0199142,9.41039354 69.5253058,4.90500869 75.0864853,4.89360897 Z" id="矩形复制-24" fill="#FFFFFF" fill-rule="nonzero" transform="translate(75.131818, 15.009588) rotate(40.000000) translate(-75.131818, -15.009588) "></path>
                </g>
            </g>
        </g>
    </g>
</svg>