<?xml version="1.0" encoding="UTF-8"?>
<svg width="377px" height="743px" viewBox="0 0 377 743" version="1.1" xmlns="http://www.w3.org/2000/svg" xmlns:xlink="http://www.w3.org/1999/xlink">
    <!-- Generator: Sketch 54 (76480) - https://sketchapp.com -->
    <title>home_xian1</title>
    <desc>Created with Sketch.</desc>
    <g id="Page-1" stroke="none" stroke-width="1" fill="none" fill-rule="evenodd" opacity="0.600000024" stroke-linejoin="round">
        <g id="home1.2" transform="translate(-1063.000000, -1100.000000)" stroke-width="2">
            <g id="编组-9" transform="translate(1063.000000, 1100.000000)">
                <circle id="椭圆形复制-12" stroke="#FA632D" cx="375.5" cy="371.5" r="168.5"></circle>
                <path d="M375.5,609 C506.667628,609 613,502.667628 613,371.5 C613,240.332372 506.667628,134 375.5,134 C244.332372,134 138,240.332372 138,371.5 C138,502.667628 244.332372,609 375.5,609 Z" id="椭圆形复制-12" stroke="#2F93FF" stroke-dasharray="4,5"></path>
                <path d="M375.5,677 C544.222991,677 681,540.222991 681,371.5 C681,202.777009 544.222991,66 375.5,66 C206.777009,66 70,202.777009 70,371.5 C70,540.222991 206.777009,677 375.5,677 Z" id="椭圆形复制-12" stroke="#2F93FF" stroke-dasharray="4,5"></path>
                <path d="M375.5,743 C580.673785,743 747,576.673785 747,371.5 C747,166.326215 580.673785,0 375.5,0 C170.326215,0 4,166.326215 4,371.5 C4,576.673785 170.326215,743 375.5,743 Z" id="椭圆形复制-12" stroke="#2F93FF" stroke-dasharray="4,5"></path>
            </g>
        </g>
    </g>
</svg>