<?xml version="1.0" encoding="UTF-8"?>
<svg width="256px" height="184px" viewBox="0 0 256 184" version="1.1" xmlns="http://www.w3.org/2000/svg" xmlns:xlink="http://www.w3.org/1999/xlink">
    <!-- Generator: Sketch 54 (76480) - https://sketchapp.com -->
    <title>home_tu</title>
    <desc>Created with Sketch.</desc>
    <g id="Page-1" stroke="none" stroke-width="1" fill="none" fill-rule="evenodd" opacity="0.611304874">
        <g id="home复制" transform="translate(-1060.000000, -234.000000)">
            <g id="home_tu" transform="translate(1061.000000, 235.000000)">
                <path d="M89.5,108 C98.6126984,108 106,100.612698 106,91.5 C106,82.3873016 98.6126984,75 89.5,75 C80.3873016,75 73,82.3873016 73,91.5 C73,100.612698 80.3873016,108 89.5,108 Z" id="椭圆形复制-17" stroke="#C8C8C8" stroke-width="2" stroke-linejoin="round" stroke-dasharray="2,3"></path>
                <path d="M17,108 C26.3888407,108 34,100.388841 34,91 C34,81.6111593 26.3888407,74 17,74 C7.61115925,74 0,81.6111593 0,91 C0,100.388841 7.61115925,108 17,108 Z" id="椭圆形复制-20" stroke="#C8C8C8" stroke-width="2" stroke-linejoin="round" stroke-dasharray="2,3"></path>
                <path d="M53,111 C64.045695,111 73,102.045695 73,91 C73,79.954305 64.045695,71 53,71 C41.954305,71 33,79.954305 33,91 C33,102.045695 41.954305,111 53,111 Z" id="椭圆形复制-19" stroke="#C8C8C8" stroke-width="2" stroke-linejoin="round" stroke-dasharray="2,3"></path>
                <path d="M236.5,108 C245.612698,108 253,100.612698 253,91.5 C253,82.3873016 245.612698,75 236.5,75 C227.387302,75 220,82.3873016 220,91.5 C220,100.612698 227.387302,108 236.5,108 Z" id="椭圆形复制-18" stroke="#C8C8C8" stroke-width="2" stroke-linejoin="round" stroke-dasharray="2,3"></path>
                <path d="M128.000003,174.139226 L128.000003,135.00809 C137.849241,143.444807 150.570224,148.528736 164.459577,148.528736 C195.722215,148.528736 221.065591,122.772243 221.065591,91 C221.065591,59.2277566 195.722215,33.4712644 164.459577,33.4712644 C150.570224,33.4712644 137.849241,38.5551934 128.000003,46.9919098 L128.000003,7.86077405 C139.136959,2.80865912 151.47553,0 164.459577,0 C213.911387,0 254,40.7420878 254,91 C254,141.257912 213.911387,182 164.459577,182 C151.47553,182 139.136959,179.191341 128,174.139225 L128.000003,174.139226 Z" id="路径" stroke="#2F93FF" stroke-width="2" opacity="0.600000024" stroke-linejoin="round" stroke-dasharray="2,3"></path>
                <ellipse id="椭圆形" stroke="#2F93FF" stroke-width="2" cx="163.5" cy="91" rx="90.5" ry="91"></ellipse>
                <circle id="椭圆形" stroke="#2F93FF" stroke-width="2" cx="162.5" cy="91.5" r="57.5"></circle>
                <path d="M90.5,182 C140.48177,182 181,141.257912 181,91 C181,40.7420878 140.48177,0 90.5,0 C40.5182301,0 0,40.7420878 0,91 C0,141.257912 40.5182301,182 90.5,182 Z" id="椭圆形复制-16" stroke="#C8C8C8" stroke-width="2" stroke-linejoin="round" stroke-dasharray="2,3"></path>
                <path d="M90,149 C121.480231,149 147,123.256373 147,91.5 C147,59.7436269 121.480231,34 90,34 C58.5197693,34 33,59.7436269 33,91.5 C33,123.256373 58.5197693,149 90,149 Z" id="椭圆形复制-15" stroke="#C8C8C8" stroke-width="2" stroke-linejoin="round" stroke-dasharray="2,3"></path>
                <path d="M128,174 L128,134.886868 C140.506061,124.347354 148.446602,108.597553 148.446602,90.9999993 C148.446602,73.4024457 140.506061,57.6526444 128,47.1131305 L128,8 C159.825797,22.1892344 182,54.0146643 182,91 C182,127.985334 159.825797,159.810764 128,174 L128,174 Z" id="路径" stroke="#2F93FF" stroke-width="2" opacity="0.600000024" stroke-linejoin="round" stroke-dasharray="2,3"></path>
                <path d="M72,91.399731 C72,55.5753824 93.3521168,23.4388958 124,9 L124,48.8963591 C111.962379,59.1066717 104.320136,74.3589318 104.320136,91.399731 C104.320136,108.44053 111.962379,123.69279 124,133.903103 L124,173 C93.3521168,158.836868 72,127.22408 72,91.399731 Z" id="路径" stroke="#2F93FF" stroke-width="2" opacity="0.600000024" stroke-linejoin="round" stroke-dasharray="2,3"></path>
                <text id="20%" font-family="Montserrat-Medium, Montserrat" font-size="16" font-weight="400" fill="#2F93FF">
                    <tspan x="220" y="97">20%</tspan>
                </text>
            </g>
        </g>
    </g>
</svg>