<?xml version="1.0" encoding="UTF-8"?>
<svg width="638px" height="939px" viewBox="0 0 638 939" version="1.1" xmlns="http://www.w3.org/2000/svg" xmlns:xlink="http://www.w3.org/1999/xlink">
    <!-- Generator: Sketch 54 (76480) - https://sketchapp.com -->
    <title>home_xian2</title>
    <desc>Created with Sketch.</desc>
    <g id="Page-1" stroke="none" stroke-width="1" fill="none" fill-rule="evenodd" opacity="0.100000001" stroke-dasharray="6,7" stroke-linejoin="round">
        <g id="home复制" transform="translate(-802.000000, -4304.000000)" stroke="#DFDFDF" stroke-width="4">
            <g id="编组-8" transform="translate(802.000000, 4304.000000)">
                <path d="M505.5,989 C776.39567,989 996,769.39567 996,498.5 C996,227.60433 776.39567,8 505.5,8 C234.60433,8 15,227.60433 15,498.5 C15,769.39567 234.60433,989 505.5,989 Z" id="椭圆形复制-14"></path>
                <path d="M506,904 C729.675324,904 911,722.675324 911,499 C911,275.324676 729.675324,94 506,94 C282.324676,94 101,275.324676 101,499 C101,722.675324 282.324676,904 506,904 Z" id="椭圆形复制-14"></path>
                <path d="M506,810 C677.760557,810 817,670.760557 817,499 C817,327.239443 677.760557,188 506,188 C334.239443,188 195,327.239443 195,499 C195,670.760557 334.239443,810 506,810 Z" id="椭圆形复制-14"></path>
            </g>
        </g>
    </g>
</svg>