<?xml version="1.0" encoding="UTF-8"?>
<svg width="1147px" height="2075px" viewBox="0 0 1147 2075" version="1.1" xmlns="http://www.w3.org/2000/svg" xmlns:xlink="http://www.w3.org/1999/xlink">
    <!-- Generator: Sketch 54 (76480) - https://sketchapp.com -->
    <title>home_white2</title>
    <desc>Created with Sketch.</desc>
    <defs>
        <filter x="-14.3%" y="-7.9%" width="128.7%" height="115.7%" filterUnits="objectBoundingBox" id="filter-1">
            <feGaussianBlur stdDeviation="50" in="SourceGraphic"></feGaussianBlur>
        </filter>
        <path d="M1046,1217.13522 L734.167748,1528.96748 C566.242302,1696.89292 293.981361,1696.89292 126.055916,1528.96748 C-41.8695295,1361.04203 -41.8695295,1088.78109 126.055916,920.855645 L1046,0.911561342 L1046,1217.13522 Z" id="path-2"></path>
        <filter x="-39.6%" y="-34.2%" width="197.4%" height="165.0%" filterUnits="objectBoundingBox" id="filter-4">
            <feMorphology radius="20" operator="dilate" in="SourceAlpha" result="shadowSpreadOuter1"></feMorphology>
            <feOffset dx="95" dy="0" in="shadowSpreadOuter1" result="shadowOffsetOuter1"></feOffset>
            <feGaussianBlur stdDeviation="134" in="shadowOffsetOuter1" result="shadowBlurOuter1"></feGaussianBlur>
            <feColorMatrix values="0 0 0 0 0.518851902   0 0 0 0 0.518851902   0 0 0 0 0.518851902  0 0 0 0.148901879 0" type="matrix" in="shadowBlurOuter1"></feColorMatrix>
        </filter>
    </defs>
    <g id="Page-1" stroke="none" stroke-width="1" fill="none" fill-rule="evenodd">
        <g id="home复制" transform="translate(-293.000000, -580.000000)">
            <g id="home_white2" transform="translate(394.000000, 645.000000)">
                <path d="M1045.88817,1725.34055 L988.614357,1782.61436 C820.688912,1950.5398 548.427971,1950.5398 380.502525,1782.61436 L125.944084,1528.05592 C-41.9813614,1360.13047 -41.9813614,1087.86953 125.944084,919.944084 L1045.88817,0 L1045.88817,1725.34055 Z" id="路径" fill-opacity="0.131883741" fill="#5F5F5F" opacity="0.600000024" filter="url(#filter-1)"></path>
                <g id="DSP" transform="translate(0.000000, 121.000000)">
                    <mask id="mask-3" fill="white">
                        <use xlink:href="#path-2"></use>
                    </mask>
                    <g id="形状结合">
                        <use fill="black" fill-opacity="1" filter="url(#filter-4)" xlink:href="#path-2"></use>
                        <use fill="#FFFFFF" fill-rule="evenodd" xlink:href="#path-2"></use>
                    </g>
                    <path d="M2.5,1022.97661 L91,1022.97661 C113.200111,1022.97661 132.899914,1027.37656 150.1,1036.17661 C167.300086,1044.97665 180.649953,1057.32653 190.15,1073.22661 C199.650047,1089.12669 204.4,1107.3765 204.4,1127.97661 C204.4,1148.57671 199.650047,1166.82653 190.15,1182.72661 C180.649953,1198.62669 167.300086,1210.97656 150.1,1219.77661 C132.899914,1228.57665 113.200111,1232.97661 91,1232.97661 L2.5,1232.97661 L2.5,1022.97661 Z M89.2,1206.87661 C106.200085,1206.87661 121.149935,1203.57664 134.05,1196.97661 C146.950064,1190.37657 156.899965,1181.12667 163.9,1169.22661 C170.900035,1157.32655 174.4,1143.57668 174.4,1127.97661 C174.4,1112.37653 170.900035,1098.62667 163.9,1086.72661 C156.899965,1074.82655 146.950064,1065.57664 134.05,1058.97661 C121.149935,1052.37657 106.200085,1049.07661 89.2,1049.07661 L32.5,1049.07661 L32.5,1206.87661 L89.2,1206.87661 Z M311.5,1235.37661 C295.699921,1235.37661 280.450073,1232.92663 265.75,1228.02661 C251.049926,1223.12658 239.500042,1216.77665 231.1,1208.97661 L242.2,1185.57661 C250.20004,1192.77664 260.449937,1198.62658 272.95,1203.12661 C285.450062,1207.62663 298.299934,1209.87661 311.5,1209.87661 C328.900087,1209.87661 341.899957,1206.92664 350.5,1201.02661 C359.100043,1195.12658 363.4,1187.27666 363.4,1177.47661 C363.4,1170.27657 361.050023,1164.42663 356.35,1159.92661 C351.649976,1155.42658 345.850034,1151.97662 338.95,1149.57661 C332.049965,1147.17659 322.300063,1144.47662 309.7,1141.47661 C293.899921,1137.67659 281.150049,1133.87663 271.45,1130.07661 C261.749951,1126.27659 253.450034,1120.42665 246.55,1112.52661 C239.649965,1104.62657 236.2,1093.97667 236.2,1080.57661 C236.2,1069.37655 239.14997,1059.27665 245.05,1050.27661 C250.950029,1041.27656 259.89994,1034.07663 271.9,1028.67661 C283.90006,1023.27658 298.799911,1020.57661 316.6,1020.57661 C329.000062,1020.57661 341.19994,1022.17659 353.2,1025.37661 C365.20006,1028.57662 375.499957,1033.17658 384.1,1039.17661 L374.2,1063.17661 C365.399956,1057.57658 356.00005,1053.32662 346,1050.42661 C335.99995,1047.52659 326.200048,1046.07661 316.6,1046.07661 C299.599915,1046.07661 286.850042,1049.17658 278.35,1055.37661 C269.849957,1061.57664 265.6,1069.57656 265.6,1079.37661 C265.6,1086.57664 267.999976,1092.42658 272.8,1096.92661 C277.600024,1101.42663 283.549964,1104.92659 290.65,1107.42661 C297.750035,1109.92662 307.399939,1112.57659 319.6,1115.37661 C335.400079,1119.17663 348.099952,1122.97659 357.7,1126.77661 C367.300048,1130.57663 375.549965,1136.37657 382.45,1144.17661 C389.350034,1151.97665 392.8,1162.47654 392.8,1175.67661 C392.8,1186.67666 389.80003,1196.72656 383.8,1205.82661 C377.79997,1214.92665 368.700061,1222.12658 356.5,1227.42661 C344.299939,1232.72663 329.300089,1235.37661 311.5,1235.37661 Z M518.5,1022.97661 C545.700136,1022.97661 567.099922,1029.47654 582.7,1042.47661 C598.300078,1055.47667 606.1,1073.37649 606.1,1096.17661 C606.1,1118.97672 598.300078,1136.87654 582.7,1149.87661 C567.099922,1162.87667 545.700136,1169.37661 518.5,1169.37661 L466.6,1169.37661 L466.6,1232.97661 L436.6,1232.97661 L436.6,1022.97661 L518.5,1022.97661 Z M517.6,1143.27661 C536.600095,1143.27661 551.09995,1139.22665 561.1,1131.12661 C571.10005,1123.02657 576.1,1111.37668 576.1,1096.17661 C576.1,1080.97653 571.10005,1069.32665 561.1,1061.22661 C551.09995,1053.12657 536.600095,1049.07661 517.6,1049.07661 L466.6,1049.07661 L466.6,1143.27661 L517.6,1143.27661 Z" fill="#DFDFDF" fill-rule="nonzero" opacity="0.349999994" mask="url(#mask-3)"></path>
                </g>
            </g>
        </g>
    </g>
</svg>