<?xml version="1.0" encoding="UTF-8"?>
<svg width="143px" height="109px" viewBox="0 0 143 109" version="1.1" xmlns="http://www.w3.org/2000/svg" xmlns:xlink="http://www.w3.org/1999/xlink">
    <!-- Generator: Sketch 54 (76480) - https://sketchapp.com -->
    <title>home_icon_storage</title>
    <desc>Created with Sketch.</desc>
    <defs>
        <filter x="-50.4%" y="-35.4%" width="201.4%" height="171.4%" filterUnits="objectBoundingBox" id="filter-1">
            <feOffset dx="7" dy="6" in="SourceAlpha" result="shadowOffsetOuter1"></feOffset>
            <feGaussianBlur stdDeviation="7" in="shadowOffsetOuter1" result="shadowBlurOuter1"></feGaussianBlur>
            <feColorMatrix values="0 0 0 0 0   0 0 0 0 0   0 0 0 0 0  0 0 0 0.12 0" type="matrix" in="shadowBlurOuter1" result="shadowMatrixOuter1"></feColorMatrix>
            <feMerge>
                <feMergeNode in="shadowMatrixOuter1"></feMergeNode>
                <feMergeNode in="SourceGraphic"></feMergeNode>
            </feMerge>
        </filter>
    </defs>
    <g id="Page-1" stroke="none" stroke-width="1" fill="none" fill-rule="evenodd">
        <g id="home1.2" transform="translate(-308.000000, -1169.000000)">
            <g id="home_icon_storage" transform="translate(315.000000, 1176.000000)">
                <g id="编组-7复制" filter="url(#filter-1)" transform="translate(57.500000, 42.000000) rotate(90.000000) translate(-57.500000, -42.000000) translate(17.283237, -15.190083)" fill="#4F75E9" fill-rule="nonzero">
                    <path d="M1.92385185e-06,109.439964 L1.92385185e-06,84.8475147 C6.2873743,90.1496741 14.4079577,93.3447326 23.2743834,93.3447326 C43.2312426,93.3447326 59.4094735,77.1577444 59.4094735,57.1900826 C59.4094735,37.2224208 43.2312426,21.0354327 23.2743834,21.0354327 C14.4079577,21.0354327 6.2873743,24.2304912 1.92385185e-06,29.5326506 L1.92385185e-06,4.94020129 C7.10940369,1.76513678 14.9858702,0 23.2743834,0 C54.8425062,0 80.433526,25.6048722 80.433526,57.1900826 C80.433526,88.7752931 54.8425062,114.380165 23.2743834,114.380165 C14.9858702,114.380165 7.10940369,112.615029 0,109.439963 L1.92385185e-06,109.439964 Z" id="路径"></path>
                    <path d="M0,109.090909 L0,84.4772485 C7.85142909,77.8447952 12.8365789,67.9335392 12.8365789,56.8595037 C12.8365789,45.7854682 7.85142909,35.8742122 0,29.2417589 L0,4.62809917 C19.9805501,13.5572997 33.9017341,33.584853 33.9017341,56.8595037 C33.9017341,80.1341544 19.9805501,100.161708 0,109.090909 L0,109.090909 Z" id="路径"></path>
                </g>
                <g transform="translate(28.000000, 0.000000)" fill="#FFFFFF">
                    <path d="M52.4105199,50.6567024 L28.626125,63.9374829 L0,47.9530146 L0,15.9844683 L28.626125,0 L52.5439935,13.3554732 C53.3146985,12.8789854 54.2110398,12.6261854 55.1262873,12.6277463 C57.7764489,12.6277463 59.9247919,14.7030634 59.9247919,17.2631415 C59.9247919,19.8231415 57.7764489,21.8984585 55.1262873,21.8984585 C52.4761256,21.8984585 50.3274594,19.8231415 50.3274594,17.2631415 C50.3274594,16.993561 50.3514556,16.7296 50.3969433,16.4722732 L28.626125,4.31586341 L3.86459353,18.142361 L3.86459353,45.7954341 L28.626125,59.6216195 L50.3735935,47.478322 C50.3429721,47.2649366 50.3274594,47.049678 50.3274594,46.8341073 C50.3274594,44.2741073 52.4761256,42.1987902 55.1262873,42.1987902 C57.7764489,42.1987902 59.9247919,44.2741073 59.9247919,46.8341073 C59.9247919,49.3941854 57.7764489,51.4698146 55.1262873,51.4698146 C54.1564223,51.4713756 53.2092608,51.1875122 52.4108431,50.6567024 L52.4105199,50.6567024 Z" id="路径"></path>
                    <path d="M18.1776156,28.2389854 L18.1776156,37.8030829 L26.9736218,42.7143024 L26.9736218,33.1448195 L18.1776156,28.2389854 Z M19.5953281,25.3426732 L28.6494748,30.3926634 L37.6801909,25.3557854 L28.626125,20.3003317 L19.5953281,25.3426732 Z M30.2789513,42.7146146 L39.0748768,37.8030829 L39.0748768,28.2652098 L30.2789513,33.1707317 L30.2789513,42.7146146 Z M28.626125,15.9844683 L42.9391471,23.9765073 L42.9391471,39.9609756 L28.626125,47.9530146 L14.3130221,39.9609756 L14.3130221,23.9765073 L28.626125,15.9844683 Z" id="Fill-1"></path>
                </g>
                <path d="M17.5000019,94.5330274 L17.5000019,69.8073097 C23.7534862,75.138202 31.8303008,78.3505747 40.6489375,78.3505747 C60.498232,78.3505747 76.5892644,62.0758681 76.5892644,42 C76.5892644,21.9241319 60.498232,5.64942529 40.6489375,5.64942529 C31.8303008,5.64942529 23.7534862,8.86179802 17.5000019,14.1926903 L17.5000019,-10.5330274 C24.5710849,-13.7252978 32.4050983,-15.5 40.6489375,-15.5 C72.0469123,-15.5 97.5,10.2436269 97.5,42 C97.5,73.7563731 72.0469123,99.5 40.6489375,99.5 C32.4050983,99.5 24.5710849,97.7252978 17.5,94.5330265 L17.5000019,94.5330274 Z" id="路径" fill="#4F75E9" fill-rule="nonzero" transform="translate(57.500000, 42.000000) rotate(90.000000) translate(-57.500000, -42.000000) "></path>
            </g>
        </g>
    </g>
</svg>