<?xml version="1.0" encoding="UTF-8"?>
<svg width="642px" height="1103px" viewBox="0 0 642 1103" version="1.1" xmlns="http://www.w3.org/2000/svg" xmlns:xlink="http://www.w3.org/1999/xlink">
    <!-- Generator: Sketch 54 (76480) - https://sketchapp.com -->
    <title>home_xian</title>
    <desc>Created with Sketch.</desc>
    <g id="Page-1" stroke="none" stroke-width="1" fill="none" fill-rule="evenodd" stroke-dasharray="6,7" stroke-linejoin="round">
        <g id="home复制" transform="translate(0.000000, -770.000000)" stroke="#DFDFDF" stroke-width="4">
            <g id="编组-8" transform="translate(-642.000000, 586.000000)">
                <path d="M642,1284 C996.566809,1284 1284,996.566809 1284,642 C1284,287.433191 996.566809,0 642,0 C287.433191,0 0,287.433191 0,642 C0,996.566809 287.433191,1284 642,1284 Z" id="椭圆形复制-14"></path>
                <path d="M642,1172 C934.710917,1172 1172,934.710917 1172,642 C1172,349.289083 934.710917,112 642,112 C349.289083,112 112,349.289083 112,642 C112,934.710917 349.289083,1172 642,1172 Z" id="椭圆形复制-14"></path>
                <path d="M642,1049 C866.779893,1049 1049,866.779893 1049,642 C1049,417.220107 866.779893,235 642,235 C417.220107,235 235,417.220107 235,642 C235,866.779893 417.220107,1049 642,1049 Z" id="椭圆形复制-14"></path>
            </g>
        </g>
    </g>
</svg>