<?xml version="1.0" encoding="UTF-8"?>
<svg width="173px" height="201px" viewBox="0 0 173 201" version="1.1" xmlns="http://www.w3.org/2000/svg" xmlns:xlink="http://www.w3.org/1999/xlink">
    <!-- Generator: Sketch 54 (76480) - https://sketchapp.com -->
    <title>ipfslogo</title>
    <desc>Created with Sketch.</desc>
    <defs>
        <rect id="path-1" x="0" y="0" width="244" height="244"></rect>
    </defs>
    <g id="Page-1" stroke="none" stroke-width="1" fill="none" fill-rule="evenodd">
        <g id="logo" transform="translate(-98.000000, -145.000000)">
            <g id="ipfslogo" transform="translate(53.000000, 123.000000)">
                <mask id="mask-2" fill="white">
                    <use xlink:href="#path-1"></use>
                </mask>
                <g id="蒙版"></g>
                <g id="ipfs-logo复制" mask="url(#mask-2)" fill-rule="nonzero">
                    <g transform="translate(45.000000, 22.000000)">
                        <polygon id="路径" fill="#469EA2" points="0 149.25 86.5 199 173 149.25 173 49.75 86.5 0 1.09753476e-14 49.75"></polygon>
                        <path d="M77.6470588,12 L14.8529412,48.2716628 C14.9558681,49.402811 14.9558681,50.540983 14.8529412,51.6721311 L77.5441176,87.9437939 C82.8357752,84.0275159 90.0612836,84.0275159 95.3529412,87.9437939 L158.044118,51.6721311 C157.941191,50.540983 157.941191,49.402811 158.044118,48.2716628 L95.4558824,12 C90.1642248,15.916278 82.9387164,15.916278 77.6470588,12 Z M164.117647,61.6674473 L101.323529,98.3512881 C102.021582,104.87764 98.4497969,111.11375 92.4705882,113.807963 L92.5735294,185.93911 C93.5887343,186.387331 94.5546986,186.939864 95.4558824,187.587822 L158.147059,151.316159 C157.449007,144.789808 161.020791,138.553698 167,135.859485 L167,63.3161593 C165.996447,62.8451496 165.032529,62.2937871 164.117647,61.6674473 L164.117647,61.6674473 Z M8.88235294,62.0796253 C7.98116916,62.727583 7.01520484,63.2801166 6,63.7283372 L6,136.271663 C12.0613983,138.87434 15.6714328,145.177231 14.8529412,151.728337 L77.5441176,188 C78.4453014,187.352042 79.4112657,186.799509 80.4264706,186.351288 L80.4264706,113.807963 C74.3650723,111.205286 70.7550378,104.902394 71.5735294,98.3512881 L8.88235294,62.0796253 L8.88235294,62.0796253 Z" id="形状" fill="#6ACAD1"></path>
                        <path d="M86.5,10.5654639 L163.835119,55.0840206 L163.835119,144.018557 L86.5,188.537113 L9.16488095,144.018557 L9.16488095,54.9814433 L86.5,10.5654639 L86.5,10.5654639 Z M86.5,0 L0,49.75 L0,149.25 L86.5,199 L173,149.25 L173,49.75 L86.5,0 Z" id="形状" fill="#469EA2"></path>
                        <path d="M87.0660321,116.220103 L85.8310529,116.220103 C81.5424262,116.231036 77.4262902,114.537813 74.3937632,111.515234 C71.3612362,108.492655 69.6624403,104.390022 69.6734087,100.115464 L69.6734087,98.8845361 C69.6624403,94.6099781 71.3612362,90.5073451 74.3937632,87.4847663 C77.4262902,84.4621875 81.5424262,82.7689645 85.8310529,82.7798969 L87.0660321,82.7798969 C91.3546589,82.7689645 95.4707949,84.4621875 98.5033219,87.4847663 C101.535849,90.5073451 103.234645,94.6099781 103.223676,98.8845361 L103.223676,100.115464 C103.234645,104.390022 101.535849,108.492655 98.5033219,111.515234 C95.4707949,114.537813 91.3546589,116.231036 87.0660321,116.220103 L87.0660321,116.220103 Z M87.0660321,182.382474 L85.8310529,182.382474 C79.9854146,182.364931 74.5891464,185.505699 71.7317073,190.58866 L86.4485425,199 L101.165378,190.58866 C98.3079387,185.505699 92.9116705,182.364931 87.0660321,182.382474 L87.0660321,182.382474 Z M173,132.632422 L172.38251,132.632474 C168.093884,132.621542 163.977748,134.314765 160.945221,137.337344 C157.912694,140.359922 156.213898,144.462555 156.224866,148.737113 L156.224866,149.968041 C156.210066,152.702006 156.920118,155.391354 158.283165,157.763918 L173,149.25 L173,132.632422 Z M158.283165,41.3386598 C156.932184,43.7161314 156.222992,46.4022179 156.224866,49.1345361 L156.224866,50.3654639 C156.213898,54.6400219 157.912694,58.7426549 160.945221,61.7652337 C163.977748,64.7878125 168.093884,66.4810355 172.38251,66.4701031 L173,66.4701557 L173,49.75 L158.283165,41.3386598 Z M86.4485425,3.64427846e-15 L71.7317073,8.41134021 C74.575358,13.5212228 79.9685467,16.699436 85.8310529,16.7201031 L87.0660321,16.7201031 C92.9116705,16.7376465 98.3079387,13.5968782 101.165378,8.51391753 L86.4485425,3.64427846e-15 Z M14.7168352,41.2360825 L3.55271368e-15,49.75 L3.55271368e-15,66.4701557 L0.61748959,66.4701031 C4.90611638,66.4810355 9.02225235,64.7878125 12.0547794,61.7652337 C15.0873064,58.7426549 16.7861023,54.6400219 16.7751338,50.3654639 L16.7751338,49.1345361 C16.7402637,46.3745134 16.0339551,43.6641458 14.7168352,41.2360825 L14.7168352,41.2360825 Z M0.61748959,132.632474 L0,132.632422 L0,149.25 L14.7168352,157.763918 C16.0678164,155.386446 16.7770078,152.700359 16.7751338,149.968041 L16.7751338,148.737113 C16.7861023,144.462555 15.0873064,140.359922 12.0547794,137.337344 C9.02225235,134.314765 4.90611638,132.621542 0.61748959,132.632474 L0.61748959,132.632474 Z" id="形状" fill="#469EA2"></path>
                        <polygon id="路径" fill-opacity="0.15" fill="#083B54" points="86 201 86 101.632555 0 52 0 151.367445"></polygon>
                        <polygon id="路径" fill-opacity="0.05" fill="#083B54" points="172 149.26511 172 50 86 99.6325549 86 199"></polygon>
                    </g>
                </g>
            </g>
        </g>
    </g>
</svg>