<?xml version="1.0" encoding="UTF-8"?>
<svg width="501px" height="100px" viewBox="0 0 501 100" version="1.1" xmlns="http://www.w3.org/2000/svg" xmlns:xlink="http://www.w3.org/1999/xlink">
    <!-- Generator: Sketch 54 (76480) - https://sketchapp.com -->
    <title>ipfsex_logo</title>
    <desc>Created with Sketch.</desc>
    <defs>
        <path d="M26.2510794,0.108242856 L31.3597746,0.0964501906 C35.542467,0.086795065 38.9410361,3.46971017 38.9506913,7.65240256 C38.9507182,7.66406403 38.9507182,7.67572554 38.9506912,7.68738701 L38.8395795,55.7666378 C38.8299448,59.9356745 35.4526638,63.3129464 31.2836272,63.3225701 L26.174932,63.3343627 C21.9922396,63.3440178 18.5936704,59.9611027 18.5840153,55.7784103 C18.5839884,55.7667489 18.5839884,55.7550874 18.5840153,55.7434259 L18.695127,7.66417508 C18.7047617,3.49513844 22.0820427,0.11786646 26.2510794,0.108242856 Z" id="path-1"></path>
        <filter x="-56.1%" y="-64.0%" width="212.3%" height="227.9%" filterUnits="objectBoundingBox" id="filter-3">
            <feGaussianBlur stdDeviation="3.78672735" in="SourceGraphic"></feGaussianBlur>
        </filter>
        <path d="M26.4027494,-18.9603221 L30.886182,-18.9401695 C34.0394264,-18.925996 36.5950532,-16.3788301 36.6196834,-13.2256501 L36.9607373,30.436324 C36.9855834,33.6171471 34.4271585,36.2158556 31.2463353,36.2407017 C31.2227104,36.2408863 31.1990844,36.2409255 31.175459,36.2408193 L26.6920263,36.2206667 C23.538782,36.2064931 20.9831552,33.6593272 20.9585249,30.5061472 L20.6174711,-13.1558268 C20.592625,-16.33665 23.1510499,-18.9353584 26.331873,-18.9602046 C26.355498,-18.9603891 26.3791239,-18.9604283 26.4027494,-18.9603221 Z" id="path-4"></path>
        <filter x="-58.1%" y="-66.7%" width="216.2%" height="233.4%" filterUnits="objectBoundingBox" id="filter-6">
            <feGaussianBlur stdDeviation="3.83971037" in="SourceGraphic"></feGaussianBlur>
        </filter>
    </defs>
    <g id="Page-1" stroke="none" stroke-width="1" fill="none" fill-rule="evenodd">
        <g id="ipfsex" transform="translate(-147.000000, -339.000000)">
            <g id="ipfsex_logo" transform="translate(135.000000, 314.000000)">
                <text id="IPFS复制-11" font-family="MicrosoftSansSerif, Microsoft Sans Serif" font-size="132.629996" font-weight="normal" letter-spacing="6.17335217" fill="#FFFFFF">
                    <tspan x="0.682419654" y="122">IPFS</tspan>
                </text>
                <g id="编组复制-19" transform="translate(426.221942, 21.998341)">
                    <g id="矩形复制-22" transform="translate(0.000000, 42.436155)">
                        <mask id="mask-2" fill="white">
                            <use xlink:href="#path-1"></use>
                        </mask>
                        <use id="蒙版" fill="#FFFFFF" fill-rule="nonzero" transform="translate(28.767353, 31.715406) rotate(38.000000) translate(-28.767353, -31.715406) " xlink:href="#path-1"></use>
                        <path d="M37.0893746,5.6891147 L49.7358453,5.66301322 C51.8271926,5.65869682 53.5260637,7.35056966 53.5303801,9.44191697 C53.5303908,9.44712113 53.5303908,9.45232531 53.5303801,9.45752947 L53.5094581,19.6186685 C53.5051645,21.7039214 51.8158071,23.393287 49.7305543,23.3975908 L37.0840836,23.4236923 C34.9927363,23.4280087 33.2938652,21.7361359 33.2895488,19.6447885 C33.2895381,19.6395844 33.2895381,19.6343802 33.2895488,19.6291761 L33.3104708,9.46803703 C33.3147644,7.38278415 35.0041218,5.69341853 37.0893746,5.6891147 Z" id="矩形复制-7" fill-opacity="0.65" fill="#185AA5" filter="url(#filter-3)" mask="url(#mask-2)" transform="translate(43.409964, 14.543353) rotate(60.000000) translate(-43.409964, -14.543353) "></path>
                    </g>
                    <path d="M42.6189771,-5.15981154 L47.7276723,-5.14801887 C51.896709,-5.13839527 55.2739899,-1.76112329 55.2836246,2.40791335 L55.5174744,103.597241 C55.5271406,107.779933 52.1442345,111.178511 47.9615422,111.188177 C47.9498807,111.188204 47.9382192,111.188204 47.9265577,111.188177 L42.8178625,111.176385 C38.6488258,111.166761 35.2715449,107.789489 35.2619102,103.620452 L35.0280604,2.43112528 C35.0183942,-1.75156708 38.4013003,-5.15014524 42.5839926,-5.15981149 C42.5956541,-5.15983844 42.6073156,-5.15983846 42.6189771,-5.15981154 Z" id="矩形复制-23" fill="#FFFFFF" fill-rule="nonzero" transform="translate(45.272767, 53.014183) rotate(-38.000000) translate(-45.272767, -53.014183) "></path>
                    <path d="M75.1191504,4.89078247 L75.2030571,4.89058585 C80.7648539,4.87755313 85.2841462,9.37571519 85.2971789,14.937512 C85.2972158,14.9532504 85.2972158,14.9689888 85.2971789,14.9847272 L85.2970214,15.0518982 C85.2839857,20.6103411 80.7812144,25.1131037 75.2227715,25.1261285 L75.1388648,25.1263251 C69.577068,25.1393579 65.0577757,20.6411958 65.044743,15.079399 C65.0447061,15.0636606 65.0447061,15.0479222 65.044743,15.0321838 L65.0449006,14.9650128 C65.0579362,9.40656988 69.5607075,4.90380733 75.1191504,4.89078247 Z" id="矩形复制-24" fill="#FFFFFF" fill-rule="nonzero" transform="translate(75.170961, 15.008455) rotate(40.000000) translate(-75.170961, -15.008455) "></path>
                </g>
                <g id="编组复制-14" transform="translate(332.172969, 27.997888)">
                    <g id="矩形复制-7" transform="translate(8.330526, 38.229440)">
                        <mask id="mask-5" fill="white">
                            <use xlink:href="#path-4"></use>
                        </mask>
                        <use id="蒙版" fill="#FFFFFF" fill-rule="nonzero" transform="translate(28.789104, 8.640249) rotate(90.000000) translate(-28.789104, -8.640249) " xlink:href="#path-4"></use>
                        <path d="M-0.167983518,1.77036943 L12.2124444,1.72886206 C14.2573102,1.72200632 15.9205592,3.3741399 15.9274149,5.41900569 C15.9274428,5.42733662 15.9274427,5.43566762 15.9274143,5.44399856 L15.89403,15.2701218 C15.8871157,17.3052338 14.2389993,18.9532763 12.203887,18.9600993 L-0.176540988,19.0016067 C-2.22140678,19.0084625 -3.88465571,17.3563289 -3.89151145,15.3114631 C-3.89153938,15.3031322 -3.89153919,15.2948011 -3.89151089,15.2864702 L-3.85812659,5.46034702 C-3.85121228,3.42523501 -2.20309583,1.77719247 -0.167983518,1.77036943 Z" fill-opacity="0.65" fill="#185AA5" opacity="0.800000012" filter="url(#filter-6)" mask="url(#mask-5)" transform="translate(6.017952, 10.365234) rotate(90.000000) translate(-6.017952, -10.365234) "></path>
                    </g>
                    <path d="M19.7192315,16.313219 L20.001796,78.9185647 L70.346992,78.6184697 C73.5278557,78.5995094 76.1218256,81.1627385 76.1407859,84.3436022 C76.1409056,84.3636751 76.1409203,84.3837484 76.1408301,84.4038214 L76.1206764,88.8874966 C76.1064842,92.0448932 73.552872,94.6022511 70.3954997,94.6210714 L15.015722,94.9511762 C14.786024,94.9801072 14.5520904,94.9955207 14.3147388,94.996592 C14.2987585,94.9966641 14.2827779,94.9966697 14.2667976,94.9966088 L10.0739978,94.9806326 L9.60255825,94.9834427 C9.50308636,94.9840357 9.40418842,94.9821034 9.30592523,94.9777059 L6.11297795,94.9655396 C2.95078683,94.9534904 0.389689379,92.3941928 0.375417108,89.2320109 L6.02836039e-05,6.06749213 C-0.0142964152,2.88660431 2.55268425,0.296346836 5.73357207,0.281990137 C5.74955236,0.281918011 5.76553288,0.281912394 5.78151322,0.281973286 L13.9353329,0.31304254 C14.1250777,0.313765542 14.3126583,0.32365993 14.4976543,0.342305632 L70.3451114,0.000413699745 C73.525972,-0.0190591758 76.1203549,2.54375195 76.1398278,5.72461257 C76.1399526,5.74499474 76.1399691,5.76537743 76.1398775,5.78575977 L76.1197239,10.2694154 C76.1055333,13.4264504 73.5524829,15.9836578 70.3954753,16.0029846 L19.7192315,16.313219 Z" id="形状结合" fill="#FFFFFF" fill-rule="nonzero"></path>
                </g>
            </g>
        </g>
    </g>
</svg>