<?xml version="1.0" encoding="UTF-8"?>
<svg width="803px" height="1310px" viewBox="0 0 803 1310" version="1.1" xmlns="http://www.w3.org/2000/svg" xmlns:xlink="http://www.w3.org/1999/xlink">
    <!-- Generator: Sketch 54 (76480) - https://sketchapp.com -->
    <title>new_xian</title>
    <desc>Created with Sketch.</desc>
    <g id="Page-1" stroke="none" stroke-width="1" fill="none" fill-rule="evenodd" stroke-dasharray="6,7" stroke-linejoin="round">
        <g id="news" transform="translate(-637.000000, -128.000000)" stroke="#DFDFDF" stroke-width="4">
            <g id="编组-8" transform="translate(637.000000, 3.000000)">
                <path d="M717,1426 C1110.77903,1426 1430,1106.77903 1430,713 C1430,319.220973 1110.77903,0 717,0 C323.220973,0 4,319.220973 4,713 C4,1106.77903 323.220973,1426 717,1426 Z" id="椭圆形复制-14"></path>
                <path d="M717.5,1302 C1042.51958,1302 1306,1038.51958 1306,713.5 C1306,388.480425 1042.51958,125 717.5,125 C392.480425,125 129,388.480425 129,713.5 C129,1038.51958 392.480425,1302 717.5,1302 Z" id="椭圆形复制-14"></path>
                <path d="M717,1165 C966.632707,1165 1169,962.632707 1169,713 C1169,463.367293 966.632707,261 717,261 C467.367293,261 265,463.367293 265,713 C265,962.632707 467.367293,1165 717,1165 Z" id="椭圆形复制-14"></path>
            </g>
        </g>
    </g>
</svg>