<?xml version="1.0" encoding="UTF-8"?>
<svg width="145px" height="113px" viewBox="0 0 145 113" version="1.1" xmlns="http://www.w3.org/2000/svg" xmlns:xlink="http://www.w3.org/1999/xlink">
    <!-- Generator: Sketch 54 (76480) - https://sketchapp.com -->
    <title>disabled</title>
    <desc>Created with Sketch.</desc>
    <defs>
        <filter x="-37.4%" y="-51.8%" width="174.8%" height="203.6%" filterUnits="objectBoundingBox" id="filter-1">
            <feOffset dx="7" dy="6" in="SourceAlpha" result="shadowOffsetOuter1"></feOffset>
            <feGaussianBlur stdDeviation="7.5" in="shadowOffsetOuter1" result="shadowBlurOuter1"></feGaussianBlur>
            <feColorMatrix values="0 0 0 0 0   0 0 0 0 0   0 0 0 0 0  0 0 0 0.12 0" type="matrix" in="shadowBlurOuter1" result="shadowMatrixOuter1"></feColorMatrix>
            <feMerge>
                <feMergeNode in="shadowMatrixOuter1"></feMergeNode>
                <feMergeNode in="SourceGraphic"></feMergeNode>
            </feMerge>
        </filter>
        <linearGradient x1="-13.47136%" y1="50%" x2="100%" y2="50%" id="linearGradient-2">
            <stop stop-color="#484EED" offset="0%"></stop>
            <stop stop-color="#3A72F0" offset="100%"></stop>
        </linearGradient>
    </defs>
    <g id="Page-1" stroke="none" stroke-width="1" fill="none" fill-rule="evenodd">
        <g id="ipfsex1.2" transform="translate(-195.000000, -764.000000)">
            <g id="disabled" filter="url(#filter-1)" transform="translate(203.000000, 773.000000)">
                <path d="M40.8797115,71.965509 L40.8797115,47.3518484 C48.7311406,40.7193951 53.7162904,30.8081391 53.7162904,19.7341036 C53.7162904,8.66006809 48.7311406,-1.25118793 40.8797115,-7.88364116 L40.8797115,-32.4973009 C60.8602616,-23.5681003 74.7814456,-3.5405471 74.7814456,19.7341036 C74.7814456,43.0087543 60.8602616,63.0363076 40.8797115,71.965509 L40.8797115,71.965509 Z" id="路径" fill="#FFFFFF" fill-rule="nonzero" transform="translate(57.830579, 19.734104) rotate(90.000000) translate(-57.830579, -19.734104) "></path>
                <g transform="translate(27.000000, 0.000000)" fill="url(#linearGradient-2)" id="形状">
                    <path d="M46.0811429,29.0793133 L39.5774038,32.3528027 C38.2752129,32.0631421 36.9454848,31.9177729 35.6119235,31.9192865 C25.2173588,31.9192865 16.7286839,40.7134716 16.7286839,51.6354247 C16.7286839,53.4933512 23.6891339,56.2802408 33.416198,56.6518261 L33.416198,61.9601873 C22.1126029,61.5664838 11.4589426,58.1248963 11.4589426,51.6354247 C11.4589426,41.0054314 17.8572868,31.9192865 26.8817188,28.2919064 C21.3448322,24.4427085 18.9364234,17.4136009 20.9376088,10.9436105 C22.9387942,4.47362008 28.8844697,0.0664653823 35.6119235,0.0664653823 C42.3393773,0.0664653823 48.2850528,4.47362008 50.2862383,10.9436105 C52.2874237,17.4136009 49.8790148,24.4427085 44.3421282,28.2919064 C44.9349741,28.5307826 45.5146457,28.791777 46.0811429,29.0748896 L46.0811429,29.0793133 Z M7.86234421,55.4751394 C3.19423172,53.8782074 0.0104296963,51.3700067 0.0104296963,47.954961 C0.0104296963,38.0814091 5.95206299,29.6455385 14.3265602,26.2791527 C9.07678017,22.6268062 6.87114371,15.9082896 8.92420264,9.8232092 C10.9772616,3.73812882 16.7902344,-0.235172014 23.1621597,0.0912374582 C21.1759497,1.71745548 19.5207183,3.71528558 18.287649,5.97467113 C15.337891,7.44152418 13.3665145,10.3577266 13.0923602,13.6599176 C12.8182059,16.9621086 14.2813436,20.1676457 16.9482565,22.1076656 C17.5850169,23.9434738 18.4852643,25.6731148 19.6138673,27.2390814 C17.8572868,28.4688517 16.2456243,29.8844147 14.8096198,31.4636522 C8.95581552,34.4230635 4.90250619,40.6780825 4.90250619,47.9505373 C4.90250619,48.5565753 5.69296738,49.2643567 7.11579753,49.9455964 C7.08505737,50.507398 7.06749156,51.0691996 7.06749156,51.6354247 C7.06749156,53.011175 7.34415298,54.2896054 7.86234421,55.4751394 L7.86234421,55.4751394 Z M43.0773903,52.3476299 L47.3370979,53.6349075 C47.3370979,53.6349075 47.5478875,53.6349075 47.5478875,53.8516656 L47.5478875,54.2807581 L43.28818,61.7876656 C43.0773903,62 43.0773903,62 42.8666007,62 L42.6514196,62 C42.6514196,62 42.4406299,61.7876656 42.4406299,61.5709075 L42.4406299,52.7767224 C42.4406299,52.564388 42.4406299,52.3476299 42.6514196,52.3476299 L43.0773903,52.3476299 L43.0773903,52.3476299 Z M60.3270101,26.6109253 L60.8056783,26.6109253 C60.9637705,26.6109253 60.9637705,26.7701761 60.9637705,26.929427 L55.2417098,53.1792731 L55.0836175,53.3429476 L54.7674331,53.3429476 L43.1652193,49.4988094 C43.1652193,49.4988094 43.0071271,49.4988094 43.0071271,49.3395585 C42.8490349,49.1803077 43.0071271,49.1803077 43.0071271,49.0210569 L54.4512486,34.1311037 L39.9945917,48.3752062 L39.6740157,48.3752062 L29.1872306,44.6947425 C29.1872306,44.6947425 29.0247469,44.5354916 29.0247469,44.3762408 C29.0247469,44.21699 29.0247469,44.0577391 29.1828391,44.0577391 L60.3270101,26.6109253 Z M35.6119235,25.7261984 C41.1901859,25.7261984 45.712261,21.1709828 45.712261,15.5518395 C45.712261,9.93269616 41.1901859,5.37748049 35.6119235,5.37748049 C30.0336612,5.37748049 25.5115861,9.93269616 25.5115861,15.5518395 C25.5115861,21.1709828 30.0336612,25.7261984 35.6119235,25.7261984 L35.6119235,25.7261984 Z"></path>
                </g>
                <path d="M17.5000019,95.5330274 L17.5000019,70.8073097 C23.7534862,76.138202 31.8303008,79.3505747 40.6489375,79.3505747 C60.498232,79.3505747 76.5892644,63.0758681 76.5892644,43 C76.5892644,22.9241319 60.498232,6.64942529 40.6489375,6.64942529 C31.8303008,6.64942529 23.7534862,9.86179802 17.5000019,15.1926903 L17.5000019,-9.53302738 C24.5710849,-12.7252978 32.4050983,-14.5 40.6489375,-14.5 C72.0469123,-14.5 97.5,11.2436269 97.5,43 C97.5,74.7563731 72.0469123,100.5 40.6489375,100.5 C32.4050983,100.5 24.5710849,98.7252978 17.5,95.5330265 L17.5000019,95.5330274 Z" id="路径" fill="#FFFFFF" fill-rule="nonzero" transform="translate(57.500000, 43.000000) rotate(90.000000) translate(-57.500000, -43.000000) "></path>
            </g>
        </g>
    </g>
</svg>