<?xml version="1.0" encoding="UTF-8"?>
<svg width="363px" height="143px" viewBox="0 0 363 143" version="1.1" xmlns="http://www.w3.org/2000/svg" xmlns:xlink="http://www.w3.org/1999/xlink">
    <!-- Generator: Sketch 54 (76480) - https://sketchapp.com -->
    <title>dsp</title>
    <desc>Created with Sketch.</desc>
    <g id="Page-1" stroke="none" stroke-width="1" fill="none" fill-rule="evenodd" opacity="0.100000001">
        <g id="home1.2" transform="translate(-136.000000, -291.000000)" fill="#FFFFFF" fill-rule="nonzero">
            <path d="M136,382 L154,382 L154,415 L177.077804,415 C205.889531,415 220.748741,405.412791 225.380566,382.000029 L244.416525,382 C238.807317,413.723288 218.338156,430.187285 183.682482,431 L136,431 L136,382 Z M136,348 L136,294 L139.054654,294 L183.75318,294.00083 C220.123212,294.854482 240.870013,313.006208 245.162146,348 L226.054139,348 C222.345094,321.673707 207.478313,311 177.077804,311 L154,311 L154,348 L136,348 Z M265.195029,382 L283.521758,382 L283.461725,384.993071 C283.012723,407.379027 296.667347,417.1209 322.508096,417.1209 C329.415183,417.1209 337.213099,415.077477 343.06682,411.421248 C349.836727,407.19277 353.603513,401.224098 353.603513,393.570601 C353.603513,388.921472 351.98143,385.122133 348.863098,382 L370.411342,382 C371.464389,385.450056 372,389.239035 372,393.386751 C372,401.544804 369.712397,410.100205 363.790751,417.482651 C355.346599,428.009878 340.93242,434 319.617071,434 C284.908009,434 263.625268,416.739517 265.069096,384.786939 L265.195029,382 Z M273.153036,348 C270.56086,343.288755 269.221722,337.669563 269.221722,331.0617 C269.221722,322.400995 272.288949,313.018476 278.584476,305.710312 C286.684977,296.306844 299.352333,291 316.726046,291 C346.137863,291 367.482774,307.710697 367.482774,334.922544 L367.482774,338.030452 L349.224426,338.030452 L349.089554,335.066259 C348.322422,318.206366 335.266185,307.8791 316.906735,307.8791 C298.664923,307.8791 287.618209,315.42895 287.618209,330.87785 C287.618209,340.176278 293.390812,345.339042 304.810766,347.900344 L305.207062,348 L273.153036,348 Z M415,348 L397,348 L397,294 L457.514706,294 C482.766987,294 499,309.466971 499,334.470124 C499,339.359535 498.379241,343.884278 497.191669,348.000002 L476.674493,348 C478.862437,344.429574 480,339.920297 480,334.5 C480,319.048253 470.755472,311 454.286158,311 L415,311 L415,348 Z M397,382 L415.451817,382 L415.451817,431 L397,431 L397,382 Z" id="dsp"></path>
        </g>
    </g>
</svg>