<?xml version="1.0" encoding="UTF-8"?>
<svg width="302px" height="55px" viewBox="0 0 302 55" version="1.1" xmlns="http://www.w3.org/2000/svg" xmlns:xlink="http://www.w3.org/1999/xlink">
    <!-- Generator: Sketch 54 (76480) - https://sketchapp.com -->
    <title>ethfs_logo</title>
    <desc>Created with Sketch.</desc>
    <defs>
        <path d="M14.3536891,0.058468355 L17.1474821,0.05185573 C19.4341927,0.0464433175 21.2923256,1.89580095 21.2977381,4.18251162 C21.2977535,4.18904884 21.2977535,4.19558607 21.297738,4.20212328 L21.2354461,30.489014 C21.2300454,32.7680696 19.3838458,34.614264 17.1047902,34.6196583 L14.3109972,34.6262709 C12.0242866,34.6316833 10.1661537,32.7823257 10.1607413,30.495615 C10.1607258,30.4890778 10.1607258,30.4825406 10.1607413,30.4760034 L10.2230332,4.18911267 C10.2284339,1.91005708 12.0746335,0.0638626488 14.3536891,0.058468355 Z" id="path-1"></path>
        <filter x="-56.1%" y="-64.0%" width="212.2%" height="227.9%" filterUnits="objectBoundingBox" id="filter-3">
            <feGaussianBlur stdDeviation="2.07023377" in="SourceGraphic"></feGaussianBlur>
        </filter>
    </defs>
    <g id="Page-1" stroke="none" stroke-width="1" fill="none" fill-rule="evenodd">
        <g id="ethfs1.2" transform="translate(-141.000000, -337.000000)">
            <g id="ethfs_logo" transform="translate(135.000000, 324.000000)">
                <path d="M45.0975196,66.5111111 L6.37186654,66.5111111 L6.37186654,14.6070757 L43.892879,14.6070757 L43.892879,20.7675819 L13.2454042,20.7675819 L13.2454042,36.6291153 L41.908765,36.6291153 L41.908765,42.7896215 L13.2454042,42.7896215 L13.2454042,60.3506049 L45.0975196,60.3506049 L45.0975196,66.5111111 Z M95.066209,20.7675819 L77.8823647,20.7675819 L77.8823647,66.5111111 L70.9733965,66.5111111 L70.9733965,20.7675819 L53.9312747,20.7675819 L53.9312747,14.6070757 L95.066209,14.6070757 L95.066209,20.7675819 Z M146.629276,66.5111111 L139.720307,66.5111111 L139.720307,42.0815174 L112.722185,42.0815174 L112.722185,66.5111111 L105.848647,66.5111111 L105.848647,14.6070757 L112.722185,14.6070757 L112.722185,35.9210111 L139.720307,35.9210111 L139.720307,14.6070757 L146.629276,14.6070757 L146.629276,66.5111111 Z M196.668826,20.7675819 L168.501494,20.7675819 L168.501494,36.8415465 L192.913182,36.8415465 L192.913182,43.0020528 L168.501494,43.0020528 L168.501494,66.5111111 L161.627956,66.5111111 L161.627956,14.6070757 L196.668826,14.6070757 L196.668826,20.7675819 Z M228.922212,67.3962413 C221.59985,67.3962413 216.125876,65.7558164 212.500126,62.4749174 C208.874376,59.1940183 206.967047,54.9808407 206.778083,49.835258 L213.403607,49.835258 C213.757914,53.7062468 215.369991,56.5681392 218.239884,58.421021 C221.109778,60.2739028 224.576038,61.2003299 228.638767,61.2003299 C232.488913,61.2003299 235.58906,60.4096214 237.939302,58.8281809 C240.289544,57.2467404 241.464647,55.0988459 241.464647,52.384433 C241.464647,49.5283986 240.248208,47.4513138 237.815295,46.1531163 C235.382381,44.8549189 231.195706,43.5744433 225.255144,42.3116512 C219.314583,41.0488591 215.051143,39.2963189 212.464696,37.0539778 C209.878248,34.8116367 208.585044,31.8258273 208.585044,28.0964601 C208.585044,23.895021 210.267981,20.4489485 213.633906,17.7581392 C216.99983,15.0673299 221.469947,13.7219455 227.04439,13.7219455 C232.90228,13.7219455 237.626313,15.0791316 241.216633,17.7935444 C244.806952,20.5079573 246.708376,24.3434832 246.92096,29.3002372 L240.224576,29.3002372 C239.539581,23.0216821 235.24071,19.8824517 227.327835,19.8824517 C223.50131,19.8824517 220.536979,20.6023504 218.434753,22.0421694 C216.332526,23.4819884 215.281429,25.3938506 215.281429,27.7778132 C215.281429,29.9493435 216.12585,31.5779668 217.814717,32.6637319 C219.503584,33.7494971 222.656877,34.7998411 227.274689,35.8147955 C231.892501,36.8297499 235.559532,37.8328874 238.275892,38.8242382 C240.992253,39.815589 243.318839,41.3557001 245.255722,43.4446179 C247.192605,45.5335356 248.161032,48.3364199 248.161032,51.8533549 C248.161032,56.3144334 246.383614,60.0201415 242.828725,62.9705903 C239.273837,65.9210391 234.638379,67.3962413 228.922212,67.3962413 Z" id="ETHFS" fill="#FFFFFF" fill-rule="nonzero"></path>
                <g id="编组复制-19" transform="translate(260.514706, 10.933333)">
                    <g id="矩形复制-22" transform="translate(0.000000, 23.200181)">
                        <mask id="mask-2" fill="white">
                            <use xlink:href="#path-1"></use>
                        </mask>
                        <use id="蒙版" fill="#FFFFFF" fill-rule="nonzero" transform="translate(15.729240, 17.339063) rotate(38.000000) translate(-15.729240, -17.339063) " xlink:href="#path-1"></use>
                        <path d="M20.2797922,3.11002668 L27.1940514,3.09539351 C28.3374073,3.09297373 29.2662421,4.01788528 29.2686619,5.16124125 C29.2686681,5.16415861 29.2686681,5.16707598 29.2686619,5.16999334 L29.2569319,10.7260467 C29.2545252,11.8659862 28.3310237,12.7894925 27.1910841,12.7919051 L20.2768249,12.8065383 C19.1334689,12.808958 18.2046342,11.8840465 18.2022144,10.7406905 C18.2022082,10.7377731 18.2022082,10.7348558 18.2022144,10.7319384 L18.2139444,5.17588511 C18.2163511,4.03594552 19.1398526,3.11243922 20.2797922,3.11002668 Z" id="矩形复制-7" fill-opacity="0.65" fill="#185AA5" filter="url(#filter-3)" mask="url(#mask-2)" transform="translate(23.735438, 7.950966) rotate(60.000000) translate(-23.735438, -7.950966) "></path>
                    </g>
                    <path d="M23.3013234,-2.82245095 L26.0951164,-2.81583833 C28.374172,-2.81044403 30.2203716,-0.964249604 30.2257723,1.31480599 L30.3568731,56.6387289 C30.3622919,58.9254395 28.5129395,60.7835776 26.2262288,60.7889964 C26.2196916,60.7890119 26.2131544,60.7890119 26.2066172,60.7889964 L23.4128242,60.7823838 C21.1337686,60.7769895 19.287569,58.9307951 19.2821683,56.6517395 L19.1510675,1.3278166 C19.1456486,-0.958894053 20.9950011,-2.81703212 23.2817117,-2.82245092 C23.288249,-2.82246642 23.2947862,-2.82246643 23.3013234,-2.82245095 Z" id="矩形复制-23" fill="#FFFFFF" fill-rule="nonzero" transform="translate(24.753970, 28.983273) rotate(-38.000000) translate(-24.753970, -28.983273) "></path>
                    <path d="M41.0724809,2.67355747 L41.1195176,2.67344446 C44.1599863,2.66613913 46.6306953,5.12500387 46.6380007,8.16547257 C46.6380219,8.17429461 46.6380218,8.18311669 46.6380006,8.19193873 L46.6379101,8.22959313 C46.6306031,11.2681811 44.169155,13.7296242 41.130567,13.736925 L41.0835303,13.737038 C38.0430616,13.7443433 35.5723526,11.2854786 35.5650473,8.24500987 C35.5650261,8.23618783 35.5650261,8.22736575 35.5650473,8.21854371 L35.5651379,8.18088931 C35.5724449,5.14230135 38.0338929,2.68085829 41.0724809,2.67355747 Z" id="矩形复制-24" fill="#FFFFFF" fill-rule="nonzero" transform="translate(41.101524, 8.205241) rotate(40.000000) translate(-41.101524, -8.205241) "></path>
                </g>
            </g>
        </g>
    </g>
</svg>