<?xml version="1.0" encoding="UTF-8"?>
<svg width="243px" height="140px" viewBox="0 0 243 140" version="1.1" xmlns="http://www.w3.org/2000/svg" xmlns:xlink="http://www.w3.org/1999/xlink">
    <!-- Generator: Sketch 54 (76480) - https://sketchapp.com -->
    <title>EX</title>
    <desc>Created with Sketch.</desc>
    <g id="Page-1" stroke="none" stroke-width="1" fill="none" fill-rule="evenodd" opacity="0.100000001">
        <g id="ipfsex1.2" transform="translate(-138.000000, -240.000000)" fill="#FFFFFF" fill-rule="nonzero">
            <g id="编组-2" transform="translate(135.000000, 240.000000)">
                <path d="M3,102.184397 L22.9148321,102.184397 L22.9148321,122.6 L104.167347,122.6 L104.167347,140 L3,140 L3,102.184397 Z M3,44.9929078 L3,0 L101.37927,0 L101.37927,17.4 L22.9148321,17.4 L22.9148321,44.9929078 L3,44.9929078 Z M195.701456,102.184397 L218.415978,102.184397 L246,140 L223.08198,140 L195.701456,102.184397 Z M166.968618,102.184397 L139.979245,140 L117.061224,140 L144.665833,102.184397 L166.968618,102.184397 Z M152.723827,44.9929078 L120.249819,0 L142.968552,0 L175.634639,44.9929078 L152.723827,44.9929078 Z M188.357774,44.9929078 L220.690534,0 L242.412832,0 L209.650592,44.9929078 L188.357774,44.9929078 Z" id="EX"></path>
            </g>
        </g>
    </g>
</svg>