<?xml version="1.0" encoding="UTF-8"?>
<svg width="351px" height="140px" viewBox="0 0 351 140" version="1.1" xmlns="http://www.w3.org/2000/svg" xmlns:xlink="http://www.w3.org/1999/xlink">
    <!-- Generator: Sketch 54 (76480) - https://sketchapp.com -->
    <title>FSX</title>
    <desc>Created with Sketch.</desc>
    <g id="Page-1" stroke="none" stroke-width="1" fill="none" fill-rule="evenodd" opacity="0.100000001">
        <g id="ethfs1.2" transform="translate(-135.000000, -291.000000)" fill="#DFDFDF" fill-rule="nonzero">
            <path d="M154.635628,336 L135,336 L135,293 L232,293 L232,310.027143 L154.635628,310.027143 L154.635628,336 Z M154.635628,392 L154.635628,430 L135,430 L135,392 L154.635628,392 Z M331.870979,392 L350.99992,392 C350.999973,392.029774 351,392.059569 351,392.089385 C351,399.258881 349.051968,405.809095 345.155844,411.740223 C341.259721,417.671352 335.350689,422.364042 327.428571,425.818436 C319.506454,429.272829 309.766292,431 298.207792,431 C287.948001,431 278.045502,429.403182 268.5,426.209497 C258.954498,423.015813 251.454573,418.87712 246,413.793296 L253.207792,398.541899 C258.402623,403.23466 265.058401,407.047471 273.175325,409.980447 C281.292248,412.913422 289.636321,414.379888 298.207792,414.379888 C309.50655,414.379888 317.948024,412.457189 323.532468,408.611732 C329.116911,404.766275 331.909091,399.649939 331.909091,393.26257 C331.909091,392.834387 331.896387,392.413531 331.870979,392 Z M249.687329,336 C249.436902,334.135567 249.311688,332.170949 249.311688,330.106145 C249.311688,322.806295 251.227254,316.223493 255.058442,310.357542 C258.88963,304.491591 264.70126,299.7989 272.493506,296.27933 C280.285753,292.759759 289.960981,291 301.519481,291 C309.571469,291 317.493468,292.04282 325.285714,294.128492 C333.077961,296.214163 339.766206,299.212271 345.350649,303.122905 L338.922078,318.765363 C333.207764,315.115438 327.103929,312.345447 320.61039,310.455307 C314.116851,308.565167 307.753278,307.620112 301.519481,307.620112 C290.480464,307.620112 282.201326,309.640576 276.681818,313.681564 C271.16231,317.722553 268.402597,322.936653 268.402597,329.324022 C268.402597,331.792899 268.833946,334.01822 269.69665,336 L249.687329,336 Z M435.732822,392 L458.100411,392 L486,430 L463.426584,430 L435.732822,392 Z M408.871553,392 L381.573416,430 L359,430 L386.920411,392 L408.871553,392 Z M393.378989,336 L362.140649,293 L384.517774,293 L415.940884,336 L393.378989,336 Z M429.968632,336 L461.071097,293 L482.46677,293 L450.951167,336 L429.968632,336 Z" id="FSX"></path>
        </g>
    </g>
</svg>