<?xml version="1.0" encoding="UTF-8"?>
<svg width="141px" height="40px" viewBox="0 0 141 40" version="1.1" xmlns="http://www.w3.org/2000/svg" xmlns:xlink="http://www.w3.org/1999/xlink">
    <!-- Generator: Sketch 54 (76480) - https://sketchapp.com -->
    <title>home_bailogo</title>
    <desc>Created with Sketch.</desc>
    <defs>
        <path d="M6.86689461e-07,38.1910531 L6.86689461e-07,29.6005204 C2.19809841,31.4598504 5.04074426,32.5808748 8.14521939,32.5808748 C15.1146956,32.5808748 20.7645723,26.9309981 20.7645723,19.9615219 C20.7645723,12.9920457 15.1146956,7.34216897 8.14521939,7.34216897 C5.04074426,7.34216897 2.19809841,8.46319338 6.8668946e-07,10.3225234 L6.86689461e-07,1.7319907 C2.48728339,0.618945205 5.24397019,0 8.14521939,0 C19.1696635,0 28.1067413,8.93707777 28.1067413,19.9615219 C28.1067413,30.985966 19.1696635,39.9230438 8.14521939,39.9230438 C5.24397019,39.9230438 2.48728339,39.3040986 5.49725154e-10,38.1910492 Z" id="path-1"></path>
        <path d="M6.67317806e-07,38.1987285 L6.67317806e-07,29.6150214 C2.17912871,31.4656774 4.99362578,32.5808748 8.06662282,32.5808748 C14.9834315,32.5808748 20.5906128,26.9309981 20.5906128,19.9615219 C20.5906128,12.9920457 14.9834315,7.34216897 8.06662282,7.34216897 C4.99362578,7.34216897 2.17912871,8.45736634 6.67317806e-07,10.3080224 L6.67317806e-07,1.72431529 C2.46403426,0.616100116 5.19392331,0 8.06662282,0 C19.0077565,0 27.8772978,8.93707777 27.8772978,19.9615219 C27.8772978,30.985966 19.0077565,39.9230438 8.06662282,39.9230438 C5.19392331,39.9230438 2.46403426,39.3069437 5.33773026e-10,38.1987247 Z" id="path-3"></path>
        <filter x="-43.4%" y="-14.2%" width="186.8%" height="128.3%" filterUnits="objectBoundingBox" id="filter-5">
            <feGaussianBlur stdDeviation="2.00762433" in="SourceGraphic"></feGaussianBlur>
        </filter>
        <path d="M11.2913234,35.2193278 L11.2913234,36.0557155 C10.760416,35.7993086 10.2425917,35.5200894 9.7391227,35.2193278 L11.2913234,35.2193278 Z M7.10574665,33.341544 L7.10574665,32.6444859 L8.71184007,32.6444859 L8.71184007,34.2459379 L8.26234918,34.2459379 C7.86557274,33.9584653 7.47978854,33.6567513 7.10574665,33.3415461 Z M9.68523002,32.6444859 L11.2913234,32.6444859 L11.2913234,34.2459379 L9.68523002,34.2459379 L9.68523002,32.6444859 Z M4.52626328,30.728892 L4.52626328,30.0696464 L6.1323567,30.0696459 L6.1323567,31.671096 L5.35038054,31.671096 C5.06606524,31.3657944 4.79120411,31.051571 4.52626328,30.728892 Z M7.10574665,30.0696456 L8.71184007,30.069645 L8.71184007,31.671096 L7.10574665,31.671096 L7.10574665,30.0696456 Z M9.68523002,30.0696447 L11.2913234,30.0696442 L11.2913234,31.671096 L9.68523002,31.671096 L9.68523002,30.0696447 Z M3.55287333,27.4948021 L3.55287333,29.096254 L3.31885245,29.096254 C2.97539272,28.5788684 2.65541498,28.0445442 2.36043995,27.4948021 L3.55287333,27.4948021 Z M4.52626328,27.4948021 L6.1323567,27.4948021 L6.1323567,29.096254 L4.52626328,29.096254 L4.52626328,27.4948021 Z M7.10574665,27.4948021 L8.71184007,27.4948021 L8.71184007,29.096254 L7.10574665,29.096254 L7.10574665,27.4948021 Z M9.68523002,27.4948021 L11.2913234,27.4948021 L11.2913234,29.096254 L9.68523002,29.096254 L9.68523002,27.4948021 Z M1.9467799,24.9199601 L3.55287333,24.9199601 L3.55287333,26.5214121 L1.9467799,26.5214121 L1.9467799,24.9199601 Z M4.52626328,24.9199601 L6.1323567,24.9199601 L6.1323567,26.5214121 L4.52626328,26.5214121 L4.52626328,24.9199601 Z M7.10574665,24.9199601 L8.71184007,24.9199601 L8.71184007,26.5214121 L7.10574665,26.5214121 L7.10574665,24.9199601 Z M9.68523002,25.3963912 C9.9654207,25.7887139 10.2675182,26.1643164 10.5897359,26.5214121 L9.68523002,26.5214121 L9.68523002,25.3963912 Z M0.973389952,22.3451182 L0.973389952,23.9465702 L0.878954805,23.9465702 C0.717503767,23.4216505 0.577116616,22.8875043 0.458779844,22.3451182 L0.973389952,22.3451182 Z M1.9467799,22.3451182 L3.55287333,22.3451182 L3.55287333,23.9465702 L1.9467799,23.9465702 L1.9467799,22.3451182 Z M4.52626328,22.3451182 L6.1323567,22.3451182 L6.1323567,23.9465702 L4.52626328,23.9465702 L4.52626328,22.3451182 Z M7.10574665,22.3451182 L8.08460082,22.3451182 C8.26396578,22.8433856 8.47379455,23.3271114 8.71184007,23.7940487 L8.71184007,23.9465702 L7.10574665,23.9465702 L7.10574665,22.3451182 Z M0.973389952,19.7702763 L0.973389952,21.3717283 L0.27172676,21.3717283 C0.183998264,20.8446095 0.116924635,20.3105056 0.0713657726,19.7702763 L0.973389952,19.7702763 Z M1.9467799,19.7702763 L3.55287333,19.7702763 L3.55287333,21.3717283 L1.9467799,21.3717283 L1.9467799,19.7702763 Z M4.52626328,19.7702763 L6.1323567,19.7702763 L6.1323567,21.3717283 L4.52626328,21.3717283 L4.52626328,19.7702763 Z M7.10574665,19.7702763 L7.45568572,19.7702763 C7.5291556,20.3159223 7.63749762,20.8505118 7.77839522,21.3717283 L7.10574665,21.3717283 L7.10574665,19.7702763 Z M0.973389952,17.1954344 L0.973389952,18.7968863 L0.0129758327,18.7968863 C0.0043497942,18.5557751 0,18.3135744 0,18.0703578 C0,17.7771977 0.0063196335,17.4855136 0.0188301002,17.1954344 L0.973389952,17.1954344 Z M1.9467799,17.1954344 L3.55287333,17.1954344 L3.55287333,18.7968863 L1.9467799,18.7968863 L1.9467799,17.1954344 Z M4.52626328,17.1954344 L6.1323567,17.1954344 L6.1323567,18.7968863 L4.52626328,18.7968863 L4.52626328,17.1954344 Z M7.10574665,17.1954344 L7.3720256,17.1954344 C7.35222964,17.4845088 7.34216897,17.7762584 7.34216897,18.0703578 C7.34216897,18.3142113 7.34908563,18.5564493 7.36273348,18.7968863 L7.10574665,18.7968863 L7.10574665,17.1954344 Z M0.973389952,14.6205924 L0.973389952,16.2220444 L0.0844349497,16.2220444 C0.134044412,15.6817058 0.205188503,15.1475998 0.297001383,14.6205924 L0.973389952,14.6205924 Z M1.9467799,14.6205924 L3.55287333,14.6205924 L3.55287333,16.2220444 L1.9467799,16.2220444 L1.9467799,14.6205924 Z M4.52626328,14.6205924 L6.1323567,14.6205924 L6.1323567,16.2220444 L4.52626328,16.2220444 L4.52626328,14.6205924 Z M7.10574665,14.6205924 L7.81949069,14.6205924 C7.67178511,15.141481 7.55669433,15.6760805 7.47656501,16.2220444 L7.10574665,16.2220444 L7.10574665,14.6205924 Z M0.973389952,12.0457505 L0.973389952,13.6472025 L0.491752488,13.6472025 C0.614483545,13.1046721 0.759309692,12.5705229 0.92523534,12.0457505 L0.973389952,12.0457505 Z M1.9467799,12.0457505 L3.55287333,12.0457505 L3.55287333,13.6472025 L1.9467799,13.6472025 L1.9467799,12.0457505 Z M4.52626328,12.0457505 L6.1323567,12.0457505 L6.1323567,13.6472025 L4.52626328,13.6472025 L4.52626328,12.0457505 Z M7.10574665,12.0457505 L8.71184007,12.0457505 L8.71184007,12.3466669 C8.49749549,12.7671137 8.3060286,13.2011724 8.13907986,13.6472025 L7.10574665,13.6472025 L7.10574665,12.0457505 Z M1.9467799,9.47090858 L3.55287333,9.47090858 L3.55287333,11.0723605 L1.9467799,11.0723605 L1.9467799,9.47090858 Z M4.52626328,9.47090858 L6.1323567,9.47090858 L6.1323567,11.0723605 L4.52626328,11.0723605 L4.52626328,9.47090858 Z M7.10574665,9.47090858 L8.71184007,9.47090858 L8.71184007,11.0723605 L7.10574665,11.0723605 L7.10574665,9.47090858 Z M9.68523002,9.47090858 L10.725787,9.47090858 C10.3522504,9.87190624 10.0045168,10.2972595 9.68523002,10.7443244 L9.68523002,9.47090858 Z M3.55287333,6.89606528 L3.55287333,8.4975186 L2.44087599,8.49751862 C2.74205685,7.94745225 3.06838755,7.41311885 3.41832126,6.89606526 L3.55287333,6.89606528 Z M4.52626328,6.89606544 L6.1323567,6.89606571 L6.1323567,8.49751855 L4.52626328,8.49751858 L4.52626328,6.89606544 Z M7.10574665,6.89606587 L8.71184007,6.89606614 L8.71184007,8.49751849 L7.10574665,8.49751853 L7.10574665,6.89606587 Z M9.68523002,6.8960663 L11.2913234,6.89606656 L11.2913234,8.49751844 L9.68523002,8.49751847 L9.68523002,6.8960663 Z M4.52626328,5.41182361 C4.83433561,5.03661347 5.15582115,4.67283622 5.48998702,4.32122472 L6.1323567,4.32122472 L6.1323567,5.9226767 L4.52626328,5.9226767 L4.52626328,5.41182361 Z M7.10574665,4.32122472 L8.71184007,4.32122472 L8.71184007,5.9226767 L7.10574665,5.9226767 L7.10574665,4.32122472 Z M9.68523002,4.32122472 L11.2913234,4.32122472 L11.2913234,5.9226767 L9.68523002,5.9226767 L9.68523002,4.32122472 Z M7.10574665,2.79916945 C7.53602813,2.43657115 7.98184844,2.09182608 8.44206576,1.7660761 L8.71184007,1.7660761 L8.71184007,3.34783477 L7.10574665,3.34783477 L7.10574665,2.79916945 Z M9.68523002,1.7660761 L11.2913234,1.7660761 L11.2913234,3.34783477 L9.68523002,3.34783477 L9.68523002,1.7660761 Z M11.2913234,0.0850017882 L11.2913234,0.792676994 L9.95772713,0.792676994 C10.3921443,0.540605644 10.8369424,0.304448274 11.2913234,0.085002774 Z" id="path-6"></path>
        <path d="M24.4356553,37.3518168 C16.525491,34.0584019 11.0132535,26.6641044 11.0132535,18.0703578 C11.0132535,9.47661124 16.525491,2.08231369 24.4356553,-1.2111012 L24.4356561,7.86934786 C21.3235855,10.3172337 19.3470372,13.9787498 19.3470372,18.0703578 C19.3470372,22.1619658 21.3235855,25.8234819 24.4356561,28.2713677 L24.4356561,37.3518209 Z" id="path-8"></path>
        <filter x="-41.0%" y="-16.9%" width="196.9%" height="133.7%" filterUnits="objectBoundingBox" id="filter-9">
            <feOffset dx="1" dy="0" in="SourceAlpha" result="shadowOffsetOuter1"></feOffset>
            <feGaussianBlur stdDeviation="2" in="shadowOffsetOuter1" result="shadowBlurOuter1"></feGaussianBlur>
            <feColorMatrix values="0 0 0 0 0   0 0 0 0 0   0 0 0 0 0  0 0 0 0.1 0" type="matrix" in="shadowBlurOuter1"></feColorMatrix>
        </filter>
    </defs>
    <g id="Page-1" stroke="none" stroke-width="1" fill="none" fill-rule="evenodd">
        <g id="home复制" transform="translate(-135.000000, -40.000000)">
            <g id="编组-3">
                <g id="home_bailogo" transform="translate(135.000000, 40.000000)">
                    <path d="M50.6666667,22.3323945 L50.6666667,5.66760553 L51.0377561,5.66760553 L56.4678819,5.66770644 C61.4606025,5.785044 64.0298327,8.58915364 64.0298327,14 C64.0298327,19.4108464 61.4606025,22.214956 56.4592932,22.3323945 L50.6666667,22.3323945 Z M52.9014145,7.71355705 L52.9014145,20.2864429 L55.7130087,20.2864429 C60.0538202,20.2864429 61.7950848,18.5139654 61.7950848,14 C61.7950848,9.48603459 60.0538202,7.71355705 55.7130087,7.71355705 L52.9014145,7.71355705 Z M66.3037436,16.7014471 L66.3200198,16.342031 L68.5457496,16.342031 L68.5380226,16.7264328 C68.4834793,19.439882 70.1422004,20.6207151 73.2812539,20.6207151 C74.1203053,20.6207151 75.0675717,20.3730276 75.7786635,19.9298482 C76.6010506,19.4173054 77.058628,18.69383 77.058628,17.7661334 C77.058628,16.4693819 76.0152423,15.7180559 74.114724,15.2572611 L70.6231456,14.3877508 C69.4931375,14.1009337 68.6488831,13.7244351 68.0086173,13.1481341 C67.2225043,12.4405567 66.8081915,11.4675349 66.8081915,10.189297 C66.8081915,9.13951449 67.1807888,8.00223948 67.9455497,7.11640148 C68.9295732,5.9765872 70.4683641,5.33333333 72.5788685,5.33333333 C76.1517242,5.33333333 78.7446372,7.35887236 78.7446372,10.657278 L78.7446372,11.0339942 L76.5266702,11.0339942 L76.5102864,10.674698 C76.4170976,8.63107464 74.8310667,7.37928485 72.600818,7.37928485 C70.3848597,7.37928485 69.0429394,8.2944182 69.0429394,10.1670121 C69.0429394,11.2940944 69.7441772,11.9198839 71.1314375,12.2303448 L74.9574676,13.19037 C76.275133,13.5479976 77.2450687,13.9863616 77.9662663,14.6205838 C78.8373509,15.3866168 79.2933758,16.4128488 79.2933758,17.7438486 C79.2933758,18.7327035 79.0154849,19.7697218 78.2961419,20.6645638 C77.2703727,21.9405913 75.5193832,22.6666667 72.9300612,22.6666667 C68.7137127,22.6666667 66.1283518,20.574487 66.3037436,16.7014471 Z M84.5479275,7.71355705 L84.5479275,13.4672901 L89.313031,13.4672901 C91.31063,13.4672901 92.4319188,12.4820242 92.4319188,10.5904236 C92.4319188,8.69882299 91.31063,7.71355705 89.313031,7.71355705 L84.5479275,7.71355705 Z M84.5479275,22.3323945 L82.3131796,22.3323945 L82.3131796,5.66760553 L89.6422741,5.66760553 C92.700644,5.66760553 94.6666667,7.54902024 94.6666667,10.5904236 C94.6666667,13.6318269 92.700644,15.5132416 89.6422741,15.5132416 L84.5479275,15.5132416 L84.5479275,22.3323945 Z" id="DSP" fill="#FFFFFF" fill-rule="nonzero"></path>
                    <path d="M50.6666667,31.8645276 L50.6666667,26.7736185 L52.5105618,26.7736185 C54.1230369,26.8092692 54.9591351,27.6363636 54.9591351,29.3190731 C54.9591351,31.0017825 54.1230369,31.828877 52.5105618,31.8645276 L50.6666667,31.8645276 Z M51.1742977,27.1871658 L51.1742977,31.4509804 L52.2567463,31.4509804 C53.7871046,31.4509804 54.4515041,30.8449198 54.4515041,29.3190731 C54.4515041,27.7932264 53.7871046,27.1871658 52.2567463,27.1871658 L51.1742977,27.1871658 Z M55.6981862,27.4937611 L55.6981862,26.7736185 L56.1684915,26.7736185 L56.1684915,27.4937611 L55.6981862,27.4937611 Z M55.6981862,31.8645276 L55.6981862,28.1853832 L56.1684915,28.1853832 L56.1684915,31.8645276 L55.6981862,31.8645276 Z M59.8488166,29.2620321 L59.3785114,29.2620321 C59.3561159,28.7058824 58.9082061,28.456328 58.3707144,28.456328 C57.9526653,28.456328 57.4599646,28.6131907 57.4599646,29.0909091 C57.4599646,29.483066 57.9302699,29.6327986 58.258737,29.7112299 L58.8858107,29.8467023 C59.4233024,29.9251337 59.9831896,30.2245989 59.9831896,30.8663102 C59.9831896,31.6648841 59.1545565,31.9714795 58.4379009,31.9714795 C57.5346162,31.9714795 56.9374032,31.5793226 56.8552864,30.6737968 L57.3255917,30.6737968 C57.3629175,31.2798574 57.8332227,31.5935829 58.4602964,31.5935829 C58.9082061,31.5935829 59.5128843,31.4081996 59.5128843,30.8948307 C59.5128843,30.4670232 59.0948352,30.3244207 58.6693209,30.2245989 L58.0646428,30.0962567 C57.4524994,29.9465241 56.9896594,29.7326203 56.9896594,29.1122995 C56.9896594,28.3636364 57.7585711,28.0784314 58.4379009,28.0784314 C59.2142778,28.0784314 59.8114908,28.4634581 59.8488166,29.2620321 Z M61.4090356,27.0802139 L61.4090356,28.1853832 L62.1928777,28.1853832 L62.1928777,28.5632799 L61.4090356,28.5632799 L61.4090356,31.0445633 C61.4090356,31.3368984 61.4538266,31.5080214 61.7897589,31.5294118 C61.9241318,31.5294118 62.0585048,31.5222816 62.1928777,31.5080214 L62.1928777,31.8930481 C62.0510396,31.8930481 61.9166667,31.9073084 61.7748286,31.9073084 C61.1477549,31.9073084 60.9312652,31.7076649 60.9387304,31.0802139 L60.9387304,28.5632799 L60.2668657,28.5632799 L60.2668657,28.1853832 L60.9387304,28.1853832 L60.9387304,27.0802139 L61.4090356,27.0802139 Z M62.8722075,31.8645276 L62.8722075,28.1853832 L63.3051869,28.1853832 L63.3051869,29.0481283 L63.3201172,29.0481283 C63.5590024,28.4491979 64.0815638,28.1069519 64.7758239,28.1354724 L64.7758239,28.5846702 C63.9247954,28.5490196 63.3425127,29.1336898 63.3425127,29.9037433 L63.3425127,31.8645276 L62.8722075,31.8645276 Z M65.2311988,27.4937611 L65.2311988,26.7736185 L65.7015041,26.7736185 L65.7015041,27.4937611 L65.2311988,27.4937611 Z M65.2311988,31.8645276 L65.2311988,28.1853832 L65.7015041,28.1853832 L65.7015041,31.8645276 L65.2311988,31.8645276 Z M66.6047888,31.8645276 L66.6047888,26.7736185 L67.075094,26.7736185 L67.075094,28.8841355 L67.0900243,28.8841355 C67.2841186,28.3565062 67.8589361,28.0784314 68.4262884,28.0784314 C69.598319,28.0784314 70.1582061,28.9768271 70.1582061,30.0249554 C70.1582061,31.0730838 69.598319,31.9714795 68.4262884,31.9714795 C67.7992148,31.9714795 67.2691882,31.6720143 67.0526985,31.1657754 L67.0377682,31.1657754 L67.0377682,31.8645276 L66.6047888,31.8645276 Z M69.6879009,30.0249554 C69.6879009,29.2620321 69.3221079,28.456328 68.4262884,28.456328 C67.4334218,28.456328 67.075094,29.2620321 67.075094,30.0249554 C67.075094,30.7878788 67.4334218,31.5935829 68.4262884,31.5935829 C69.3221079,31.5935829 69.6879009,30.7878788 69.6879009,30.0249554 Z M74.01023,28.1853832 L74.01023,31.8645276 L73.5772506,31.8645276 L73.5772506,31.201426 L73.5623203,31.201426 C73.3159699,31.6934046 72.8083389,31.9714795 72.2335213,31.9714795 C71.255585,31.9714795 70.8823269,31.4367201 70.8823269,30.573975 L70.8823269,28.1853832 L71.3526322,28.1853832 L71.3526322,30.5811052 C71.3750276,31.2442068 71.6363083,31.5935829 72.3828246,31.5935829 C73.1890622,31.5935829 73.5399248,30.8663102 73.5399248,30.1176471 L73.5399248,28.1853832 L74.01023,28.1853832 Z M75.6451006,27.0802139 L75.6451006,28.1853832 L76.4289427,28.1853832 L76.4289427,28.5632799 L75.6451006,28.5632799 L75.6451006,31.0445633 C75.6451006,31.3368984 75.6898916,31.5080214 76.0258239,31.5294118 C76.1601969,31.5294118 76.2945698,31.5222816 76.4289427,31.5080214 L76.4289427,31.8930481 C76.2871046,31.8930481 76.1527317,31.9073084 76.0108936,31.9073084 C75.38382,31.9073084 75.1673302,31.7076649 75.1747954,31.0802139 L75.1747954,28.5632799 L74.5029308,28.5632799 L74.5029308,28.1853832 L75.1747954,28.1853832 L75.1747954,27.0802139 L75.6451006,27.0802139 Z M77.3844835,29.7682709 L79.8778478,29.7682709 C79.8554523,29.0909091 79.4075426,28.456328 78.6535612,28.456328 C77.8771843,28.456328 77.4666003,29.0980392 77.3844835,29.7682709 Z M80.3481531,30.1461676 L77.3844835,30.1461676 C77.3844835,30.802139 77.7577417,31.5935829 78.6535612,31.5935829 C79.3403561,31.5935829 79.7136142,31.2156863 79.8629175,30.6524064 L80.3332227,30.6524064 C80.1316633,31.486631 79.6314975,31.9714795 78.6535612,31.9714795 C77.4292745,31.9714795 76.9141783,31.0730838 76.9141783,30.0249554 C76.9141783,29.0552585 77.4292745,28.0784314 78.6535612,28.0784314 C79.885313,28.0784314 80.3854789,29.1122995 80.3481531,30.1461676 Z M84.3718757,26.7736185 L84.3718757,31.8645276 L83.9388963,31.8645276 L83.9388963,31.1657754 L83.9239659,31.1657754 C83.7224065,31.6506239 83.1102632,31.9714795 82.550376,31.9714795 C81.3783455,31.9714795 80.8184583,31.0730838 80.8184583,30.0249554 C80.8184583,28.9768271 81.3783455,28.0784314 82.550376,28.0784314 C83.1177284,28.0784314 83.6925459,28.3565062 83.8866401,28.8841355 L83.9015704,28.8841355 L83.9015704,26.7736185 L84.3718757,26.7736185 Z M81.2887635,30.0249554 C81.2887635,30.7878788 81.6545565,31.5935829 82.550376,31.5935829 C83.5432426,31.5935829 83.9015704,30.7878788 83.9015704,30.0249554 C83.9015704,29.2620321 83.5432426,28.456328 82.550376,28.456328 C81.6545565,28.456328 81.2887635,29.2620321 81.2887635,30.0249554 Z M87.1638465,30.1889483 L87.6714775,30.1889483 C87.6490821,31.2370766 88.4329241,31.5579323 89.4108604,31.5579323 C89.9707476,31.5579323 90.8217762,31.2655971 90.8217762,30.5240642 C90.8217762,29.9465241 90.2245631,29.7183601 89.7243973,29.6042781 L88.5374364,29.3262032 C87.9103628,29.1764706 87.3355452,28.8983957 87.3355452,28.0998217 C87.3355452,27.600713 87.6714775,26.6666667 89.1719752,26.6666667 C90.2320283,26.6666667 91.1427781,27.201426 91.1427781,28.2495544 L90.6351471,28.2495544 C90.5978213,27.4795009 89.940887,27.0802139 89.1794404,27.0802139 C88.4851803,27.0802139 87.8431763,27.3368984 87.8431763,28.0926916 C87.8431763,28.57041 88.2089693,28.7771836 88.6494138,28.8698752 L89.9483521,29.1764706 C90.7023336,29.368984 91.3294072,29.6898396 91.3294072,30.516934 C91.3294072,30.8663102 91.180104,31.9714795 89.2914178,31.9714795 C88.0298054,31.9714795 87.1041252,31.42959 87.1638465,30.1889483 Z M92.7925791,27.0802139 L92.7925791,28.1853832 L93.5764211,28.1853832 L93.5764211,28.5632799 L92.7925791,28.5632799 L92.7925791,31.0445633 C92.7925791,31.3368984 92.8373701,31.5080214 93.1733024,31.5294118 C93.3076753,31.5294118 93.4420482,31.5222816 93.5764211,31.5080214 L93.5764211,31.8930481 C93.4345831,31.8930481 93.3002101,31.9073084 93.158372,31.9073084 C92.5312984,31.9073084 92.3148087,31.7076649 92.3222738,31.0802139 L92.3222738,28.5632799 L91.6504092,28.5632799 L91.6504092,28.1853832 L92.3222738,28.1853832 L92.3222738,27.0802139 L92.7925791,27.0802139 Z M95.8831564,28.456328 C94.9873369,28.456328 94.531962,29.2477718 94.531962,30.0249554 C94.531962,30.802139 94.9873369,31.5935829 95.8831564,31.5935829 C96.7789759,31.5935829 97.2343508,30.802139 97.2343508,30.0249554 C97.2343508,29.2477718 96.7789759,28.456328 95.8831564,28.456328 Z M95.8831564,28.0784314 C97.0551869,28.0784314 97.704656,28.969697 97.704656,30.0249554 C97.704656,31.0802139 97.0551869,31.9714795 95.8831564,31.9714795 C94.7111259,31.9714795 94.0616567,31.0802139 94.0616567,30.0249554 C94.0616567,28.969697 94.7111259,28.0784314 95.8831564,28.0784314 Z M98.4063813,31.8645276 L98.4063813,28.1853832 L98.8393608,28.1853832 L98.8393608,29.0481283 L98.8542911,29.0481283 C99.0931763,28.4491979 99.6157377,28.1069519 100.309998,28.1354724 L100.309998,28.5846702 C99.4589693,28.5490196 98.8766866,29.1336898 98.8766866,29.9037433 L98.8766866,31.8645276 L98.4063813,31.8645276 Z M101.183422,29.311943 L100.713117,29.311943 C100.765373,28.4491979 101.384981,28.0784314 102.273336,28.0784314 C102.952665,28.0784314 103.691716,28.2709447 103.691716,29.2620321 L103.691716,31.2156863 C103.691716,31.3939394 103.781298,31.486631 103.967927,31.486631 C104.020184,31.486631 104.064975,31.4795009 104.117231,31.4581105 L104.117231,31.8360071 C104.005253,31.8573975 103.938067,31.8645276 103.811159,31.8645276 C103.333389,31.8645276 103.258737,31.600713 103.258737,31.2228164 L103.243807,31.2228164 C102.907874,31.7005348 102.586872,31.9714795 101.840356,31.9714795 C101.123701,31.9714795 100.548883,31.6363636 100.548883,30.8948307 C100.548883,29.8680927 101.601471,29.8253119 102.616733,29.7112299 C103.004921,29.6755793 103.221411,29.6114082 103.221411,29.2121212 C103.221411,28.6060606 102.773501,28.456328 102.213614,28.456328 C101.623866,28.456328 101.205817,28.7130125 101.183422,29.311943 Z M103.221411,30.4385027 L103.221411,29.8538324 L103.206481,29.8538324 C103.14676,29.9607843 102.937735,29.9964349 102.810827,30.0178253 C102.012055,30.1532977 101.019188,30.1532977 101.019188,30.8663102 C101.019188,31.315508 101.429772,31.5935829 101.877682,31.5935829 C102.601803,31.5935829 103.221411,31.1586453 103.221411,30.4385027 Z M107.887138,28.1853832 L107.887138,31.5650624 C107.887138,32.6702317 107.424298,33.3333333 106.177616,33.3333333 C105.408704,33.3333333 104.639792,32.9982175 104.580071,32.2210339 L105.050376,32.2210339 C105.147423,32.7629234 105.662519,32.9554367 106.177616,32.9554367 C107.05104,32.9554367 107.416833,32.4705882 107.416833,31.5650624 L107.416833,31.0659537 L107.401902,31.0659537 C107.185413,31.5222816 106.737503,31.8217469 106.177616,31.8217469 C104.945864,31.8217469 104.438233,30.9875223 104.438233,29.9322638 C104.438233,28.9197861 105.065306,28.0784314 106.177616,28.0784314 C106.744968,28.0784314 107.215273,28.4135472 107.401902,28.8199643 L107.416833,28.8199643 L107.416833,28.1853832 L107.887138,28.1853832 Z M106.177616,31.4438503 C106.991318,31.4438503 107.416833,30.7237077 107.416833,29.9821747 C107.416833,29.2620321 107.073435,28.456328 106.177616,28.456328 C105.281796,28.456328 104.908538,29.2192513 104.908538,29.9821747 C104.908538,30.7237077 105.304192,31.4438503 106.177616,31.4438503 Z M109.059168,29.7682709 L111.552533,29.7682709 C111.530137,29.0909091 111.082227,28.456328 110.328246,28.456328 C109.551869,28.456328 109.141285,29.0980392 109.059168,29.7682709 Z M112.022838,30.1461676 L109.059168,30.1461676 C109.059168,30.802139 109.432426,31.5935829 110.328246,31.5935829 C111.015041,31.5935829 111.388299,31.2156863 111.537602,30.6524064 L112.007908,30.6524064 C111.806348,31.486631 111.306182,31.9714795 110.328246,31.9714795 C109.103959,31.9714795 108.588863,31.0730838 108.588863,30.0249554 C108.588863,29.0552585 109.103959,28.0784314 110.328246,28.0784314 C111.559998,28.0784314 112.060164,29.1122995 112.022838,30.1461676 Z M115.329905,27.1871658 L115.329905,29.2691622 L117.076753,29.2691622 C117.785943,29.2691622 118.263714,28.9340463 118.263714,28.228164 C118.263714,27.5222816 117.785943,27.1871658 117.076753,27.1871658 L115.329905,27.1871658 Z M114.822274,31.8645276 L114.822274,26.7736185 L117.18873,26.7736185 C118.144271,26.7736185 118.771345,27.3083779 118.771345,28.228164 C118.771345,29.1479501 118.144271,29.6827094 117.18873,29.6827094 L115.329905,29.6827094 L115.329905,31.8645276 L114.822274,31.8645276 Z M119.435744,31.8645276 L119.435744,28.1853832 L119.868724,28.1853832 L119.868724,29.0481283 L119.883654,29.0481283 C120.122539,28.4491979 120.645101,28.1069519 121.339361,28.1354724 L121.339361,28.5846702 C120.488332,28.5490196 119.90605,29.1336898 119.90605,29.9037433 L119.90605,31.8645276 L119.435744,31.8645276 Z M123.280303,28.456328 C122.384484,28.456328 121.929109,29.2477718 121.929109,30.0249554 C121.929109,30.802139 122.384484,31.5935829 123.280303,31.5935829 C124.176123,31.5935829 124.631497,30.802139 124.631497,30.0249554 C124.631497,29.2477718 124.176123,28.456328 123.280303,28.456328 Z M123.280303,28.0784314 C124.452334,28.0784314 125.101803,28.969697 125.101803,30.0249554 C125.101803,31.0802139 124.452334,31.9714795 123.280303,31.9714795 C122.108273,31.9714795 121.458803,31.0802139 121.458803,30.0249554 C121.458803,28.969697 122.108273,28.0784314 123.280303,28.0784314 Z M126.550044,27.0802139 L126.550044,28.1853832 L127.333886,28.1853832 L127.333886,28.5632799 L126.550044,28.5632799 L126.550044,31.0445633 C126.550044,31.3368984 126.594835,31.5080214 126.930768,31.5294118 C127.06514,31.5294118 127.199513,31.5222816 127.333886,31.5080214 L127.333886,31.8930481 C127.192048,31.8930481 127.057675,31.9073084 126.915837,31.9073084 C126.288764,31.9073084 126.072274,31.7076649 126.079739,31.0802139 L126.079739,28.5632799 L125.407874,28.5632799 L125.407874,28.1853832 L126.079739,28.1853832 L126.079739,27.0802139 L126.550044,27.0802139 Z M129.640622,28.456328 C128.744802,28.456328 128.289427,29.2477718 128.289427,30.0249554 C128.289427,30.802139 128.744802,31.5935829 129.640622,31.5935829 C130.536441,31.5935829 130.991816,30.802139 130.991816,30.0249554 C130.991816,29.2477718 130.536441,28.456328 129.640622,28.456328 Z M129.640622,28.0784314 C130.812652,28.0784314 131.462121,28.969697 131.462121,30.0249554 C131.462121,31.0802139 130.812652,31.9714795 129.640622,31.9714795 C128.468591,31.9714795 127.819122,31.0802139 127.819122,30.0249554 C127.819122,28.969697 128.468591,28.0784314 129.640622,28.0784314 Z M135.351471,29.3404635 L134.881166,29.3404635 C134.754258,28.7914439 134.41086,28.456328 133.791252,28.456328 C132.895432,28.456328 132.440058,29.2477718 132.440058,30.0249554 C132.440058,30.802139 132.895432,31.5935829 133.791252,31.5935829 C134.366069,31.5935829 134.851305,31.1515152 134.911026,30.5454545 L135.381332,30.5454545 C135.254424,31.4367201 134.657211,31.9714795 133.791252,31.9714795 C132.619221,31.9714795 131.969752,31.0802139 131.969752,30.0249554 C131.969752,28.969697 132.619221,28.0784314 133.791252,28.0784314 C134.619885,28.0784314 135.239493,28.4919786 135.351471,29.3404635 Z M137.665671,28.456328 C136.769852,28.456328 136.314477,29.2477718 136.314477,30.0249554 C136.314477,30.802139 136.769852,31.5935829 137.665671,31.5935829 C138.561491,31.5935829 139.016866,30.802139 139.016866,30.0249554 C139.016866,29.2477718 138.561491,28.456328 137.665671,28.456328 Z M137.665671,28.0784314 C138.837702,28.0784314 139.487171,28.969697 139.487171,30.0249554 C139.487171,31.0802139 138.837702,31.9714795 137.665671,31.9714795 C136.493641,31.9714795 135.844172,31.0802139 135.844172,30.0249554 C135.844172,28.969697 136.493641,28.0784314 137.665671,28.0784314 Z M140.196361,31.8645276 L140.196361,26.7736185 L140.666667,26.7736185 L140.666667,31.8645276 L140.196361,31.8645276 Z" id="DistributedStorageProtocol" fill="#FFFFFF" fill-rule="nonzero"></path>
                    <g id="编组-5">
                        <g id="合并形状" transform="translate(11.816303, 0.000000)">
                            <mask id="mask-2" fill="white">
                                <use xlink:href="#path-1"></use>
                            </mask>
                            <g id="Mask" fill-rule="nonzero"></g>
                        </g>
                        <g id="合并形状" transform="translate(11.816303, 0.000000)">
                            <mask id="mask-4" fill="white">
                                <use xlink:href="#path-3"></use>
                            </mask>
                            <use id="Mask" fill="#FFFFFF" fill-rule="nonzero" xlink:href="#path-3"></use>
                            <path d="M12.6193529,41.2997005 C4.43875514,37.6647806 -1.26193529,29.5037435 -1.26193529,20.0188824 C-1.26193529,10.5340213 4.43875514,2.37298422 12.6193529,-1.26193565 L12.6193529,8.76009578 C9.40088678,11.4618111 7.35676414,15.5030019 7.35676414,20.0188824 C7.35676414,24.5347629 9.40088678,28.5759537 12.6193529,31.277669 L12.6193529,41.2997005 Z" fill-opacity="0.65" fill="#B8B8B8" fill-rule="nonzero" filter="url(#filter-5)" mask="url(#mask-4)" transform="translate(5.678709, 20.018882) scale(-1, 1) translate(-5.678709, -20.018882) "></path>
                        </g>
                        <g id="合并形状" transform="translate(0.000000, 1.891164)">
                            <mask id="mask-7" fill="white">
                                <use xlink:href="#path-6"></use>
                            </mask>
                            <use id="形状结合" fill="#FFFFFF" fill-rule="nonzero" xlink:href="#path-6"></use>
                            <g fill-rule="nonzero" mask="url(#mask-7)" transform="translate(17.724455, 18.070360) scale(-1, 1) translate(-17.724455, -18.070360) " fill="black" fill-opacity="1">
                                <use filter="url(#filter-9)" xlink:href="#path-8"></use>
                            </g>
                        </g>
                        <path d="M23.6326057,38.1798754 C16.6684718,35.0634533 11.8163032,28.0735431 11.8163032,19.9503481 C11.8163032,11.8271532 16.6684718,4.83724299 23.6326057,1.72082085 L23.6326064,10.3113496 C20.8960246,12.6261732 19.1584722,16.0853471 19.1584722,19.9503481 C19.1584722,23.8153492 20.8960246,27.2745231 23.6326064,29.5893467 L23.6326064,38.1798793 Z" id="合并形状" fill="#FFFFFF" fill-rule="nonzero" transform="translate(17.724455, 19.950350) scale(-1, 1) translate(-17.724455, -19.950350) "></path>
                    </g>
                </g>
            </g>
        </g>
    </g>
</svg>