<?xml version="1.0" encoding="UTF-8"?>
<svg width="1290px" height="1290px" viewBox="0 0 1290 1290" version="1.1" xmlns="http://www.w3.org/2000/svg" xmlns:xlink="http://www.w3.org/1999/xlink">
    <!-- Generator: Sketch 54 (76480) - https://sketchapp.com -->
    <title>home_xian</title>
    <desc>Created with Sketch.</desc>
    <g id="Page-1" stroke="none" stroke-width="1" fill="none" fill-rule="evenodd" stroke-dasharray="6,7" stroke-linejoin="round">
        <g id="logo" transform="translate(-812.000000, -74.000000)" stroke="#DFDFDF" stroke-width="4">
            <g id="编组-8" transform="translate(812.000000, 74.000000)">
                <path d="M645,1287 C999.566809,1287 1287,999.566809 1287,645 C1287,290.433191 999.566809,3 645,3 C290.433191,3 3,290.433191 3,645 C3,999.566809 290.433191,1287 645,1287 Z" id="椭圆形复制-14"></path>
                <path d="M645,1175 C937.710917,1175 1175,937.710917 1175,645 C1175,352.289083 937.710917,115 645,115 C352.289083,115 115,352.289083 115,645 C115,937.710917 352.289083,1175 645,1175 Z" id="椭圆形复制-14"></path>
                <path d="M645,1052 C869.779893,1052 1052,869.779893 1052,645 C1052,420.220107 869.779893,238 645,238 C420.220107,238 238,420.220107 238,645 C238,869.779893 420.220107,1052 645,1052 Z" id="椭圆形复制-14"></path>
            </g>
        </g>
    </g>
</svg>