<?xml version="1.0" encoding="UTF-8"?>
<svg width="507px" height="159px" viewBox="0 0 507 159" version="1.1" xmlns="http://www.w3.org/2000/svg" xmlns:xlink="http://www.w3.org/1999/xlink">
    <!-- Generator: Sketch 54 (76480) - https://sketchapp.com -->
    <title>home_dian</title>
    <desc>Created with Sketch.</desc>
    <defs>
        <linearGradient x1="214.786174%" y1="50%" x2="-13.3728274%" y2="50%" id="linearGradient-1">
            <stop stop-color="#FFFFFF" stop-opacity="0" offset="0%"></stop>
            <stop stop-color="#DFDFDF" offset="100%"></stop>
        </linearGradient>
    </defs>
    <g id="Page-1" stroke="none" stroke-width="1" fill="none" fill-rule="evenodd" opacity="0.400000006">
        <g id="home复制" transform="translate(-651.000000, -4031.000000)" fill="url(#linearGradient-1)" fill-rule="nonzero">
            <path d="M984,4352 L984,4364 C976.133189,4360.32125 968.460237,4356.31517 961,4352 L984,4352 Z M924,4327.01116 L924,4317 L947,4317 L947,4340 L940.563083,4340 C934.881061,4335.87133 929.356453,4331.53812 924,4327.01116 L924,4327.01116 Z M961,4317 L984,4317 L984,4340 L961,4340 L961,4317 L961,4317 Z M888,4289.46808 L888,4280 L911,4280 L911,4303 L899.80174,4303 C895.730214,4298.61526 891.794075,4294.10239 888,4289.46808 L888,4289.46808 Z M924,4280 L947,4280 L947,4303 L924,4303 L924,4280 Z M961,4280 L984,4280 L984,4303 L961,4303 L961,4280 Z M875,4244 L875,4267 L871.663666,4266.99998 L871.663678,4267 C866.767119,4259.56933 862.205333,4251.89538 858,4244 L875,4244 Z M888,4244 L911,4244 L911,4267 L888,4267 L888,4244 Z M924,4244 L947,4244 L947,4267 L924,4267 L924,4244 Z M961,4244 L984,4244 L984,4267 L961,4267 L961,4244 L961,4244 Z M852,4206 L875,4206 L875,4229 L852,4229 L852,4206 Z M888,4206 L911,4206 L911,4229 L888,4229 L888,4206 Z M924,4206 L947,4206 L947,4229 L924,4229 L924,4206 L924,4206 Z M960,4216 C963.717265,4221.23087 967.725166,4226.23881 972,4231 L960,4231 L960,4216 L960,4216 Z M840,4170 L840,4193 L838.531935,4193 C836.022057,4185.46112 833.839634,4177.78973 832,4170 L840,4170 Z M852,4172 L875,4172 L875,4195 L852,4195 L852,4172 Z M888,4172 L911,4172 L911,4195 L888,4195 L888,4172 Z M924,4172 L938.017644,4172 C940.586233,4179.1561 943.591078,4186.10335 947,4192.80949 L947,4195 L924,4195 L924,4172 Z M838,4134 L838,4157 L828.665485,4157 C827.498397,4149.42954 826.606088,4141.75875 826,4134 L838,4134 Z M852,4136 L875,4136 L875,4159 L852,4159 L852,4136 Z M888,4136 L911,4136 L911,4159 L888,4159 L888,4136 Z M924,4134 L928.682165,4134 C929.665188,4141.83655 931.114798,4149.51431 933,4157 L924,4157 L924,4134 Z M839,4098 L839,4121 L825.186628,4120.99997 L825.186629,4121 C825.062562,4117.53717 825,4114.0587 825,4110.56563 C825,4106.35527 825.090894,4102.16611 825.270831,4098 L839,4098 Z M852,4098 L875,4098 L875,4121 L852,4121 L852,4098 Z M888,4098 L911,4098 L911,4121 L888,4121 L888,4098 Z M924,4098 L929,4098 C928.628285,4102.15168 928.439373,4106.34178 928.439373,4110.56562 C928.439373,4114.06784 928.569249,4117.54685 928.825519,4121 L924,4121 L924,4098 Z M838,4062 L838,4085 L826,4085 C826.669678,4077.23967 827.630052,4069.56886 828.869433,4062 L838,4062 Z M852,4062 L875,4062 L875,4085 L852,4085 L852,4062 Z M888,4062 L911,4062 L911,4085 L888,4085 L888,4062 Z M925,4064 L934,4064 C932.137497,4071.48098 930.686253,4079.15888 929.675857,4087 L925,4087 L925,4064 Z M840,4026 L840,4049 L832,4049 C834.038563,4041.2082 836.444126,4033.53676 839.200152,4026 L840,4026 Z M852,4026 L875,4026 L875,4049 L852,4049 L852,4026 Z M888,4026 L911,4026 L911,4049 L888,4049 L888,4026 Z M924,4026 L947,4026 L947,4030.32175 C943.930487,4036.36019 941.188592,4042.59413 938.797809,4049 L924,4049 L924,4026 Z M852,3990 L875,3990 L875,4013 L852,4013 L852,3990 Z M888,3990 L911,3990 L911,4013 L888,4013 L888,3990 Z M924,3990 L947,3990 L947,4013 L924,4013 L924,3990 Z M960,3989 L975,3989 C969.615336,3994.66819 964.602633,4000.68064 960,4007 L960,3989 Z M874,3953 L874,3976 L859,3976 C863.062704,3968.09997 867.464656,3960.4259 872.184995,3953 L874,3953 Z M888,3953 L911,3953 L911,3976 L888,3976 L888,3953 Z M924,3953 L947,3953 L947,3976 L924,3976 L924,3953 Z M961,3953 L984,3953 L984,3976 L961,3976 L961,3953 Z M888,3932.66314 C892.411738,3927.27439 897.01556,3922.04983 901.800969,3917 L911,3917 L911,3940 L888,3940 L888,3932.66314 L888,3932.66314 Z M924,3917 L947,3917 L947,3940 L924,3940 L924,3917 Z M961,3917 L984,3917 L984,3940 L961,3940 L961,3917 Z M924,3896.02198 C930.16183,3890.74952 936.546182,3885.73666 943.136707,3881 L947,3881 L947,3904 L924,3904 L924,3896.02198 L924,3896.02198 Z M961,3881 L984,3881 L984,3904 L961,3904 L961,3881 Z M982,3857 L982,3866 L964,3866 C969.863476,3862.79422 975.867063,3859.79084 982,3857 L982,3857 Z" id="home_dian" transform="translate(904.500000, 4110.500000) scale(-1, -1) rotate(90.000000) translate(-904.500000, -4110.500000) "></path>
        </g>
    </g>
</svg>