<?xml version="1.0" encoding="UTF-8"?>
<svg width="138px" height="105px" viewBox="0 0 138 105" version="1.1" xmlns="http://www.w3.org/2000/svg" xmlns:xlink="http://www.w3.org/1999/xlink">
    <!-- Generator: Sketch 54 (76480) - https://sketchapp.com -->
    <title>home_icon_dis</title>
    <desc>Created with Sketch.</desc>
    <defs>
        <filter x="-52.6%" y="-37.0%" width="205.4%" height="174.4%" filterUnits="objectBoundingBox" id="filter-1">
            <feOffset dx="7" dy="6" in="SourceAlpha" result="shadowOffsetOuter1"></feOffset>
            <feGaussianBlur stdDeviation="7" in="shadowOffsetOuter1" result="shadowBlurOuter1"></feGaussianBlur>
            <feColorMatrix values="0 0 0 0 0   0 0 0 0 0   0 0 0 0 0  0 0 0 0.12 0" type="matrix" in="shadowBlurOuter1" result="shadowMatrixOuter1"></feColorMatrix>
            <feMerge>
                <feMergeNode in="shadowMatrixOuter1"></feMergeNode>
                <feMergeNode in="SourceGraphic"></feMergeNode>
            </feMerge>
        </filter>
    </defs>
    <g id="Page-1" stroke="none" stroke-width="1" fill="none" fill-rule="evenodd">
        <g id="home1.2" transform="translate(-1002.000000, -860.000000)">
            <g id="home_icon_dis" transform="translate(1009.000000, 866.000000)">
                <g id="编组-7复制" filter="url(#filter-1)" transform="translate(55.000000, 40.851064) rotate(90.000000) translate(-55.000000, -40.851064) translate(16.531792, -13.905398)" fill="#4F75E9" fill-rule="nonzero">
                    <path d="M1.84020612e-06,104.782944 L1.84020612e-06,81.2369821 C6.0140102,86.3135178 13.7815248,89.3726163 22.2624537,89.3726163 C41.3516234,89.3726163 56.826453,73.8744362 56.826453,54.7564621 C56.826453,35.638488 41.3516234,20.1403079 22.2624537,20.1403079 C13.7815248,20.1403079 6.0140102,23.1994064 1.84020611e-06,28.2759421 L1.84020612e-06,4.72997996 C6.80029918,1.69002458 14.3343106,0 22.2624537,0 C52.4580494,0 76.9364162,24.5153031 76.9364162,54.7564621 C76.9364162,84.9976211 52.4580494,109.512924 22.2624537,109.512924 C14.3343106,109.512924 6.80029918,107.8229 0,104.782943 L1.84020612e-06,104.782944 Z" id="路径"></path>
                    <path d="M0,104.448743 L0,80.8824719 C7.51006261,74.5322508 12.2784668,65.0427503 12.2784668,54.4399503 C12.2784668,43.8371504 7.51006261,34.3476499 0,27.9974288 L0,4.43115878 C19.1118306,12.9803934 32.4277457,32.1557103 32.4277457,54.4399503 C32.4277457,76.7241904 19.1118306,95.8995073 0,104.448743 L0,104.448743 Z" id="路径"></path>
                </g>
                <g id="home_icon_distrbution" transform="translate(26.434109, 0.000000)">
                    <path d="M28.975544,61.2764461 C28.2647003,61.2776948 27.566092,61.0888364 26.9501312,60.7289057 L11.2651278,51.5401004 L11.0836606,51.7039885 C9.05817407,53.5126671 6.15705857,53.9041735 3.73582464,52.6950966 C1.31466447,51.4863188 -0.149166002,48.9156465 0.0279507119,46.1840032 C0.205436117,43.4522852 1.98891717,41.0986842 4.54553261,40.2223951 L4.77419157,40.1432561 L4.77419157,21.7659447 C4.77798053,20.2962247 5.55113604,18.9391842 6.80461844,18.2021448 L22.7157002,8.88356039 L22.641963,8.62385269 C22.4701476,8.01988613 22.3828738,7.39441826 22.3827031,6.76580572 C22.3838828,4.11562033 23.9110535,1.71033215 26.2890775,0.613156918 C28.6671014,-0.484317514 31.4579061,-0.0714182018 33.428016,1.66911703 C35.3981996,3.40972707 36.1845328,6.1571532 35.4397136,8.69715729 L35.3628057,8.9569398 L51.1474282,18.2021448 C52.3992495,18.9406298 53.1713262,20.2969589 53.1760854,21.7659447 L53.1760854,40.1432561 L53.4047443,40.2223951 C55.9590739,41.1001802 57.7399741,43.4531828 57.9162797,46.1831056 C58.0928065,48.9130285 56.6301559,51.4816812 54.2106917,52.6904589 C51.7914487,53.8992367 48.8923978,53.5097499 46.8666164,51.7039885 L46.6851492,51.5401004 L31.0047911,60.7289057 C30.3862177,61.0858282 29.6871804,61.2744455 28.975544,61.2764461 L28.975544,61.2764461 Z M13.1831792,45.0508489 L13.2315508,45.2881164 C13.4060874,46.1659642 13.4060874,47.0703276 13.2315508,47.9481755 L13.1831792,48.185443 L28.9787147,57.4417184 L44.7737341,48.2024227 L44.7259524,47.9596199 C44.5508277,47.0836954 44.5508277,46.1810206 44.7259524,45.3050961 L44.774324,45.0622186 L39.1941894,41.792385 L29.9384778,47.196953 C29.6472799,47.3661246 29.3177487,47.4556432 28.9821804,47.4567355 C28.6482663,47.4579052 28.3198678,47.3703794 28.0296435,47.2028622 L18.7627239,41.7754053 L13.1831792,45.0508489 Z M51.2637854,43.729571 C49.690234,43.7333859 48.4171617,45.0295307 48.4191526,46.6257756 C48.4208486,48.2220205 49.6971653,49.5149489 51.2707167,49.5149489 C52.8442681,49.5149489 54.1202162,48.2220204 54.1222808,46.6257756 C54.1242717,45.0295307 52.8511256,43.7333859 51.277648,43.729571 L51.2637854,43.729571 Z M6.6845006,43.729571 C5.11094923,43.7330867 3.83780313,45.0292315 3.83957284,46.6254764 C3.8412688,48.2217213 5.11758556,49.5149489 6.69113693,49.5149489 C8.26461455,49.5149489 9.54093131,48.2217212 9.54262727,46.6254764 C9.54469192,45.0292315 8.27125088,43.7330867 6.69769957,43.729571 L6.6845006,43.729571 L6.6845006,43.729571 Z M20.6723693,28.7010826 L20.6723693,38.4318931 L28.9776086,43.3003652 L37.2825531,38.4318931 L37.2825531,28.7010826 L28.9776086,23.8329097 L20.6723693,28.7010826 L20.6723693,28.7010826 Z M32.9556556,12.2495875 C32.3966502,12.6640866 31.7765252,12.9862701 31.1182726,13.2041929 L30.8843783,13.2775722 L30.8843783,20.4837876 L40.1369929,25.8998749 C40.7363772,26.2415113 41.1065593,26.8854576 41.1044984,27.5828884 L41.1044984,38.4318931 L46.6869189,41.7021007 L46.868386,41.5381378 C47.5283854,40.9517847 48.2955624,40.5027477 49.1262922,40.2165607 L49.355836,40.1376461 L49.355836,21.6244967 L33.1319612,12.1195841 L32.9556556,12.2495875 L32.9556556,12.2495875 Z M8.59908637,21.6244967 L8.59908637,40.1318116 L8.82833528,40.2110255 C9.66005408,40.4947949 10.427581,40.9440954 11.0859464,41.5326025 L11.2674136,41.6961914 L16.8504239,38.4263579 L16.8504239,27.5773532 C16.8527095,26.888065 17.2152968,26.2517465 17.8029608,25.9057093 L27.0696592,20.4782523 L27.0696592,13.232243 L26.8438023,13.147494 C26.2136157,12.9275029 25.6210433,12.6093038 25.0873827,12.2043332 L24.9096761,12.0687197 L8.59908637,21.6244967 L8.59908637,21.6244967 Z M29.0516408,3.87431364 C27.8971635,3.87347129 26.8559912,4.57855129 26.414062,5.66047722 C25.9722439,6.7423909 26.2164493,7.98775856 27.0327906,8.81579105 C27.8493894,9.64360693 29.0772279,9.89075576 30.1435409,9.44194693 C31.2097987,8.99318929 31.9043896,7.9368381 31.9032049,6.76580572 C31.9005503,5.16866324 30.6240123,3.87513641 29.0495761,3.87431364 L29.0516408,3.87431364 L29.0516408,3.87431364 Z" id="形状" fill="#FFFFFF" fill-rule="nonzero"></path>
                    <ellipse id="椭圆形" stroke="#FFFFFF" stroke-width="3.06382979" cx="28.9922481" cy="33.3191489" rx="4.89479513" ry="4.9787234"></ellipse>
                </g>
                <path d="M16.7021295,91.1000465 L16.7021295,67.4493601 C22.689508,72.5484744 30.4226284,75.6211788 38.866004,75.6211788 C57.8706476,75.6211788 73.2769553,60.0540681 73.2769553,40.8510638 C73.2769553,21.6480596 57.8706476,6.08094889 38.866004,6.08094889 C30.4226284,6.08094889 22.689508,9.15365324 16.7021295,14.2527676 L16.7021295,-9.39791889 C23.4723154,-12.4513949 30.9729665,-14.1489362 38.866004,-14.1489362 C68.9278948,-14.1489362 93.2978723,10.4754026 93.2978723,40.8510638 C93.2978723,71.2267251 68.9278948,95.8510638 38.866004,95.8510638 C30.9729665,95.8510638 23.4723154,94.1535226 16.7021277,91.1000457 L16.7021295,91.1000465 Z" id="路径" fill="#4F75E9" fill-rule="nonzero" transform="translate(55.000000, 40.851064) rotate(90.000000) translate(-55.000000, -40.851064) "></path>
            </g>
        </g>
    </g>
</svg>