<?xml version="1.0" encoding="UTF-8"?>
<svg width="143px" height="109px" viewBox="0 0 143 109" version="1.1" xmlns="http://www.w3.org/2000/svg" xmlns:xlink="http://www.w3.org/1999/xlink">
    <!-- Generator: Sketch 54 (76480) - https://sketchapp.com -->
    <title>home_icon_sharing</title>
    <desc>Created with Sketch.</desc>
    <defs>
        <filter x="-50.4%" y="-35.4%" width="201.4%" height="171.4%" filterUnits="objectBoundingBox" id="filter-1">
            <feOffset dx="7" dy="6" in="SourceAlpha" result="shadowOffsetOuter1"></feOffset>
            <feGaussianBlur stdDeviation="7" in="shadowOffsetOuter1" result="shadowBlurOuter1"></feGaussianBlur>
            <feColorMatrix values="0 0 0 0 0   0 0 0 0 0   0 0 0 0 0  0 0 0 0.12 0" type="matrix" in="shadowBlurOuter1" result="shadowMatrixOuter1"></feColorMatrix>
            <feMerge>
                <feMergeNode in="shadowMatrixOuter1"></feMergeNode>
                <feMergeNode in="SourceGraphic"></feMergeNode>
            </feMerge>
        </filter>
    </defs>
    <g id="Page-1" stroke="none" stroke-width="1" fill="none" fill-rule="evenodd">
        <g id="home1.2" transform="translate(-999.000000, -1169.000000)">
            <g id="home_icon_sharing" transform="translate(1006.000000, 1174.000000)">
                <g id="编组-7复制" filter="url(#filter-1)" transform="translate(57.500000, 44.000000) rotate(90.000000) translate(-57.500000, -44.000000) translate(17.283237, -13.190083)" fill="#4F75E9" fill-rule="nonzero">
                    <path d="M1.92385185e-06,109.439964 L1.92385185e-06,84.8475147 C6.2873743,90.1496741 14.4079577,93.3447326 23.2743834,93.3447326 C43.2312426,93.3447326 59.4094735,77.1577444 59.4094735,57.1900826 C59.4094735,37.2224208 43.2312426,21.0354327 23.2743834,21.0354327 C14.4079577,21.0354327 6.2873743,24.2304912 1.92385185e-06,29.5326506 L1.92385185e-06,4.94020129 C7.10940369,1.76513678 14.9858702,0 23.2743834,0 C54.8425062,0 80.433526,25.6048722 80.433526,57.1900826 C80.433526,88.7752931 54.8425062,114.380165 23.2743834,114.380165 C14.9858702,114.380165 7.10940369,112.615029 0,109.439963 L1.92385185e-06,109.439964 Z" id="路径"></path>
                    <path d="M0,109.090909 L0,84.4772485 C7.85142909,77.8447952 12.8365789,67.9335392 12.8365789,56.8595037 C12.8365789,45.7854682 7.85142909,35.8742122 0,29.2417589 L0,4.62809917 C19.9805501,13.5572997 33.9017341,33.584853 33.9017341,56.8595037 C33.9017341,80.1341544 19.9805501,100.161708 0,109.090909 L0,109.090909 Z" id="路径"></path>
                </g>
                <g transform="translate(27.000000, 0.000000)" fill="#FFFFFF">
                    <path d="M52.9745288,49.104 C50.7128957,49.1504942 48.7301364,50.6348625 48.0386299,52.7992 L37.9529431,52.8529334 C37.3600486,50.3298432 35.4459688,48.3319519 32.9594587,47.6408 L32.9594587,36.5676 L45.9161934,36.5014666 C49.1958265,36.4046219 51.7864023,33.6723418 51.7241011,30.3758666 C51.7571423,28.7969747 51.1630978,27.2698629 50.0732602,26.1320454 C48.9834226,24.9942279 47.4875288,24.3393922 45.9161934,24.3122666 L16.5270285,24.4693334 C13.249667,24.5661772 10.6609322,27.2966071 10.723234,30.5908 C10.6890835,32.1693035 11.2822013,33.6964309 12.3713867,34.8343733 C13.460572,35.9723158 14.9560556,36.6272856 16.5270285,36.6544 L29.4837632,36.5882666 L29.4837632,47.6490666 C27.003706,48.3745945 25.1019681,50.3818796 24.5026185,52.9066666 L14.2811945,52.9604 C13.5908745,50.8023909 11.6009731,49.3326719 9.34529555,49.3148 C6.38695483,49.3981879 4.04922751,51.8635876 4.10912941,54.8369334 C3.9896848,57.4698001 5.83748913,59.7810343 8.42174975,60.23116 C11.0060104,60.6812857 13.5200987,59.1298046 14.289421,56.6101334 L24.5026185,56.5564 C25.2265081,59.7039332 27.9928007,61.9499434 31.2072145,62 C34.4407017,61.9248393 37.2122826,59.6569365 37.9406034,56.4902666 L48.0221769,56.4365334 C48.7124969,58.5945425 50.7023983,60.0642615 52.9580759,60.0821334 C55.9154316,59.996523 58.2518873,57.5324644 58.1942419,54.56 C58.2284218,53.1373172 57.6952266,51.7599371 56.7133341,50.7344348 C55.7314416,49.7089325 54.3823371,49.1204125 52.9663024,49.0998666 L52.9745288,49.104 Z M14.190703,30.5825334 C14.1652967,29.2603099 15.2033759,28.1637146 16.518802,28.1232 L45.9079669,27.9702666 C46.5381667,27.9800164 47.1384271,28.24213 47.5755227,28.6984324 C48.0126184,29.1547348 48.2503902,29.7674782 48.2360659,30.4006666 C48.2637247,31.7237684 47.2243784,32.8217024 45.9079669,32.86 L16.518802,33.0129334 C15.2115251,32.9835611 14.1723092,31.900525 14.190703,30.5866666 L14.190703,30.5825334 Z M31.2154411,58.3626666 C30.2739488,58.3463916 29.3776678,57.9540128 28.7246908,57.2722524 C28.0717139,56.590492 27.7158074,55.6754863 27.7356323,54.7294666 C27.6964802,52.7543312 29.2502506,51.1173055 31.2154411,51.0632 C32.1558426,51.0794749 33.0510775,51.4714182 33.7032831,52.1524035 C34.3554887,52.8333888 34.7109618,53.7473432 34.6911366,54.6922666 C34.7235092,56.6617595 33.1747657,58.2917364 31.2154411,58.3502666 L31.2154411,58.3626666 Z" id="形状" fill-rule="nonzero"></path>
                    <path d="M15.8401159,46.2933334 L21.5205129,46.2602666 C22.5022908,46.2332145 23.2788487,45.4159688 23.2604173,44.4292 C23.270332,43.9559939 23.0924427,43.498275 22.7660117,43.157067 C22.4395806,42.815859 21.9914448,42.6192138 21.5205129,42.6105334 L15.8401159,42.6436 C12.5130738,42.5860882 9.34575874,41.1996766 7.03802787,38.7907096 C4.730297,36.3817427 3.47211803,33.1485217 3.54150104,29.8054666 C3.44267441,23.4288577 8.02549463,17.9498357 14.2935342,16.9508 L15.4082248,16.7978666 L15.7331714,15.6694666 C16.7214118,12.292833 18.7205746,9.30398082 21.4588142,7.10933335 C27.0806534,2.59096665 35.0573227,2.55331053 40.7211597,7.0184 C43.4603969,9.18868675 45.4599538,12.1614986 46.4426893,15.5248 L46.7717492,16.6408 L47.8741,16.7854666 C50.8331839,17.2017809 53.5331215,18.7071065 55.4507048,21.0097334 C57.4387974,23.3931458 58.5242237,26.4061856 58.5150754,29.5161334 C58.6466027,36.4940293 53.1628138,42.2774495 46.2205738,42.4824 L40.7047068,42.5113334 C39.7229146,42.5406101 38.9481615,43.3597333 38.9689156,44.3465334 C38.9590007,44.8186433 39.1364565,45.2753109 39.4621162,45.6157439 C39.787776,45.9561768 40.2348657,46.1523864 40.7047068,46.1610666 L46.2205738,46.1321334 C50.4511797,46.1032097 54.4842583,44.329375 57.3757054,41.2258666 C63.2632844,34.9340646 63.5562335,25.217766 58.0585047,18.5793334 C55.8345733,15.9244835 52.7963441,14.0868295 49.4206816,13.3548 C48.1324674,9.69713535 45.8391784,6.48117257 42.806577,4.0796 C35.9091161,-1.34967457 26.2012649,-1.29833114 19.3610571,4.2036 C16.3361669,6.63138221 14.04789,9.86149402 12.7551791,13.5284 C5.23798152,15.2859302 -0.0465359659,22.0670396 0.0575790807,29.822 C0.0289736911,34.1707178 1.68560317,38.3599382 4.67675779,41.5028 C7.57569084,44.5862993 11.6188806,46.3213539 15.8401159,46.2933334 L15.8401159,46.2933334 Z" id="路径"></path>
                </g>
                <path d="M17.5000019,96.5330274 L17.5000019,71.8073097 C23.7534862,77.138202 31.8303008,80.3505747 40.6489375,80.3505747 C60.498232,80.3505747 76.5892644,64.0758681 76.5892644,44 C76.5892644,23.9241319 60.498232,7.64942529 40.6489375,7.64942529 C31.8303008,7.64942529 23.7534862,10.861798 17.5000019,16.1926903 L17.5000019,-8.53302738 C24.5710849,-11.7252978 32.4050983,-13.5 40.6489375,-13.5 C72.0469123,-13.5 97.5,12.2436269 97.5,44 C97.5,75.7563731 72.0469123,101.5 40.6489375,101.5 C32.4050983,101.5 24.5710849,99.7252978 17.5,96.5330265 L17.5000019,96.5330274 Z" id="路径" fill="#4F75E9" fill-rule="nonzero" transform="translate(57.500000, 44.000000) rotate(90.000000) translate(-57.500000, -44.000000) "></path>
            </g>
        </g>
    </g>
</svg>