<?xml version="1.0" encoding="UTF-8"?>
<svg width="145px" height="111px" viewBox="0 0 145 111" version="1.1" xmlns="http://www.w3.org/2000/svg" xmlns:xlink="http://www.w3.org/1999/xlink">
    <!-- Generator: Sketch 54 (76480) - https://sketchapp.com -->
    <title>home_icon_encryp</title>
    <desc>Created with Sketch.</desc>
    <defs>
        <filter x="-53.5%" y="-37.6%" width="207.6%" height="175.7%" filterUnits="objectBoundingBox" id="filter-1">
            <feOffset dx="7" dy="6" in="SourceAlpha" result="shadowOffsetOuter1"></feOffset>
            <feGaussianBlur stdDeviation="7.5" in="shadowOffsetOuter1" result="shadowBlurOuter1"></feGaussianBlur>
            <feColorMatrix values="0 0 0 0 0   0 0 0 0 0   0 0 0 0 0  0 0 0 0.12 0" type="matrix" in="shadowBlurOuter1" result="shadowMatrixOuter1"></feColorMatrix>
            <feMerge>
                <feMergeNode in="shadowMatrixOuter1"></feMergeNode>
                <feMergeNode in="SourceGraphic"></feMergeNode>
            </feMerge>
        </filter>
    </defs>
    <g id="Page-1" stroke="none" stroke-width="1" fill="none" fill-rule="evenodd">
        <g id="home1.2" transform="translate(-307.000000, -857.000000)">
            <g id="home_icon_encryp" transform="translate(315.000000, 866.000000)">
                <g id="编组-7复制" filter="url(#filter-1)" transform="translate(57.500000, 41.000000) rotate(90.000000) translate(-57.500000, -41.000000) translate(17.283237, -16.190083)" fill="#4F75E9" fill-rule="nonzero">
                    <path d="M1.92385185e-06,109.439964 L1.92385185e-06,84.8475147 C6.2873743,90.1496741 14.4079577,93.3447326 23.2743834,93.3447326 C43.2312426,93.3447326 59.4094735,77.1577444 59.4094735,57.1900826 C59.4094735,37.2224208 43.2312426,21.0354327 23.2743834,21.0354327 C14.4079577,21.0354327 6.2873743,24.2304912 1.92385185e-06,29.5326506 L1.92385185e-06,4.94020129 C7.10940369,1.76513678 14.9858702,0 23.2743834,0 C54.8425062,0 80.433526,25.6048722 80.433526,57.1900826 C80.433526,88.7752931 54.8425062,114.380165 23.2743834,114.380165 C14.9858702,114.380165 7.10940369,112.615029 0,109.439963 L1.92385185e-06,109.439964 Z" id="路径"></path>
                    <path d="M0,109.090909 L0,84.4772485 C7.85142909,77.8447952 12.8365789,67.9335392 12.8365789,56.8595037 C12.8365789,45.7854682 7.85142909,35.8742122 0,29.2417589 L0,4.62809917 C19.9805501,13.5572997 33.9017341,33.584853 33.9017341,56.8595037 C33.9017341,80.1341544 19.9805501,100.161708 0,109.090909 L0,109.090909 Z" id="路径"></path>
                </g>
                <g id="home_icon_encryp复制-3" transform="translate(29.248555, 1.661157)">
                    <path d="M28.6201403,63.4218608 C28.3152463,63.4218608 27.9722405,63.3477509 27.6673465,63.236586 L14.4806798,57.3819041 C5.5625295,53.4170246 0.0363252649,46.0060348 0.0363252649,38.0021659 L0.0363252649,10.8038335 C0.0363252649,10.1738994 0.303107539,9.58102019 0.798560332,9.13636081 C1.29401313,8.72875637 1.94191293,8.50642668 2.58981274,8.58053658 C3.7712771,8.72875637 5.02896496,8.80286627 6.21042931,8.80286627 C12.9180979,8.80286627 19.2065372,6.76484409 23.9323946,3.05934921 L27.1718937,0.539612692 C28.0103522,-0.127376386 29.1918166,-0.127376386 30.0302752,0.539612692 L33.2697742,3.05934921 C37.9956316,6.76484409 44.2840709,8.80286627 50.9917395,8.80286627 C52.2113156,8.80286627 53.4308917,8.72875637 54.6123561,8.58053658 C55.2602559,8.50642668 55.9081557,8.69170142 56.4036085,9.13636081 C56.8990613,9.54396525 57.1658436,10.1738994 57.1658436,10.8038335 L57.1658436,37.965111 C57.1658436,45.9689799 51.6396393,53.4170246 42.721489,57.3448492 L29.5348224,63.1995311 C29.2680401,63.3477509 28.9631461,63.4218608 28.6201403,63.4218608 Z M4.60973567,13.2124052 L4.60973567,37.965111 C4.60973567,44.2273973 9.10692257,50.0820792 16.3862675,53.3058598 L28.6201403,58.7158823 L40.8540131,53.3058598 C48.0952463,50.0820792 52.6305449,44.1903424 52.6305449,37.965111 L52.6305449,13.2124052 C52.0969804,13.2494601 51.5634158,13.2494601 51.0298513,13.2494601 C43.2931653,13.2494601 35.9757087,10.8779434 30.4495045,6.54251439 L28.658252,5.13442634 L26.8669996,6.54251439 C21.3407954,10.8779434 14.0233388,13.2494601 6.28665282,13.2494601 C5.71497652,13.2494601 5.14330022,13.2124052 4.60973567,13.2124052 L4.60973567,13.2124052 Z M30.525728,39.2990891 L29.3061519,39.2990891 C24.808965,39.2990891 21.1883484,35.741814 21.1883484,31.406385 C21.1883484,27.0339011 24.8470767,23.5136809 29.3061519,23.5136809 L30.525728,23.5136809 C31.7834158,23.5136809 32.8124332,24.5141646 32.8124332,25.7369779 C32.8124332,26.9597912 31.7834158,27.9602748 30.525728,27.9602748 L29.3061519,27.9602748 C27.3243407,27.9602748 25.7617588,29.5165826 25.7617588,31.406385 C25.7617588,33.2961874 27.3624524,34.8524953 29.3061519,34.8524953 L30.525728,34.8524953 C31.7834158,34.8524953 32.8124332,35.8529789 32.8124332,37.0757922 C32.8124332,38.2986055 31.7834158,39.2990891 30.525728,39.2990891 L30.525728,39.2990891 Z" id="形状" fill="#FFFFFF" fill-rule="nonzero"></path>
                    <ellipse id="椭圆形" stroke="#FFFFFF" stroke-width="3.2456536" cx="29.0041652" cy="31.3286713" rx="14.7122577" ry="14.2403051"></ellipse>
                </g>
                <path d="M17.5000019,93.5330274 L17.5000019,68.8073097 C23.7534862,74.138202 31.8303008,77.3505747 40.6489375,77.3505747 C60.498232,77.3505747 76.5892644,61.0758681 76.5892644,41 C76.5892644,20.9241319 60.498232,4.64942529 40.6489375,4.64942529 C31.8303008,4.64942529 23.7534862,7.86179802 17.5000019,13.1926903 L17.5000019,-11.5330274 C24.5710849,-14.7252978 32.4050983,-16.5 40.6489375,-16.5 C72.0469123,-16.5 97.5,9.24362689 97.5,41 C97.5,72.7563731 72.0469123,98.5 40.6489375,98.5 C32.4050983,98.5 24.5710849,96.7252978 17.5,93.5330265 L17.5000019,93.5330274 Z" id="路径" fill="#4F75E9" fill-rule="nonzero" transform="translate(57.500000, 41.000000) rotate(90.000000) translate(-57.500000, -41.000000) "></path>
            </g>
        </g>
    </g>
</svg>