<?xml version="1.0" encoding="UTF-8"?>
<svg width="930px" height="192px" viewBox="0 0 930 192" version="1.1" xmlns="http://www.w3.org/2000/svg" xmlns:xlink="http://www.w3.org/1999/xlink">
    <!-- Generator: Sketch 54 (76480) - https://sketchapp.com -->
    <title>IPFSEX</title>
    <desc>Created with Sketch.</desc>
    <g id="Page-1" stroke="none" stroke-width="1" fill="none" fill-rule="evenodd" opacity="0.349999994">
        <g id="ipfsex" transform="translate(-356.000000, -1839.000000)" fill="#DFDFDF" fill-rule="nonzero">
            <path d="M356.93,1841.8 L383.53,1841.8 L383.53,2028 L356.93,2028 L356.93,1841.8 Z M512.008,1841.8 C536.125454,1841.8 555.099931,1847.56328 568.932,1859.09 C582.764069,1870.61672 589.68,1886.4879 589.68,1906.704 C589.68,1926.9201 582.764069,1942.79128 568.932,1954.318 C555.099931,1965.84472 536.125454,1971.608 512.008,1971.608 L465.99,1971.608 L465.99,2028 L439.39,2028 L439.39,1841.8 L512.008,1841.8 Z M511.21,1948.466 C528.056751,1948.466 540.913289,1944.87504 549.78,1937.693 C558.646711,1930.51096 563.08,1920.1814 563.08,1906.704 C563.08,1893.2266 558.646711,1882.89704 549.78,1875.715 C540.913289,1868.53296 528.056751,1864.942 511.21,1864.942 L465.99,1864.942 L465.99,1948.466 L511.21,1948.466 Z M655.382,1864.942 L655.382,1929.846 L748.748,1929.846 L748.748,1952.722 L655.382,1952.722 L655.382,2028 L628.782,2028 L628.782,1841.8 L760.186,1841.8 L760.186,1864.942 L655.382,1864.942 Z M851.158,2030.128 C837.148597,2030.128 823.627065,2027.95569 810.593,2023.611 C797.558935,2019.26631 787.318037,2013.63603 779.87,2006.72 L789.712,1985.972 C796.805369,1992.35603 805.893611,1997.54298 816.977,2001.533 C828.060389,2005.52302 839.453941,2007.518 851.158,2007.518 C866.586077,2007.518 878.112629,2004.90236 885.738,1999.671 C893.363371,1994.43964 897.176,1987.47938 897.176,1978.79 C897.176,1972.40597 895.092354,1967.21902 890.925,1963.229 C886.757646,1959.23898 881.615031,1956.18001 875.497,1954.052 C869.378969,1951.92399 860.734056,1949.53001 849.562,1946.87 C835.552597,1943.50065 824.24771,1940.13135 815.647,1936.762 C807.04629,1933.39265 799.687031,1928.2057 793.569,1921.201 C787.450969,1914.1963 784.392,1904.75339 784.392,1892.872 C784.392,1882.94128 787.007641,1873.98604 792.239,1866.006 C797.470359,1858.02596 805.405947,1851.64202 816.046,1846.854 C826.686053,1842.06598 839.897254,1839.672 855.68,1839.672 C866.674722,1839.672 877.491947,1841.09065 888.132,1843.928 C898.772053,1846.76535 907.904629,1850.84397 915.53,1856.164 L906.752,1877.444 C898.949294,1872.47864 890.614711,1868.71035 881.748,1866.139 C872.881289,1863.56765 864.192043,1862.282 855.68,1862.282 C840.606591,1862.282 829.301704,1865.03064 821.765,1870.528 C814.228296,1876.02536 810.46,1883.11862 810.46,1891.808 C810.46,1898.19203 812.587979,1903.37898 816.844,1907.369 C821.100021,1911.35902 826.375635,1914.46232 832.671,1916.679 C838.966365,1918.89568 847.522613,1921.24532 858.34,1923.728 C872.349403,1927.09735 883.609957,1930.46665 892.122,1933.836 C900.634043,1937.20535 907.948969,1942.34797 914.067,1949.264 C920.185031,1956.18003 923.244,1965.48994 923.244,1977.194 C923.244,1986.94738 920.584027,1995.85829 915.264,2003.927 C909.943973,2011.99571 901.875387,2018.37964 891.058,2023.079 C880.240613,2027.77836 866.940746,2030.128 851.158,2030.128 Z M1097.208,2004.858 L1097.208,2028 L962.08,2028 L962.08,1841.8 L1093.484,1841.8 L1093.484,1864.942 L988.68,1864.942 L988.68,1922.132 L1082.046,1922.132 L1082.046,1944.742 L988.68,1944.742 L988.68,2004.858 L1097.208,2004.858 Z M1255.212,2028 L1199.352,1951.126 L1144.29,2028 L1113.7,2028 L1183.658,1932.506 L1117.956,1841.8 L1148.28,1841.8 L1200.416,1913.354 L1252.02,1841.8 L1281.014,1841.8 L1215.312,1931.708 L1285.802,2028 L1255.212,2028 Z" id="IPFSEX"></path>
        </g>
    </g>
</svg>