<?xml version="1.0" encoding="UTF-8"?>
<svg width="469px" height="919px" viewBox="0 0 469 919" version="1.1" xmlns="http://www.w3.org/2000/svg" xmlns:xlink="http://www.w3.org/1999/xlink">
    <!-- Generator: Sketch 54 (76480) - https://sketchapp.com -->
    <title>new_cai1</title>
    <desc>Created with Sketch.</desc>
    <defs>
        <linearGradient x1="68.3144644%" y1="96.907141%" x2="27.3951455%" y2="-71.8182212%" id="linearGradient-1">
            <stop stop-color="#4780FF" offset="0%"></stop>
            <stop stop-color="#9B61F7" offset="100%"></stop>
        </linearGradient>
        <path d="M1440,1107.51484 C1433.20716,1107.83706 1426.37261,1108 1419.5,1108 C1184.50284,1108 994,917.497161 994,682.5 C994,447.502839 1184.50284,257 1419.5,257 C1426.37261,257 1433.20716,257.162937 1440,257.485158 L1440,415.735004 C1433.39699,415.24788 1426.72744,415 1420,415 C1271.98769,415 1152,534.987687 1152,683 C1152,831.012313 1271.98769,951 1420,951 C1426.72744,951 1433.39699,950.75212 1440,950.264996 L1440,1107.51484 L1440,1107.51484 Z" id="path-2"></path>
        <filter x="-10.3%" y="-5.3%" width="125.6%" height="113.4%" filterUnits="objectBoundingBox" id="filter-3">
            <feOffset dx="11" dy="12" in="SourceAlpha" result="shadowOffsetOuter1"></feOffset>
            <feGaussianBlur stdDeviation="17" in="shadowOffsetOuter1" result="shadowBlurOuter1"></feGaussianBlur>
            <feColorMatrix values="0 0 0 0 0   0 0 0 0 0   0 0 0 0 0  0 0 0 0.32 0" type="matrix" in="shadowBlurOuter1"></feColorMatrix>
        </filter>
    </defs>
    <g id="Page-1" stroke="none" stroke-width="1" fill="none" fill-rule="evenodd">
        <g id="news" transform="translate(-971.000000, -235.000000)">
            <g id="new_cai1">
                <use fill="black" fill-opacity="1" filter="url(#filter-3)" xlink:href="#path-2"></use>
                <use fill="url(#linearGradient-1)" fill-rule="evenodd" xlink:href="#path-2"></use>
            </g>
        </g>
    </g>
</svg>