<?xml version="1.0" encoding="UTF-8"?>
<svg width="145px" height="111px" viewBox="0 0 145 111" version="1.1" xmlns="http://www.w3.org/2000/svg" xmlns:xlink="http://www.w3.org/1999/xlink">
    <!-- Generator: Sketch 54 (76480) - https://sketchapp.com -->
    <title>quanxiankongzhi</title>
    <desc>Created with Sketch.</desc>
    <defs>
        <filter x="-37.4%" y="-52.4%" width="174.8%" height="204.9%" filterUnits="objectBoundingBox" id="filter-1">
            <feOffset dx="7" dy="6" in="SourceAlpha" result="shadowOffsetOuter1"></feOffset>
            <feGaussianBlur stdDeviation="7.5" in="shadowOffsetOuter1" result="shadowBlurOuter1"></feGaussianBlur>
            <feColorMatrix values="0 0 0 0 0   0 0 0 0 0   0 0 0 0 0  0 0 0 0.12 0" type="matrix" in="shadowBlurOuter1" result="shadowMatrixOuter1"></feColorMatrix>
            <feMerge>
                <feMergeNode in="shadowMatrixOuter1"></feMergeNode>
                <feMergeNode in="SourceGraphic"></feMergeNode>
            </feMerge>
        </filter>
        <linearGradient x1="-13.47136%" y1="50%" x2="100%" y2="50%" id="linearGradient-2">
            <stop stop-color="#484EED" offset="0%"></stop>
            <stop stop-color="#3A72F0" offset="100%"></stop>
        </linearGradient>
    </defs>
    <g id="Page-1" stroke="none" stroke-width="1" fill="none" fill-rule="evenodd">
        <g id="ipfsex1.2" transform="translate(-654.000000, -1106.000000)">
            <g id="quanxiankongzhi" filter="url(#filter-1)" transform="translate(662.000000, 1114.000000)">
                <path d="M40.8797115,70.965509 L40.8797115,46.3518484 C48.7311406,39.7193951 53.7162904,29.8081391 53.7162904,18.7341036 C53.7162904,7.66006809 48.7311406,-2.25118793 40.8797115,-8.88364116 L40.8797115,-33.4973009 C60.8602616,-24.5681003 74.7814456,-4.5405471 74.7814456,18.7341036 C74.7814456,42.0087543 60.8602616,62.0363076 40.8797115,70.965509 L40.8797115,70.965509 Z" id="路径" fill="#FFFFFF" fill-rule="nonzero" transform="translate(57.830579, 18.734104) rotate(90.000000) translate(-57.830579, -18.734104) "></path>
                <g transform="translate(27.000000, 0.000000)" fill="url(#linearGradient-2)" id="形状结合">
                    <path d="M28.0887341,54.529298 L28.0887341,45.4461021 L8.63863202,45.4461021 C3.00590826,45.4461021 0.768285077,42.8638955 0.768285077,37.5023495 L0.768285077,8.71793718 C0.768285077,3.18805273 3.55945249,0.774184601 9.25632589,0.774184601 L51.3700198,0.774184601 C53.9312924,0.774184601 56.2154568,1.36930527 57.5553686,2.72420996 C58.8686447,4.05102499 59.2438565,5.84438586 59.2438565,8.72263821 L59.2438565,37.5023495 C59.2438565,42.6807275 56.9290077,45.4461021 51.3735096,45.4461021 L32.5562239,45.4461021 L32.5562239,54.529298 L49.0876932,54.529298 C50.5951349,54.529298 51.3999585,55.4296781 51.3999585,56.7789269 C51.3999585,58.127962 50.5954266,59.0285557 49.0888565,59.0285557 L11.0838157,59.0285557 C9.5680192,59.0285557 8.53773406,58.0997854 8.53773406,56.7789269 C8.53773406,55.4580683 9.5680192,54.529298 11.0838157,54.529298 L28.0887341,54.529298 Z M52.2459585,5.7247413 L7.76353782,5.72474083 C6.45334895,5.72621625 5.38846778,6.80207557 5.38699936,8.13265883 L5.38699891,38.0915015 C5.38846778,39.4229122 6.45334895,40.4987715 7.76269324,40.5002465 L52.245114,40.5002469 C53.5553028,40.4987715 54.620184,39.4229122 54.6216524,38.0923289 L54.6216529,8.12878523 C54.6202394,6.84755496 53.6340623,5.80297578 52.3921665,5.7247413 L52.2459585,5.7247413 Z M20.6880402,17.2996691 C20.6880402,12.1884543 24.9586058,8.01494749 30.1718361,8.01494749 C35.3850612,8.01494749 39.655632,12.1872705 39.655632,17.2973186 C39.655632,21.5744331 36.981351,25.0096976 32.7109381,26.2027091 L32.7109381,29.3482258 L34.8943871,29.3482258 L34.8943871,33.4808032 L32.7109381,33.4808032 L32.7109381,37.2486794 L28.2353055,37.2486794 L28.2353055,26.2599274 C23.8413175,25.4116477 20.6867961,21.6332051 20.6880402,17.2996691 Z M35.3184279,17.2914423 C35.3184279,14.6623588 33.0394497,12.4942258 30.2381422,12.4942258 C27.4372839,12.4942258 25.1578565,14.6631029 25.1578565,17.2914423 C25.1578565,19.9197818 27.4372839,22.0886588 30.2381422,22.0886588 C33.0390006,22.0886588 35.3184279,19.9197818 35.3184279,17.2914423 Z"></path>
                </g>
                <path d="M17.5000019,94.5330274 L17.5000019,69.8073097 C23.7534862,75.138202 31.8303008,78.3505747 40.6489375,78.3505747 C60.498232,78.3505747 76.5892644,62.0758681 76.5892644,42 C76.5892644,21.9241319 60.498232,5.64942529 40.6489375,5.64942529 C31.8303008,5.64942529 23.7534862,8.86179802 17.5000019,14.1926903 L17.5000019,-10.5330274 C24.5710849,-13.7252978 32.4050983,-15.5 40.6489375,-15.5 C72.0469123,-15.5 97.5,10.2436269 97.5,42 C97.5,73.7563731 72.0469123,99.5 40.6489375,99.5 C32.4050983,99.5 24.5710849,97.7252978 17.5,94.5330265 L17.5000019,94.5330274 Z" id="路径" fill="#FFFFFF" fill-rule="nonzero" transform="translate(57.500000, 42.000000) rotate(90.000000) translate(-57.500000, -42.000000) "></path>
            </g>
        </g>
    </g>
</svg>