<?xml version="1.0" encoding="UTF-8"?>
<svg width="145px" height="115px" viewBox="0 0 145 115" version="1.1" xmlns="http://www.w3.org/2000/svg" xmlns:xlink="http://www.w3.org/1999/xlink">
    <!-- Generator: Sketch 54 (76480) - https://sketchapp.com -->
    <title>yinsizhengce-2</title>
    <desc>Created with Sketch.</desc>
    <defs>
        <filter x="-37.4%" y="-50.0%" width="174.8%" height="200.0%" filterUnits="objectBoundingBox" id="filter-1">
            <feOffset dx="7" dy="6" in="SourceAlpha" result="shadowOffsetOuter1"></feOffset>
            <feGaussianBlur stdDeviation="7.5" in="shadowOffsetOuter1" result="shadowBlurOuter1"></feGaussianBlur>
            <feColorMatrix values="0 0 0 0 0   0 0 0 0 0   0 0 0 0 0  0 0 0 0.12 0" type="matrix" in="shadowBlurOuter1" result="shadowMatrixOuter1"></feColorMatrix>
            <feMerge>
                <feMergeNode in="shadowMatrixOuter1"></feMergeNode>
                <feMergeNode in="SourceGraphic"></feMergeNode>
            </feMerge>
        </filter>
        <linearGradient x1="-13.47136%" y1="50%" x2="100%" y2="50%" id="linearGradient-2">
            <stop stop-color="#484EED" offset="0%"></stop>
            <stop stop-color="#3A72F0" offset="100%"></stop>
        </linearGradient>
    </defs>
    <g id="Page-1" stroke="none" stroke-width="1" fill="none" fill-rule="evenodd">
        <g id="ipfsex1.2" transform="translate(-195.000000, -1102.000000)">
            <g id="yinsizhengce-2" filter="url(#filter-1)" transform="translate(203.000000, 1110.000000)">
                <path d="M40.8797115,74.965509 L40.8797115,50.3518484 C48.7311406,43.7193951 53.7162904,33.8081391 53.7162904,22.7341036 C53.7162904,11.6600681 48.7311406,1.74881207 40.8797115,-4.88364116 L40.8797115,-29.4973009 C60.8602616,-20.5681003 74.7814456,-0.5405471 74.7814456,22.7341036 C74.7814456,46.0087543 60.8602616,66.0363076 40.8797115,74.965509 L40.8797115,74.965509 Z" id="路径" fill="#FFFFFF" fill-rule="nonzero" transform="translate(57.830579, 22.734104) rotate(90.000000) translate(-57.830579, -22.734104) "></path>
                <g transform="translate(26.000000, 0.000000)" fill="url(#linearGradient-2)" id="形状结合">
                    <path d="M30.9622942,0.0481204951 L61.9004179,12.366961 C61.9004179,45.2182291 51.5887413,63.69649 30.9622942,67.8017436 C10.335847,63.6964901 0.024170385,45.2182292 0.024170385,12.366961 L30.9622942,0.0481204951 Z M30.9622942,6.67873641 L6.26748381,16.5122509 L6.27057757,16.5892436 C7.04093685,43.1640625 15.2364458,57.5278306 30.5631924,61.3959466 L30.9622942,61.4883379 L31.361396,61.3959466 C46.4251684,57.5925046 54.5990207,43.6537364 55.6076036,17.9504755 L55.6540108,16.5091712 L30.9622942,6.67873641 Z M41.2093257,25.1623177 C41.2444038,30.1844691 37.6585765,34.5051103 32.7091487,35.4043658 L32.7091487,39.0045383 L36.9649382,39.0045383 C38.3630596,39.0562247 39.4697615,40.2027371 39.4697615,41.5994656 C39.4697615,42.9961941 38.3630596,44.1427065 36.9649382,44.1943929 L32.7091487,44.1943929 L32.7091487,45.9199572 L36.9652945,45.9199572 C38.3837245,45.9486404 39.5185827,47.1047727 39.5185827,48.5211095 C39.5185827,49.9374462 38.3837245,51.0935785 36.9652945,51.1222617 L32.5619919,51.1222617 C32.2157936,52.1512838 31.2509935,52.8454422 30.1636564,52.8478261 C28.7414109,52.8376446 27.5962919,51.6791671 27.6049806,50.2593017 L27.6049806,34.954033 C23.4958815,33.4468538 20.7717773,29.5325845 20.7905152,25.1623177 C20.7905152,19.434625 25.3662728,14.7826087 30.9999205,14.7826087 C36.6335681,14.7826087 41.2093257,19.422175 41.2093257,25.1623177 Z M30.9453087,29.72256 C33.6019148,29.72256 35.7555195,27.5725744 35.7555195,24.9204328 C35.7555195,22.2682912 33.6019148,20.1183056 30.9453087,20.1183056 C28.2887026,20.1183056 26.1350979,22.2682912 26.1350979,24.9204328 C26.1350979,27.5725744 28.2887026,29.72256 30.9453087,29.72256 Z"></path>
                </g>
                <path d="M17.5000019,98.5330274 L17.5000019,73.8073097 C23.7534862,79.138202 31.8303008,82.3505747 40.6489375,82.3505747 C60.498232,82.3505747 76.5892644,66.0758681 76.5892644,46 C76.5892644,25.9241319 60.498232,9.64942529 40.6489375,9.64942529 C31.8303008,9.64942529 23.7534862,12.861798 17.5000019,18.1926903 L17.5000019,-6.53302738 C24.5710849,-9.72529781 32.4050983,-11.5 40.6489375,-11.5 C72.0469123,-11.5 97.5,14.2436269 97.5,46 C97.5,77.7563731 72.0469123,103.5 40.6489375,103.5 C32.4050983,103.5 24.5710849,101.725298 17.5,98.5330265 L17.5000019,98.5330274 Z" id="路径" fill="#FFFFFF" fill-rule="nonzero" transform="translate(57.500000, 46.000000) rotate(90.000000) translate(-57.500000, -46.000000) "></path>
            </g>
        </g>
    </g>
</svg>