<?xml version="1.0" encoding="UTF-8"?>
<svg width="224px" height="543px" viewBox="0 0 224 543" version="1.1" xmlns="http://www.w3.org/2000/svg" xmlns:xlink="http://www.w3.org/1999/xlink">
    <!-- Generator: Sketch 54 (76480) - https://sketchapp.com -->
    <title>yuan</title>
    <desc>Created with Sketch.</desc>
    <g id="Page-1" stroke="none" stroke-width="1" fill="none" fill-rule="evenodd" opacity="0.600000024" stroke-linejoin="round">
        <g id="ipfsex1.2" transform="translate(-1216.000000, -337.000000)" stroke-width="2">
            <g id="yuan" transform="translate(1492.500000, 608.500000) scale(-1, 1) translate(-1492.500000, -608.500000) translate(1217.000000, 333.000000)">
                <circle id="椭圆形复制-12" stroke="#FA632D" cx="275" cy="276" r="125"></circle>
                <path d="M275,452 C372.202116,452 451,373.202116 451,276 C451,178.797884 372.202116,100 275,100 C177.797884,100 99,178.797884 99,276 C99,373.202116 177.797884,452 275,452 Z" id="椭圆形复制-12" stroke="#2F93FF" stroke-dasharray="4,5"></path>
                <path d="M275.5,502 C400.592496,502 502,400.592496 502,275.5 C502,150.407504 400.592496,49 275.5,49 C150.407504,49 49,150.407504 49,275.5 C49,400.592496 150.407504,502 275.5,502 Z" id="椭圆形复制-12" stroke="#2F93FF" stroke-dasharray="4,5"></path>
                <path d="M275.5,551 C427.654449,551 551,427.654449 551,275.5 C551,123.345551 427.654449,0 275.5,0 C123.345551,0 0,123.345551 0,275.5 C0,427.654449 123.345551,551 275.5,551 Z" id="椭圆形复制-12" stroke="#2F93FF" stroke-dasharray="4,5"></path>
            </g>
        </g>
    </g>
</svg>