<?xml version="1.0" standalone="no"?>
<!DOCTYPE svg PUBLIC "-//W3C//DTD SVG 1.1//EN" "http://www.w3.org/Graphics/SVG/1.1/DTD/svg11.dtd" >
<!--
2013-9-30: Created.
-->
<svg>
<metadata>
Created by iconfont
</metadata>
<defs>

<font id="iconfont" horiz-adv-x="1024" >
  <font-face
    font-family="iconfont"
    font-weight="500"
    font-stretch="normal"
    units-per-em="1024"
    ascent="896"
    descent="-128"
  />
    <missing-glyph />
    
    <glyph glyph-name="bianji" unicode="&#59021;" d="M832.161 544.21c-17.673 0-32-14.327-32-32v-479.85H224.037V672.216h414.605c17.673 0 32 14.327 32 32 0 17.673-14.327 32-32 32H192.037c-17.673 0-32-14.327-32-32V0.36c0-17.673 14.327-32 32-32h640.124c17.673 0 32 14.327 32 32V512.21c0 17.673-14.327 32-32 32zM485.612 361.778c6.249-6.248 14.438-9.372 22.627-9.372s16.379 3.124 22.627 9.372l321.407 321.406c12.496 12.497 12.496 32.758 0 45.255-12.498 12.497-32.759 12.497-45.255 0L485.612 407.033c-12.497-12.496-12.497-32.758 0-45.255zM736 269c0 17.673-14.327 32-32 32H322c-17.673 0-32-14.327-32-32s14.327-32 32-32h382c17.673 0 32 14.327 32 32z m-414-98c-17.673 0-32-14.327-32-32s14.327-32 32-32h251c17.673 0 32 14.327 32 32s-14.327 32-32 32H322z"  horiz-adv-x="1024" />

    
    <glyph glyph-name="preview" unicode="&#58885;" d="M512 40A455.04 455.04 0 0 0 78.72 353.76a97.76 97.76 0 0 0 0 60.48 456 456 0 0 0 866.48 0 97.76 97.76 0 0 0 0-60.48A455.04 455.04 0 0 0 512 40z m0 624a391.12 391.12 0 0 1-372.4-269.68 33.28 33.28 0 0 1 0-20.64 392 392 0 0 1 744.88 0 33.28 33.28 0 0 1 0 20.64A391.12 391.12 0 0 1 512 664zM512 216a168 168 0 0 0 0 336 32 32 0 0 0 0-64 104 104 0 1 1 104-104 102.64 102.64 0 0 1-12.24 48.96 32 32 0 0 0 56.48 30.16A168 168 0 0 0 512 216zM480 384a32 32 0 1 1 64 0 32 32 0 1 1-64 0z"  horiz-adv-x="1024" />

    
    <glyph glyph-name="delete" unicode="&#58882;" d="M733.855 104.05499999999995c0-26.574-21.63-48.203-48.202-48.203H338.347c-26.573 0-48.202 21.63-48.202 48.203V615.7429999999999h443.71v-511.688zM386.55 702.26c0 5.562 4.326 9.888 9.888 9.888H628.18c5.562 0 9.888-4.326 9.888-9.888v-29.045H386.55V702.26z m491.913-29.045H695.54V702.26c0 37.08-30.28 67.36-67.36 67.36H396.438c-37.08 0-67.36-30.28-67.36-67.36v-29.045h-183.54c-16.068 0-29.046-12.978-29.046-29.045s12.978-29.045 29.045-29.045h86.518v-511.07c0-58.709 47.584-106.293 106.292-106.293h347.306c58.708 0 106.292 47.584 106.292 106.293V615.7429999999999h86.518c16.067 0 29.045 12.977 29.045 29.045s-12.978 28.427-29.045 28.427zM512 142.98699999999997c16.068 0 29.045 12.978 29.045 29.046v308.99c0 16.068-12.977 29.045-29.045 29.045s-29.045-12.977-29.045-29.045v-308.99c0-16.068 12.977-29.046 29.045-29.046m-135.338 0c16.068 0 29.045 12.978 29.045 29.046v308.99c0 16.068-12.977 29.045-29.045 29.045s-29.045-12.977-29.045-29.045v-308.99c0.618-16.068 13.596-29.046 29.045-29.046m270.676 0c16.067 0 29.045 12.978 29.045 29.046v308.99c0 16.068-12.978 29.045-29.045 29.045s-29.045-12.977-29.045-29.045v-308.99c0-16.068 12.977-29.046 29.045-29.046"  horiz-adv-x="1024" />

    
    <glyph glyph-name="telegram" unicode="&#58989;" d="M923.904-103.168H101.376c-42.112 0-76.544 34.432-76.544 76.544V795.904c0 42.112 34.432 76.544 76.544 76.544h822.528c42.112 0 76.544-34.432 76.544-76.544v-822.528c0-42.112-34.432-76.544-76.544-76.544z m-666.88 498.432c-30.976-12.032-30.464-29.44-5.248-37.248l115.968-36.224 269.184 169.472c12.544 8.448 24.192 3.712 14.72-4.736L433.92 289.792l-8.448-119.68c12.032 0 17.28 5.248 23.552 11.52l56.704 54.528 117.504-86.528c21.504-12.032 36.736-5.76 42.496 19.968l77.184 363.52c6.784 32-11.52 44.544-32.512 36.736L257.024 395.264z"  horiz-adv-x="1024" />

    
    <glyph glyph-name="medium" unicode="&#58913;" d="M512 896C229.236364 896 0 666.763636 0 384s229.236364-512 512-512 512 229.236364 512 512S794.763636 896 512 896z m292.584727-289.978182l-46.638545-44.683636a13.498182 13.498182 0 0 1-5.259637-13.032727v-328.750546a13.358545 13.358545 0 0 1 5.259637-13.032727l45.707636-44.683637v-9.960727h-229.469091v9.495273l47.197091 45.847273c4.654545 4.654545 4.654545 6.050909 4.654546 13.032727V486.260364l-131.397819-333.265455h-17.687272L323.956364 486.306909v-223.418182a30.440727 30.440727 0 0 1 8.564363-25.6l61.486546-74.472727v-9.914182H219.415273v9.960727l61.486545 74.379637a29.789091 29.789091 0 0 1 8.005818 25.6v258.327273a22.155636 22.155636 0 0 1-7.447272 19.083636L226.909091 606.021818v9.914182H396.567273l130.978909-287.418182 115.293091 287.185455h161.745454v-9.681455z"  horiz-adv-x="1024" />

    
    <glyph glyph-name="email" unicode="&#58881;" d="M9.2511995 526.8435025900001l499.35524609-110.66757983h13.63706173L1014.7488005 526.40359837V6.938399249999975a62.84360061 62.84360061 0 0 0-62.84359915-62.8436006H72.09479865a62.84360061 62.84360061 0 0 0-62.84359915 62.8436006V526.8435025900001zM951.90520135 823.90520135a62.84360061 62.84360061 0 0 0 62.84359915-62.8436006v-140.83250789l-499.41809019-111.73592052L9.2511995 620.73184117V761.06160075a62.84360061 62.84360061 0 0 0 62.84359915 62.8436006h879.8104027z"  horiz-adv-x="1024" />

    
    <glyph glyph-name="tuite" unicode="&#58921;" d="M512 896c282.784 0 512-229.216 512-512s-229.216-512-512-512S0 101.216 0 384 229.216 896 512 896z m106.56-320c-54.112 0.896-97.952-44.832-97.952-102.08 0-8.16 0.832-16.064 2.528-23.68-81.472 5.248-153.632 47.648-201.92 111.552a108.48 108.48 0 0 1-13.28-52.384c0-36.288 17.28-68.512 43.584-87.552a93.696 93.696 0 0 0-44.384 13.6v-1.344c0-50.688 33.792-93.184 78.592-103.072a92.544 92.544 0 0 0-44.192-1.504c12.448-41.536 48.64-71.904 91.488-72.928A189.12 189.12 0 0 0 288 213.824a264.224 264.224 0 0 1 150.176-47.072c180.128-0.032 278.624 156.736 278.624 292.768 0 4.48-0.096 8.896-0.32 13.28a201.28 201.28 0 0 1 48.928 52.576c-17.856-8.032-36.832-13.216-56.288-15.392a100.512 100.512 0 0 1 43.104 56.256 188.256 188.256 0 0 0-62.176-24A97.44 97.44 0 0 1 618.528 576z"  horiz-adv-x="1024" />

    
    <glyph glyph-name="tubiao--fs" unicode="&#58987;" d="M511.893027-34.691042c25.857404 0 46.800731-20.855576 46.800731-46.537477 0-25.711152-20.943327-46.508227-46.800731-46.537477H184.287908C106.744946-127.765996 43.885714-65.25777 43.885714 11.846435V756.387569C43.885714 833.491773 106.744946 896 184.287908 896h655.210238C917.041107 896 979.90034 833.491773 979.90034 756.387569V384.117002c0-25.711152-20.943327-46.508227-46.800732-46.508227-25.857404 0-46.800731 20.797075-46.800731 46.508227V756.387569c0 25.711152-20.943327 46.537477-46.800731 46.537477H184.287908c-25.857404 0-46.800731-20.826325-46.800731-46.508227v-744.570384c0-25.711152 20.943327-46.537477 46.800731-46.537477H511.893027z m196.884826-9.681901l-22.230347-22.054845c-11.758684-12.109689-29.133455-16.965265-45.513711-12.694698a46.654479 46.654479 0 0 0-33.433273 33.228519 46.361974 46.361974 0 0 0 12.78245 45.250457l22.171846 22.113345a138.26691 138.26691 0 0 0-5.645338 13.630713H605.494489c-25.857404 0-46.800731 20.855576-46.800731 46.537478 0 25.711152 20.943327 46.508227 46.800731 46.537477h31.35649c1.696527 4.680073 3.597806 9.213894 5.703839 13.630713l-22.171846 22.113345c-12.16819 11.700183-17.053016 28.957952-12.78245 45.250457a46.976234 46.976234 0 0 0 78.946984 20.533821l22.230347-22.054844c4.446069 2.106033 9.038391 4.007313 13.718465 5.645338v31.210237c0 25.711152 20.943327 46.508227 46.800731 46.508227 25.857404 0 46.800731-20.797075 46.800731-46.508227v-31.180987c4.680073-1.667276 9.272395-3.568556 13.718464-5.674588l22.230348 22.054844c11.758684 12.109689 29.133455 16.965265 45.513711 12.694698 16.380256-4.241316 29.133455-16.965265 33.433272-33.228519a46.361974 46.361974 0 0 0-12.782449-45.250457l-22.171847-22.113345c2.106033-4.416819 4.007313-8.97989 5.645338-13.630713H933.099608c25.857404 0 46.800731-20.826325 46.800732-46.508227 0-25.740402-20.943327-46.566728-46.800732-46.566728h-31.35649c-1.696527-4.650823-3.597806-9.213894-5.703839-13.630713l22.171847-22.113345c12.16819-11.700183 17.053016-28.957952 12.782449-45.250457a46.976234 46.976234 0 0 0-78.946983-20.533821l-22.230348 22.054845c-4.47532-2.106033-9.067642-4.007313-13.718464-5.645339v-31.210237c0-25.711152-20.943327-46.508227-46.800731-46.508227-25.857404 0-46.800731 20.797075-46.800731 46.508227v31.180987a139.963437 139.963437 0 0 0-13.718465 5.674589z m60.519196 79.473491c16.731261 0 32.175503 8.862888 40.541133 23.283364a46.303473 46.303473 0 0 1 0 46.508227 46.859232 46.859232 0 0 1-40.541133 23.283364c-25.857404 0-46.800731-20.826325-46.800731-46.508227 0-25.740402 20.943327-46.566728 46.800731-46.566728zM306.145312 611.919561v-97.93053h149.499086v-50.57404H306.145312V340.241316H248.638914V661.996344h226.018281v-50.106033H306.145312zM649.253173 340.241316a236.489945 236.489945 0 0 0-69.586837 10.266911c-22.3766 6.873857-40.102377 15.941499-53.148081 27.261426l20.007313 45.133455c12.753199-10.120658 28.372943-18.398537 46.917733-24.804388 18.54479-6.40585 37.14808-9.59415 55.839123-9.59415 23.107861 0 40.394881 3.714808 51.802559 11.173675 11.407678 7.458867 17.140768 17.25777 17.140768 29.484461a28.606947 28.606947 0 0 1-9.5649 22.142596 67.042048 67.042048 0 0 1-24.248628 13.601462c-9.769653 3.305302-23.107861 7.02011-40.014626 11.173675-23.722121 5.674589-42.939671 11.319927-57.6234 16.994515a94.771481 94.771481 0 0 0-37.791591 26.588666c-10.530165 12.080439-15.795247 28.372943-15.795246 48.936014 0 17.25777 4.680073 32.994516 14.040219 47.151737 9.301645 14.157221 23.400366 25.389397 42.23766 33.725777 18.808044 8.33638 41.857404 12.519196 69.14808 12.519196 18.983547 0 37.674589-2.369287 56.043876-7.137112 18.398537-4.767824 34.223035-11.641682 47.590494-20.563071l-18.223035-45.133455a179.451554 179.451554 0 0 1-42.705667 18.310786A159.005484 159.005484 0 0 1 658.145312 613.73309c-22.815356 0-39.809872-3.86106-50.925046-11.612432-11.115174-7.751371-16.672761-18.018282-16.67276-30.829982 0-8.95064 3.1883-16.234004 9.564899-21.908592 6.347349-5.674589 14.449726-10.120658 24.219379-13.396709 9.798903-3.276051 23.137112-7.02011 40.043875-11.173675 23.107861-5.382084 42.120658-10.968921 56.92139-16.760512 14.829982-5.820841 27.49543-14.683729 38.025594-26.617916 10.530165-11.904936 15.795247-27.992687 15.795247-48.263254 0-17.25777-4.680073-32.906764-14.010969-46.888482-9.360146-14.040219-23.488117-25.184644-42.471664-33.521024-18.983547-8.33638-42.120658-12.519196-69.382084-12.519196zM264.726665 193.989031c25.038391 0 45.338208-20.826325 45.338208-46.508227 0-25.740402-20.299817-46.566728-45.338208-46.566727-25.038391 0-45.338208 20.826325-45.338208 46.537477S239.688274 193.989031 264.726665 193.989031z m136.014625 0h90.676417c25.038391 0 45.338208-20.826325 45.338208-46.508227 0-25.740402-20.299817-46.566728-45.338208-46.566727h-90.676417c-25.038391 0-45.338208 20.826325-45.338208 46.537477S375.702899 193.989031 400.74129 193.989031z"  horiz-adv-x="1024" />

    
    <glyph glyph-name="tubiao--dns" unicode="&#58988;" d="M953.368381 640C865.206857 793.088 700.586667 896 512 896 323.413333 896 158.793143 793.088 70.631619 640h882.736762z m-882.736762-512C158.793143-25.088 323.413333-128 512-128c188.586667 0 353.206857 102.912 441.368381 256H70.631619zM0 546.450286h143.286857c46.08 0 80.847238-13.336381 104.911238-40.545524 24.039619-27.184762 35.84-66.706286 35.84-119.076572 0-57.465905-12.312381-101.083429-37.376-130.852571-24.576-29.769143-60.903619-44.665905-108.982857-44.665905H0V546.450286z m69.607619-277.650286h58.831238c28.16 0 49.639619 9.752381 63.975619 28.745143 14.336 18.992762 21.504 48.225524 21.504 86.723047 0 34.913524-6.656 61.074286-19.968 78.531048-13.312 17.456762-33.255619 26.185143-59.367619 26.185143H69.607619v-220.184381z m375.100952-58.002286h-65.511619V546.450286h73.703619l134.070858-235.568762v235.568762h65.511619v-335.140572h-69.607619l-138.166858 241.737143v-242.249143z m502.540191 235.056762a48.932571 48.932571 0 0 1-20.992 37.985524c-12.8 9.240381-29.159619 13.848381-49.639619 13.848381-17.92 0-31.719619-4.096-41.447619-11.800381-10.24-7.704381-14.848-18.992762-14.848-32.841143 0-10.264381 5.12-17.968762 15.847619-23.088762 10.24-5.656381 32.256-11.800381 65.536-19.504762 48.615619-10.776381 81.359238-23.625143 97.743238-37.985523 16.359619-14.384762 24.551619-36.961524 24.551619-68.266667 0-31.305143-12.288-56.441905-36.839619-74.922667-24.576-18.480762-58.343619-27.721143-100.303238-27.721143-42.471619 0-75.239619 9.752381-99.279238 29.257143-24.064 19.504762-36.327619 47.737905-38.375619 83.651048h67.535238c0.512-17.944381 7.168-31.305143 19.456-41.057524 12.288-9.752381 29.159619-14.384762 50.663619-14.384762 22.503619 0 39.911619 3.608381 52.175238 10.800762 12.288 7.192381 18.944 16.944762 18.944 29.744762 0 12.848762-4.608 22.089143-13.287619 27.745524-8.704 6.144-27.648 12.312381-56.32 18.456381-53.199238 11.824762-88.502857 24.624762-106.422857 38.521904-17.92 13.848381-26.599619 34.864762-26.599619 64.121905 0 32.353524 11.751619 58.514286 35.303619 77.531429C814.177524 544.914286 845.921524 554.666667 885.833143 554.666667c37.351619 0 68.047238-9.752381 91.599238-29.744762 23.527619-20.041143 36.327619-46.738286 38.887619-80.091429h-69.071238v1.024z"  horiz-adv-x="1024" />

    
    <glyph glyph-name="jiantou" unicode="&#58986;" d="M2090.1888 308.92032l-2048.08192-28.4672-2.29376 163.84 2048.12288 28.4672-5.7344 409.55904L3072 404.48 2095.88224-100.63872z"  horiz-adv-x="3072" />

    
    <glyph glyph-name="cunchujiedian" unicode="&#58974;" d="M512 896C292.8384 896 115.2 832.3328 115.2 753.8688v-487.3216c0.4096-74.3936 160.384-135.3216 363.7248-141.312v-59.0848c-38.528-13.3888-66.1248-49.4336-66.1248-91.8784 0-53.8112 44.4416-97.4592 99.2-97.4592 43.1872 0 79.9744 27.1104 93.5168 64.9728h171.008c18.176 0 33.0752 14.6176 33.0752 32.512 0 17.8432-14.8736 32.4608-33.0752 32.4608h-171.008a98.432 98.432 0 0 1-60.4416 59.392v59.0848c203.3408 5.9904 363.3152 67.0208 363.7248 141.312V753.8688C908.8 832.3328 731.1616 896 512 896z m0-50.7648c182.5792 0 330.6752-40.9088 330.6752-91.3664 0-50.4576-148.096-91.392-330.6752-91.392S181.3248 703.4368 181.3248 753.8944c0 50.432 148.096 91.392 330.6752 91.392z m330.6752-416.256c0-50.432-148.096-91.3664-330.6752-91.3664s-330.6752 40.9344-330.6752 91.392v83.84c71.0912-38.272 192.6144-63.5392 330.6752-63.5392s259.584 25.2672 330.6752 63.5392v-83.84z m0 162.4576c0-50.4576-148.096-91.392-330.6752-91.392s-330.6752 40.9344-330.6752 91.392V675.2768c71.0912-38.272 192.6144-63.5392 330.6752-63.5392s259.584 25.2672 330.6752 63.5392v-83.84zM512-58.2912a32.768 32.768 0 0 0-33.0752 32.4608 32.768 32.768 0 0 0 33.0752 32.512 32.768 32.768 0 0 0 33.0752-32.512 32.768 32.768 0 0 0-33.0752-32.4864z m0 233.7792c-182.5792 0-330.6752 40.9088-330.6752 91.392v83.5328c71.0912-38.272 192.6144-63.5392 330.6752-63.5392s259.584 25.2672 330.6752 63.5392v-83.5584c0-50.432-148.096-91.3664-330.6752-91.3664zM280.5248-25.8304c0-17.92 14.8224-32.4864 33.0752-32.4864a32.768 32.768 0 0 1 33.0752 32.512c0 17.92-14.8224 32.4608-33.0752 32.4608a32.768 32.768 0 0 1-33.0752-32.4864zM148.2752-25.8304c0-17.92 14.7968-32.4864 33.0496-32.4864a32.768 32.768 0 0 1 33.0752 32.512c0 17.92-14.7968 32.4608-33.0752 32.4608a32.768 32.768 0 0 1-33.0496-32.4864z"  horiz-adv-x="1024" />

    
    <glyph glyph-name="iconquanxiankongzhi" unicode="&#58975;" d="M512 43.885714c-52.955429 0-96.304762 42.886095-96.304762 95.548953V201.142857A96.426667 96.426667 0 0 0 512 297.447619a96.426667 96.426667 0 0 0 96.304762-96.304762v-61.70819c0-52.662857-43.373714-95.548952-96.304762-95.548953z m-25.6 157.257143V140.190476c0-14.09219 11.50781-25.6 25.6-25.6 14.09219 0 25.6 11.50781 25.6 25.6v60.952381c0 14.09219-11.50781 25.6-25.6 25.6-14.09219 0-25.6-11.50781-25.6-25.6zM141.409524 449.828571h741.180952V262.095238c0-204.361143-166.229333-370.590476-370.590476-370.590476S141.409524 57.734095 141.409524 262.095238v187.733333z m70.704762-70.704761V262.095238c0-165.351619 134.534095-299.885714 299.885714-299.885714 165.351619 0 299.885714 134.534095 299.885714 299.885714v117.028572H212.114286zM263.314286 637.391238C263.314286 769.29219 374.905905 876.495238 512 876.495238c137.094095 0 248.685714-107.227429 248.685714-239.104V501.028571h-70.704762v136.338286C689.980952 730.209524 610.206476 805.790476 512 805.790476c-98.206476 0-177.980952-75.580952-177.980952-168.399238V501.028571H263.314286v136.338286z"  horiz-adv-x="1024" />

    
    <glyph glyph-name="jiedian_1" unicode="&#58976;" d="M320 102.144h268.8V219.648c0 20.787 8.09 40.704 22.528 55.398a76.032 76.032 0 0 0 54.272 22.938h115.2V572.16c-20.378 0-39.936 8.243-54.272 22.938A79.155 79.155 0 0 0 704 650.496H435.2v-117.504c0-20.787-8.09-40.704-22.528-55.398a76.032 76.032 0 0 0-54.272-22.938H128c-42.394 0-76.8 35.072-76.8 78.336V689.664C51.2 732.928 85.606 768 128 768h230.4c20.378 0 39.936-8.243 54.272-22.938 14.438-14.694 22.528-34.61 22.528-55.398h279.091a76.288 76.288 0 0 0 79.872 37.99 77.568 77.568 0 0 0 62.26-63.539 78.848 78.848 0 0 0-37.223-81.459v-284.672H896c20.378 0 39.936-8.243 54.272-22.938 14.438-14.694 22.528-34.61 22.528-55.398v-156.672c0-43.264-34.406-78.336-76.8-78.336H665.6c-20.378 0-39.936 8.243-54.272 22.938a79.155 79.155 0 0 0-22.528 55.398H309.709a76.288 76.288 0 0 0-79.872-37.99 77.568 77.568 0 0 0-62.26 63.539 78.848 78.848 0 0 0 37.223 81.459V376.32h-57.6a19.405 19.405 0 0 0-19.2 19.61c0 10.752 8.602 19.558 19.2 19.558h192c10.598 0 19.2-8.755 19.2-19.61a19.405 19.405 0 0 0-19.2-19.558h-96v-195.84c20.378 0 39.936-8.243 54.272-22.938C311.91 142.848 320 122.932 320 102.144z m460.8 509.184a38.246 38.246 0 0 1 33.28 19.558 39.834 39.834 0 0 1 0 39.22 38.246 38.246 0 0 1-33.28 19.558 38.81 38.81 0 0 1-38.4-39.168c0-21.606 17.203-39.168 38.4-39.168zM243.2 62.976c21.197 0 38.4 17.562 38.4 39.168a38.81 38.81 0 0 1-38.4 39.168 38.81 38.81 0 0 1-38.4-39.168c0-21.606 17.203-39.168 38.4-39.168z"  horiz-adv-x="1024" />

    
    <glyph glyph-name="disabled" unicode="&#58977;" d="M760.576 412.288l-94.784-47.36A266.624 266.624 0 0 1 608 371.2c-151.488 0-275.2-127.232-275.2-285.248 0-26.88 101.44-67.2 243.2-72.576v-76.8c-164.736 5.696-320 55.488-320 149.376 0 153.792 93.248 285.248 224.768 337.728a224 224 0 1 0 254.464 0 346.81 346.81 0 0 0 25.344-11.328zM203.584 30.4c-68.032 23.104-114.432 59.392-114.432 108.8 0 142.848 86.592 264.896 208.64 313.6A208 208 0 0 0 426.56 831.68a289.28 289.28 0 0 1-71.04-85.12A136.704 136.704 0 0 1 336 513.152a288.287 288.287 0 0 1 38.848-74.24c-25.6-17.792-49.088-38.272-70.016-61.12-85.312-42.816-144.384-133.312-144.384-238.528 0-8.768 11.52-19.008 32.256-28.864-0.448-8.128-0.704-16.256-0.704-24.448 0-19.904 4.032-38.4 11.584-55.552zM716.8 75.648l62.08-18.624s3.072 0 3.072-3.136v-6.208l-62.08-108.608C716.8-64 716.8-64 713.728-64h-3.136s-3.072 3.072-3.072 6.208V69.44c0 3.072 0 6.208 3.072 6.208h6.208zM968.192 448h6.976c2.304 0 2.304-2.304 2.304-4.608L894.08 63.616l-2.304-2.368h-4.608L718.08 116.864s-2.304 0-2.304 2.304c-2.304 2.304 0 2.304 0 4.608L882.56 339.2 671.872 133.12H667.2l-152.832 53.248S512 188.672 512 190.976s0 4.608 2.304 4.608L968.192 448zM608 460.8a147.2 147.2 0 1 1 0 294.4 147.2 147.2 0 0 1 0-294.4z"  horiz-adv-x="1024" />

    
    <glyph glyph-name="feiji" unicode="&#58978;" d="M1363.109161 880.144516C1348.508903 901.780645 1328.557419 894.513548 1326.905806 894.183226L27.020387 576.478968c-11.99071-2.972903-21.470968-12.023742-24.774193-23.783226-3.303226-11.693419 0.066065-24.245677 8.819612-32.867097l245.198452-239.516903 70.226581-377.723871c0-0.792774 2.77471-22.329806 25.831226-26.690065 19.257806-3.435355 28.837161 5.945806 29.332645 6.276129l156.804129 122.384517 122.681806-119.973162a34.650839 34.650839 0 0 1 52.719484 5.053936L1363.637677 842.421677c0.825806 1.32129 11.825548 19.191742-0.528516 37.722839zM102.796387 525.510194l984.130065 240.309677-792.774194-427.239226-191.355871 186.929549z m264.555355-466.944l-40.860903 220.325161 559.995871 301.848774-456.241549-327.448774s-5.945806-4.855742-8.423226-8.092903c-2.279226-3.038968-4.426323-10.008774-4.426322-10.008775l-49.944774-176.623483h-0.099097z m90.574452 67.683096l49.74658-59.68929-85.652645-66.725161 36.005161 126.414451h-0.099096z m223.82658-162.353548l-201.265548 241.96129L1198.410323 721.325419 681.785806-36.104258zM1058.683871 156.077419c0 14.765419 12.056774 26.723097 26.987355 26.822194h302.839742c15.06271 0 27.284645-12.023742 27.284645-26.822194 0-14.798452-12.221935-26.789161-27.284645-26.789161h-302.839742a26.92129 26.92129 0 0 0-26.987355 26.789161z m324.90529-83.934967c17.606194 0 31.909161-12.056774 31.909162-26.822194 0-14.765419-14.302968-26.789161-31.909162-26.789161h-357.739355c-17.70529 0-32.04129 12.122839-32.04129 26.789161 0 14.765419 14.336 26.822194 31.942194 26.822194h357.838451z m4.954839-110.658065c14.996645-0.231226 27.053419-12.155871 27.053419-26.92129 0-7.068903-2.807742-13.873548-7.894709-18.927484a27.416774 27.416774 0 0 0-19.15871-7.861678h-302.905806a26.92129 26.92129 0 0 0-26.954323 26.789162c0 14.765419 12.056774 26.822194 26.987355 26.92129h302.839742z"  horiz-adv-x="1420" />

    
    <glyph glyph-name="host" unicode="&#58979;" d="M1091.782194 264.258065c-40.134194-32.503742-90.211097-55.824516-154.260646-75.643871-18.498065-5.681548-37.557677-10.96671-60.911483-16.978581-8.621419-2.180129-45.650581-11.429161-54.833549-13.807484a42.215226 42.215226 0 0 0-51.464258 29.729032 41.587613 41.587613 0 0 0 30.092387 50.836645c9.678452 2.477419 46.80671 11.726452 55.064774 13.873549a1193.554581 1193.554581 0 0 1 56.947613 15.855484c54.602323 16.846452 95.595355 35.939097 126.018065 60.548129 110.856258 89.715613 211.010065 72.208516 268.089806-50.209033l11.164903-23.981419-17.176774-20.149677c-189.935484-223.628387-353.445161-337.358452-495.814193-337.358452l-722.085162-19.819355a41.884903 41.884903 0 0 0-42.116129 41.653678c0 22.990452 18.861419 41.620645 42.149162 41.620645l722.019096 19.786322c106.628129 0 245.925161 94.307097 413.10142 286.389678-29.927226 48.557419-64.644129 47.236129-125.985032-2.312258zM84.430452 76.205419c-0.231226-14.864516-8.522323-28.473806-21.669162-35.674838a42.611613 42.611613 0 0 0-42.149161 0.660645 41.521548 41.521548 0 0 0-20.48 36.43458l4.129032 235.586065 11.065807 11.660387c112.144516 118.321548 223.165935 171.602581 332.436645 154.32671 82.580645-13.047742 129.288258-38.482581 194.130581-93.150968l9.149935-7.729548c28.077419-23.684129 43.107097-34.816 62.728258-45.122065 14.831484-7.828645 34.254452-12.486194 60.449032-14.963613 11.891613-1.222194 20.810323-1.651613 44.131097-2.64258 96.520258-4.029935 134.87071-16.978581 134.87071-85.619613 0-93.646452-62.364903-153.104516-174.278194-171.767742-73.661935-12.254968-180.455226 16.053677-324.707097 82.778838a41.620645 41.620645 0 0 0-24.113548 34.155355 41.455484 41.455484 0 0 0 17.903484 37.656774 42.611613 42.611613 0 0 0 41.984 3.567484c129.816774-60.085677 222.901677-84.727742 274.927484-76.040258 72.803097 12.155871 102.730323 39.440516 103.952516 86.544516-9.017806 2.939871-22.627097 4.195097-54.073806 5.516387a803.278452 803.278452 0 0 0-48.788646 2.906839c-36.203355 3.501419-65.668129 10.636387-91.895742 24.443871-26.425806 13.873548-45.419355 27.94529-77.824 55.329032l-9.116903 7.663484c-54.106839 45.584516-87.931871 64.082581-152.741161 74.322581-74.058323 11.627355-156.011355-25.831226-246.519742-117.594839l-3.501419-203.247484zM256.825806 623.153548c0-22.990452-18.894452-41.620645-42.149161-41.620645a41.884903 41.884903 0 0 0-42.149161 41.620645V812.75871C172.527484 858.739613 210.250323 896 256.825806 896h800.701936c46.575484 0 84.298323-37.260387 84.298323-83.24129v-249.756904c0-45.980903-37.755871-83.24129-84.298323-83.24129H606.373161a41.884903 41.884903 0 0 0-42.116129 41.620645c0 22.957419 18.828387 41.620645 42.116129 41.620645h451.154581v249.723871H256.825806v-189.539096z"  horiz-adv-x="1321" />

    
    <glyph glyph-name="quanxiankongzhi" unicode="&#58980;" d="M479.3856-34.6368v155.0336H147.4304c-96.128 0-134.3232 44.0576-134.3232 135.552V747.2128C13.1072 841.6 60.7488 882.7904 157.9776 882.7904h718.7456c43.6992 0 82.688-10.1632 105.5488-33.28 22.4256-22.656 28.8256-53.248 28.8256-102.4v-491.1616c0-88.3712-39.5008-135.552-134.3232-135.552H555.6224v-155.0336h282.1376c25.728 0 39.4752-15.36 39.4752-38.4 0-23.0144-13.7472-38.4-39.4496-38.4H189.1584c-25.856 0-43.4432 15.872-43.4432 38.4 0 22.5536 17.5872 38.4 43.4432 38.4h290.2272zM891.648 798.3104H132.5056A40.8832 40.8832 0 0 1 91.904 757.1968v-511.2832c0.0256-22.7328 18.2016-41.088 40.5504-41.1136H891.648a40.8832 40.8832 0 0 1 40.5504 41.088V757.2736c0 21.8624-16.8448 39.68-38.0416 41.0368h-2.4832z m-538.5984-197.5552c0 87.2192 72.8832 158.464 161.8688 158.464 88.96 0 161.8432-71.2192 161.8432-158.4384 0-72.9856-45.6448-131.6096-118.528-151.9616v-53.6832h37.2736v-70.5536h-37.2736v-64.2816h-76.3648v187.52c-75.008 14.4896-128.8448 78.976-128.8192 152.9344z m249.7024 0.128c0 44.8768-38.912 81.8944-86.7072 81.8944s-86.7072-37.0176-86.7072-81.8944c0-44.8512 38.912-81.8688 86.7072-81.8688s86.7072 37.0176 86.7072 81.8688z"  horiz-adv-x="1024" />

    
    <glyph glyph-name="ens" unicode="&#58981;" d="M661.099789 255.757474l-134.305684 131.98821 129.670737 129.670737 30.100211-32.417684 263.976421 261.658947-76.422737 76.422737-261.658948-263.976421 30.100211-27.782737-129.670737-129.670737-131.98821 131.988211 30.10021 25.465263L147.024842 825.397895 70.602105 746.711579l263.976421-261.658947 34.762106 32.390736 127.353263-129.670736-132.015158-134.305685-27.75579 30.100211L70.602105 17.246316l76.422737-74.105263 263.976421 261.658947-32.417684 34.762105 134.305684 131.988211 131.988211-131.988211-32.417685-30.10021 266.293895-266.320842 74.105263 74.105263-266.293894 266.293895-25.465264-27.75579m171.358316-25.49221c20.830316 46.295579 34.735158 99.570526 34.735158 152.818526 0 55.592421-13.904842 106.522947-34.762105 152.845474L765.305263 468.803368c6.925474-27.782737 13.877895-55.592421 13.877895-85.692631a265.728 265.728 0 0 0-13.877895-85.692632l67.152842-67.125894M202.590316 538.273684c-20.830316-46.322526-34.735158-99.570526-34.735158-152.845473 0-55.565474 13.904842-106.522947 34.762105-152.818527l67.125895 67.152842a265.728 265.728 0 0 0-13.877895 85.692632c0 30.073263 4.608 57.882947 13.877895 85.665684l-67.152842 67.152842m229.241263 90.300632c27.809684 6.952421 55.592421 13.904842 85.692632 13.904842s57.882947-4.634947 85.692631-13.904842l67.125895 67.152842c-46.295579 20.857263-99.570526 34.762105-152.818526 34.762105-55.565474 0-106.522947-13.904842-152.845474-34.762105l67.152842-67.152842m238.511158-560.370527l-67.152842 67.152843c-27.755789-6.952421-55.565474-13.904842-85.692632-13.904843a265.728 265.728 0 0 0-85.665684 13.904843l-67.152842-67.152843c46.322526-20.857263 99.570526-34.762105 152.845474-34.762105 53.248 0 106.522947 13.904842 152.818526 34.762105m266.293895 41.660632a502.784 502.784 0 0 1 83.375157 277.881263c0 99.570526-30.100211 192.215579-81.057684 273.246316l-57.882947-60.200421a430.403368 430.403368 0 0 0 57.882947-217.680842c0-81.030737-20.830316-152.818526-57.882947-217.653895l55.565474-55.592421M82.189474 661.018947C31.258947 584.569263 1.131789 489.633684 1.131789 387.772632c0-101.861053 32.417684-199.141053 83.375158-277.881264l55.565474 55.592421a436.762947 436.762947 0 0 0-57.882947 217.653895c0 81.057684 20.830316 152.845474 57.882947 217.680842L82.189474 660.992m430.699789 152.845474c81.057684 0 152.845474-20.857263 217.680842-57.909895l55.565474 55.592421C707.395368 864.741053 610.169263 894.868211 508.254316 894.868211c-99.570526 0-192.188632-30.100211-273.246316-81.030737l57.909895-57.909895c64.835368 37.052632 138.913684 57.909895 219.971368 57.909895m0-856.791579c-81.057684 0-152.818526 20.830316-217.680842 57.882947l-62.517895-57.882947c78.740211-50.930526 171.385263-81.057684 273.246316-81.057684 101.888 0 199.141053 32.417684 277.881263 83.375157l-53.248 55.565474a436.762947 436.762947 0 0 0-217.680842-57.882947"  horiz-adv-x="1024" />

    
    <glyph glyph-name="gaoxiao" unicode="&#58982;" d="M498.217782-127.952399a37.582836 37.582836 0 0 0-27.232335 11.263781c-11.263781 11.263781-14.086645 28.17329-7.499962 43.173214 52.582761 116.373952 27.20466 256.21642-62.877912 346.326666a308.245677 308.245677 0 0 1-218.661258 91.051201 311.677394 311.677394 0 0 1-127.665408-27.232335c-15.027599-6.586683-31.909433-3.763819-43.173214 7.499962-11.291456 11.263781-14.11432 28.17329-7.527637 43.173214 18.791418 42.232259 45.996078 80.7007 78.874141 114.519718 73.145387 73.200738 169.842317 113.551088 273.153603 113.551087h16.881834a549.462173 549.462173 0 0 0 272.184973 240.275541A554.083921 554.083921 0 0 0 851.13113 896c43.173214 0 86.346428-4.704773 127.665408-14.999924 14.086645-3.763819 25.32275-14.11432 28.145614-28.17329a547.99539 547.99539 0 0 0-146.456825-515.255703 540.495428 540.495428 0 0 0-120.137771-91.051201c4.704773-108.873989-35.700927-213.043206-112.637808-290.948717-32.850388-32.850388-71.318828-60.055048-114.492042-78.846466A23.634567 23.634567 0 0 0 498.162431-127.980074v0.027675zM180.03673 440.799344c103.228262 0 200.83847-40.35035 273.125928-113.551087a389.721281 389.721281 0 0 0 107.933035-207.425153 374.998108 374.998108 0 0 0 1.88191-121.078725c3.736144 2.822864 6.559008 6.586683 10.295151 9.354196a310.874815 310.874815 0 0 1 89.169291 254.389861 37.195384 37.195384 0 0 0 21.586607 38.468441 457.885144 457.885144 0 0 1 122.960635 89.169291A470.228255 470.228255 0 0 1 937.422208 809.653572c-28.145614 5.618053-57.232184 7.499962-86.346428 7.499962a467.848193 467.848193 0 0 1-333.153301-137.960558c-36.614206-36.586531-65.700776-77.877836-89.169291-122.932959a38.579141 38.579141 0 0 0-38.468441-20.673328 432.949845 432.949845 0 0 1-34.676947 1.881909c-82.582609 0-160.515795-31.909433-218.661258-91.051201-3.376367-3.182641-6.503657-6.642033-9.354197-10.295151 16.023904 3.736144 34.676947 4.704773 52.582761 4.704774h-0.138376zM128.422599-72.519099c-11.900309 0-23.800618 0.636528-35.673251 1.881909a39.852197 39.852197 0 0 0-32.850388 32.850388c-0.940955 5.618053-19.704698 147.34243 76.936881 244.952639 45.996078 45.996078 84.492194 66.69708 122.960634 66.69708 45.996078 0 77.905511-31.937108 94.787345-48.818942 16.881834-16.881834 46.937033-46.937033 48.818942-91.051201 1.881909-39.409395-19.704698-79.759745-66.697081-127.637732-68.495964-68.495964-159.51949-78.846466-208.338432-78.846466l0.05535-0.027675z m131.401551 269.334434c-9.326521 0-30.027524-5.618053-68.523639-44.114168-29.058894-29.086569-46.909357-67.582685-53.49604-116.373952a210.164991 210.164991 0 0 1-2.795189-31.909433c37.527486 0.940955 101.318677 10.322826 148.283385 56.318904 39.409395 39.409395 45.055123 60.996002 44.114168 69.464594-0.940955 11.236106-11.263781 24.381796-26.29138 39.409396-19.704698 20.645652-30.968478 27.20466-41.31898 27.204659z m485.200505 319.094332a116.373952 116.373952 0 1 0 0 232.803253 116.373952 116.373952 0 0 0 0-232.858604v0.027675z m0 154.842392a38.662167 38.662167 0 0 1-38.468441-38.523791c0-20.645652 17.822788-38.468441 38.468441-38.468441a38.662167 38.662167 0 0 1 27.343035 65.811476 38.053314 38.053314 0 0 1-27.343035 11.125406v0.05535z"  horiz-adv-x="1024" />

    
    <glyph glyph-name="wendingbeifen6" unicode="&#58983;" d="M963.449263 102.426947h-169.984c-31.205053 0-56.858947 11.344842-56.858947 42.576842 0 31.205053 25.653895 48.586105 56.858947 48.586106h135.437474V804.567579H91.540211v-610.977684h135.464421c31.205053 0 55.781053-17.381053 55.781052-48.586106 0-31.232-24.576-42.576842-55.781052-42.576842H57.128421a56.778105 56.778105 0 0 0-56.643368 56.643369V838.844632A56.778105 56.778105 0 0 0 57.155368 895.488h906.293895a56.778105 56.778105 0 0 0 56.616421-56.643368v-679.774316a56.858947 56.858947 0 0 0-56.589473-56.643369z m-226.627368-226.519579a58.260211 58.260211 0 0 0-40.232421 16.410948l-186.394948 211.590737-186.26021-207.386948c-22.069895-22.096842-57.721263-25.788632-79.818105-3.691789a56.373895 56.373895 0 0 0 0 79.818105l226.627368 226.627368a56.373895 56.373895 0 0 0 79.76421 0l226.654316-226.627368a56.373895 56.373895 0 0 0 0-79.818105 57.128421 57.128421 0 0 0-40.34021-16.922948z m-207.764211 448.215579c-11.317895 0-21.935158 5.200842-28.968421 13.958737l-111.373474 140.261053-127.811368-134.844632a37.025684 37.025684 0 0 0-53.65221 50.984421l157.130105 165.914948a37.106526 37.106526 0 0 0 55.888842-2.452211l108.94821-137.216 137.647158 174.08a36.917895 36.917895 0 0 0 51.927579 6.063158 36.917895 36.917895 0 0 0 6.063158-51.954526l-166.80421-210.728421c-7.006316-8.865684-17.623579-14.066526-28.968421-14.066527z m258.452211 379.149474l-189.359158-87.740632 170.603789-120.023578 18.755369 207.76421z"  horiz-adv-x="1024" />

    
    <glyph glyph-name="jiamicaogaoxiang" unicode="&#58984;" d="M128.487619-57.782857h443.611429l1.048381-5.510095c2.438095-12.604952 6.290286-25.088 11.410285-36.912762l4.071619-9.45981H128.487619c-53.808762 0-97.767619 44.129524-97.767619 98.450286V367.420952c0 16.993524 4.022857 33.084952 12.190476 47.884191a102.034286 102.034286 0 0 0 36.449524 37.254095l319.780571 183.344762a121.782857 121.782857 0 0 0 120.832 0l42.788572-24.356571 211.260952 213.382095 31.329524 31.036952a73.411048 73.411048 0 0 0 104.106667 0.121905l62.805333-60.708571c13.726476-13.824 21.504-32.670476 21.504-52.419048 0-20.016762-7.43619-38.278095-21.504-52.419048l-28.769524-29.013333a7.314286 7.314286 0 0 1-0.658285-0.828952 18.797714 18.797714 0 0 0-1.950477-2.29181l-166.985143-167.765333 65.852953-37.571048c15.018667-8.655238 27.794286-21.699048 36.912762-37.156571l0.26819-1.048381c7.753143-15.11619 11.946667-31.622095 11.946667-47.445334v-15.262476l-8.655238 2.56c-10.776381 3.169524-22.430476 5.266286-37.424762 7.021714l-5.997714 0.682667c-0.902095 0.195048-1.901714 0.316952-3.120762 0.463238a84.23619 84.23619 0 0 1-10.678857 0.877715c-18.602667 0-37.229714-3.072-57.173334-9.020953l-38.278095-11.483428 87.161905 63.146666a78.262857 78.262857 0 0 1-1.219048 0.731429l-78.262857 44.544-159.50019-160.49981c-1.706667-2.608762-3.949714-4.291048-8.630858-6.460952a45.641143 45.641143 0 0 1-2.413714-0.682667l-2.876952-0.902095-129.389715-29.500952a48.225524 48.225524 0 0 0-45.933714 13.06819c-12.312381 11.824762-17.383619 29.647238-13.750857 46.762667l28.623238 128.536381 0.268191 2.364952c1.389714 4.924952 3.535238 8.923429 6.851047 12.263619l116.638476 117.028572-30.354285 17.334857a69.90019 69.90019 0 0 1-69.36381 0L105.667048 407.161905l-1.26781-0.731429 258.706286-188.050286-0.316953 0.195048 96.792381-70.144 217.526858 158.159238-21.699048-32.036571a205.482667 205.482667 0 0 1-30.403048-68.217905l-2.608762-3.900952-147.626666-107.276191c-9.020952-6.314667-21.357714-6.314667-30.476191 0.048762l-97.328762 70.680381L84.187429-23.405714c5.583238-19.968 23.649524-34.377143 44.324571-34.377143z m375.076571 382.098286l-61.683809 61.732571-17.749333-78.750476 79.433142 17.017905zM933.400381 727.527619a21.942857 21.942857 0 0 1 6.241524 15.433143c0 5.534476-2.438095 11.580952-6.241524 15.408762l-61.196191 61.123047a21.504 21.504 0 0 1-15.238095 6.290286 22.430476 22.430476 0 0 1-15.238095-6.290286l-0.219429-0.195047-13.360761-12.336762 92.038095-92.720762 13.190095 13.287619zM463.433143 437.881905l92.233143-92.452572L884.443429 676.644571l-92.257524 92.940191-207.481905-209.066667-121.246476-122.63619zM82.334476 357.766095v-318.439619l220.208762 158.72-220.208762 159.719619zM992.256 61.293714v-96.743619a73.849905 73.849905 0 0 0-73.606095-74.727619h-191.756191c-40.764952 0-74.118095 33.596952-74.118095 74.605714v96.865524c0 31.378286 19.382857 58.928762 47.811048 69.607619v26.745905c0 67.437714 54.954667 122.806857 121.929143 122.806857 66.998857 0 121.929143-55.344762 121.929142-122.806857v-26.745905a74.215619 74.215619 0 0 0 47.811048-69.607619z m-287.378286 0v-96.841143c0-12.336762 9.825524-22.235429 22.016-22.235428h191.756191c12.190476 0 22.016 9.898667 22.016 22.235428v96.841143a22.089143 22.089143 0 0 1-22.016 22.235429h-191.756191c-12.190476 0-22.016-9.898667-22.016-22.235429z m187.977143 74.118096v22.235428c0 38.765714-31.427048 70.41219-69.827047 70.412191s-69.827048-31.670857-69.827048-70.412191v-22.235428h139.654095z"  horiz-adv-x="1024" />

    
    <glyph glyph-name="yinsizhengce-2" unicode="&#58985;" d="M511.4368 895.2832l459.8784-185.5232c0-494.6944-153.2672-772.9664-459.8784-834.7648C204.8256-63.232 51.5584 215.04 51.5584 709.76L511.4368 895.2832z m0-99.84L144.384 647.3216l0.0512-1.152c11.4432-400.2048 133.2736-616.4992 361.088-674.7392l5.9392-1.408 5.9392 1.408c223.9232 57.2672 345.4208 267.1616 360.3968 654.2336l0.6912 21.7088L511.4368 795.392zM663.7568 517.0944c0.512-75.648-52.7872-140.6976-126.3616-154.24v-54.2208h63.2832a38.912 38.912 0 0 0 37.2224-39.0656 38.912 38.912 0 0 0-37.2224-39.0912h-63.2832v-25.984h63.2832a38.9632 38.9632 0 0 0 37.9392-39.168c0-21.3248-16.8704-38.7328-37.9392-39.168h-65.4592a37.7344 37.7344 0 0 0-35.6608-25.984 38.528 38.528 0 0 0-38.016 38.9888v230.4768c-61.0816 22.6816-101.5808 81.6384-101.2992 147.456 0 86.2464 68.0192 156.288 151.7568 156.288s151.7568-69.8624 151.7568-156.288z m-152.576-68.6848c39.5008 0 71.5008 32.384 71.5008 72.32 0 39.936-32 72.32-71.5008 72.32-39.4752 0-71.5008-32.384-71.5008-72.32 0-39.936 32-72.32 71.5008-72.32z"  horiz-adv-x="1024" />

    
    <glyph glyph-name="github" unicode="&#58880;" d="M855.557 685.145c35.621 66.153-5.089 152.661-5.089 152.661-91.597 0-157.75-61.064-157.75-61.064-35.621 20.355-152.661 20.355-152.661 20.355s-117.04 0-152.661-20.355c0 0-66.153 61.064-157.75 61.064 0 0-40.71-86.508-5.089-152.661 0 0-81.419-76.331-50.887-239.169 28.691-153.018 162.838-193.371 249.346-193.371 0 0-35.621-30.532-30.532-81.419 0 0-50.887-30.532-101.774-10.177s-76.331 71.242-76.331 71.242-50.887 66.153-101.774 40.71c0 0-15.266-15.266 40.71-40.71 0 0 40.71-61.064 55.976-96.685 15.266-35.621 96.685-66.153 178.105-45.798v-117.04s0-10.177-20.355-15.266-20.355-15.266-10.177-15.266H723.25c10.177 0 10.177 10.177-10.177 15.266-20.355 5.089-20.355 15.266-20.355 15.266v117.04s0.447 61.03 0 81.419c-1.119 51.128-35.621 81.419-35.621 81.419 86.508 0 220.655 40.353 249.346 193.371 30.533 162.837-50.886 239.168-50.886 239.168z"  horiz-adv-x="1024" />

    
    <glyph glyph-name="home_icon_b2" unicode="&#58957;" d="M773.553231 415.704615l-109.174154-54.035692a309.76 309.76 0 0 1-66.56 7.128615c-174.473846 0-317.006769-145.211077-317.006769-325.632 0-30.680615 116.854154-76.681846 280.142769-82.825846v-87.670154c-189.755077 6.498462-368.600615 63.330462-368.600615 170.535385 0 175.537231 107.401846 325.592615 258.914461 385.536A254.503385 254.503385 0 0 0 351.468308 715.224615C385.063385 822.114462 484.864 894.897231 597.858462 894.897231c112.915692 0 212.755692-72.782769 246.311384-179.633231a254.503385 254.503385 0 0 0-99.761231-286.523077c9.964308-3.938462 19.692308-8.270769 29.184-12.957538v-0.07877zM131.977846-20.243692c-78.375385 26.387692-131.820308 67.820308-131.820308 124.219077 0 163.052308 99.761231 302.395077 240.324924 358.006153a236.307692 236.307692 0 0 0-90.663385 271.753847C184.280615 834.284308 281.836308 899.938462 388.804923 894.542769a330.948923 330.948923 0 0 1-81.801846-97.201231A156.081231 156.081231 0 0 1 219.766154 670.404923a155.529846 155.529846 0 0 1 64.748308-139.539692 328.073846 328.073846 0 0 1 44.740923-84.755693 482.185846 482.185846 0 0 1-80.659693-69.750153C150.331077 327.483077 82.313846 224.098462 82.313846 104.054154c0-10.003692 13.272615-21.700923 37.139692-32.964923-0.512-9.294769-0.787692-18.550154-0.787692-27.923693 0-22.685538 4.608-43.835077 13.312-63.40923z m591.163077 51.672615l71.483077-21.267692s3.544615 0 3.544615-3.584v-7.089231l-71.483077-123.982769c-3.544615-3.505231-3.544615-3.505231-7.08923-3.505231h-3.623385s-3.544615 3.505231-3.544615 7.089231v145.250461c0 3.505231 0 7.089231 3.544615 7.089231h7.168z m289.555692 425.078154h8.034462c2.678154 0 2.678154-2.638769 2.678154-5.277539l-96.098462-433.545846-2.638769-2.717538h-5.316923l-194.756923 63.488s-2.638769 0-2.638769 2.638769c-2.638769 2.638769 0 2.638769 0 5.277539l192.118153 245.917538-242.688-235.244308h-5.395692l-176.049231 60.770462s-2.717538 2.638769-2.717538 5.277538c0 2.599385 0 5.238154 2.678154 5.238154l522.791384 288.177231z m-414.877538 14.572308c93.617231 0 169.550769 75.224615 169.550769 168.054153s-75.933538 168.054154-169.550769 168.054154c-93.656615 0-169.550769-75.224615-169.550769-168.054154 0-92.790154 75.894154-168.014769 169.550769-168.014769z"  horiz-adv-x="1024" />

    
    <glyph glyph-name="home_icon_b4" unicode="&#58958;" d="M1228.055273 367.104l-149.410909 441.856c-8.378182 25.832727-24.529455 46.545455-47.802182 62.603636a130.932364 130.932364 0 0 1-76.520727 24.157091H360.866909c-27.461818 0-53.154909-8.052364-76.474182-24.157091-23.272727-16.058182-39.424-36.770909-47.802182-62.603636l-79.499636-232.727273c13.777455 11.496727 28.718545 21.876364 69.352727 38.493091 22.109091 9.216 47.802182 11.496727 53.154909 10.379637l51.432728 155.694545a27.927273 27.927273 0 0 0 11.915636 15.499636 34.909091 34.909091 0 0 0 19.735273 6.330182h593.454545a34.909091 34.909091 0 0 0 19.688728-6.330182 27.927273 27.927273 0 0 0 11.962181-15.499636l118.923637-351.650909H546.164364v-93.649455h574.324363c6.516364 0 12.567273-2.327273 17.314909-6.888727a22.574545 22.574545 0 0 0 7.168-16.663273v-233.285818a23.505455 23.505455 0 0 0-7.168-16.663273 24.436364 24.436364 0 0 0-17.314909-6.888727H630.411636v-93.090909H1119.883636c33.466182 0 62.138182 11.496727 86.062546 34.443636 23.877818 23.04 35.84 50.594909 35.84 82.757819v233.890909c0 12.055273-4.189091 30.440727-13.730909 53.992727zM492.962909 278.621091H445.160727v106.868364c0 89.6-75.869091 162.583273-169.146182 162.583272-93.230545 0-169.099636-72.983273-169.099636-162.583272v-106.868364H59.112727c-22.714182 0-41.890909-18.385455-41.890909-40.215273v-293.608727c0-21.876364 19.176727-40.261818 41.890909-40.261818h435.060364c22.714182 0 41.844364 18.385455 41.844364 40.261818v293.608727a43.054545 43.054545 0 0 1-43.054546 40.215273zM172.683636 382.603636c0 55.714909 46.638545 100.538182 104.587637 100.538182 57.949091 0 104.587636-44.823273 104.587636-100.538182l-1.210182-103.982545H172.683636V382.603636z m284.485819-412.532363H95.557818v246.458182H457.076364v-246.458182z m435.665454 224.674909c0-16.104727-6.004364-29.882182-17.92-41.425455-11.962182-11.450182-26.298182-17.221818-43.054545-17.221818-16.756364 0-31.092364 5.771636-43.008 17.221818a55.389091 55.389091 0 0 0-17.966546 41.425455c0 16.058182 6.004364 29.882182 17.966546 41.332363 11.915636 11.496727 26.298182 17.221818 43.008 17.221819 16.756364 0 31.092364-5.725091 43.054545-17.221819 11.915636-11.450182 17.92-24.669091 17.92-41.332363z m194.234182 0c0-16.104727-6.004364-29.882182-17.966546-41.425455-11.915636-11.450182-26.298182-17.221818-43.008-17.221818-16.756364 0-31.092364 5.771636-43.008 17.221818a55.389091 55.389091 0 0 0-17.966545 41.425455c0 16.058182 6.004364 29.882182 17.966545 41.332363 11.915636 11.496727 26.251636 17.221818 43.008 17.221819 16.756364 0 31.092364-5.725091 43.008-17.221819 12.567273-10.891636 17.966545-24.669091 17.966546-41.332363z"  horiz-adv-x="1256" />

    
    <glyph glyph-name="home_icon_b6" unicode="&#58959;" d="M913.250462 785.408H725.464615a146.116923 146.116923 0 0 1-287.625846-36.509538 146.116923 146.116923 0 1 1 287.625846-36.509539h187.785847c20.204308 0 36.588308-16.344615 36.588307-36.509538v-328.349539a36.548923 36.548923 0 0 0-36.588307-36.548923h-347.017847a36.548923 36.548923 0 0 1 0-72.979692h347.017847a109.646769 109.646769 0 0 1 109.607384 109.489231V675.958154a109.410462 109.410462 0 0 1-109.607384 109.489231z m-328.743385-109.489231a73.019077 73.019077 0 1 0 0.039385 146.077539 73.019077 73.019077 0 0 0-0.039385-146.116923zM876.701538 165.021538a145.683692 145.683692 0 0 1-138.830769-102.636307h-372.578461a36.352 36.352 0 0 0-36.233846 34.934154A145.604923 145.604923 0 0 1 292.233846 384c-53.956923 0-100.548923-29.538462-125.833846-72.979692H109.607385a36.548923 36.548923 0 0 0-36.588308 36.509538V675.918769c0 20.164923 16.384 36.509538 36.588308 36.509539h237.449846a36.548923 36.548923 0 0 1 0 72.979692h-237.489231A109.646769 109.646769 0 0 1 0 675.918769v-328.388923a109.410462 109.410462 0 0 1 109.607385-109.489231h36.548923a145.644308 145.644308 0 0 1 109.764923-140.839384 109.489231 109.489231 0 0 1 109.410461-107.835077h368.364308a146.116923 146.116923 0 0 1 163.012923-114.884923 145.998769 145.998769 0 0 1-19.968 290.579692zM219.214769 238.08a73.019077 73.019077 0 0 0 73.137231 72.940308 73.019077 73.019077 0 1 0-73.137231-72.940308z m657.565539-291.918769a73.019077 73.019077 0 1 0 0.039384 146.077538 73.019077 73.019077 0 0 0-0.039384-146.077538z"  horiz-adv-x="1024" />

    
    <glyph glyph-name="home_icon_b3" unicode="&#58960;" d="M1416.4992 336.4352c-39.7312 56.0128-119.3984 87.9104-198.912 79.872-23.9616-7.9872-63.6928-23.8592-127.2832-55.9616-23.9104-7.9872-55.7056-31.8976-87.5008-47.9232 7.9872 47.9232-7.9872 87.9104-31.744 119.9616C947.2 456.2944 477.696 712.192 398.0288 712.192c-39.7824 0-71.68-16.0256-87.552-39.936h-15.872V824.1152H0v-871.5264h294.4v127.8464c135.2704-55.9616 453.632-191.8464 485.376-199.8336 15.9744-8.0384 39.7824-8.0384 55.7568-8.0384 23.9104 0 47.7184 8.0384 63.6928 8.0384 47.7184 7.9872 437.6576 215.9104 509.3376 327.8336 31.8976 39.936 31.8976 87.9104 7.936 128zM234.7008-0.1024H59.8528V776.704h174.848v-776.8064z m1110.272 248.5248c-63.6928-87.9104-413.8496-279.808-461.568-287.7952-23.9616-8.0384-63.6928-8.0384-79.5136 0-23.9616 7.9872-334.1824 135.8848-509.3376 215.9104V592.1792h55.7056l7.9872 16.0256s15.9744 16.0256 31.7952 16.0256c55.7056-7.9872 477.5424-223.8976 517.2736-263.8848 15.9744-16.0256 15.9744-39.936 15.9744-64 0-7.9872-7.9872-24.064-15.9744-24.064-23.9104-16.0256-47.7184-16.0256-55.7056-16.0256L549.2224 392.192l-31.744-71.9872 310.3232-128c63.744-31.9488 159.232 16.0256 302.4384 87.9104 39.7312 16.0256 87.5008 47.9744 103.424 47.9744 47.7696 7.9872 103.4752-16.0768 119.4496-39.936-0.1536-15.6672-0.1536-23.6544-8.1408-39.68zM875.4176 584.2944c31.744 0 55.7056 8.0384 79.5136 23.9104l135.2704-143.872c7.936-8.0384 15.9232-16.0768 31.744-16.0768 7.9872 0 23.9616 8.0384 31.7952 16.0768a38.7072 38.7072 0 0 1 0 55.9616l-47.616 47.9744 31.7952 31.9488-55.7056 55.9616-39.7824-31.9488-31.744 31.9488c15.9232 23.9104 23.9104 47.9744 23.9104 79.872 0 87.9104-71.68 159.9488-159.1808 159.9488s-159.1808-72.0384-159.1808-159.9488c0-79.872 71.68-151.7568 159.1808-151.7568z m-55.7056 207.872c31.744 31.9488 79.5136 31.9488 103.424 0 31.7952-31.8976 31.7952-79.872 0-103.936-31.744-31.8976-79.5136-31.8976-103.424 0-31.744 23.9104-31.744 71.8848 0 103.936z"  horiz-adv-x="1433" />

    
    <glyph glyph-name="home_icon_b7" unicode="&#58961;" d="M756.49219 602.843429a74.605714 74.605714 0 0 1-74.605714-74.459429 74.605714 74.605714 0 0 1 74.605714-74.459429 74.605714 74.605714 0 0 1 74.508191 74.459429 74.605714 74.605714 0 0 1-74.508191 74.459429z m-24.380952 198.314666c85.187048 0 165.059048-31.158857 226.694095-87.381333 2.29181-2.29181 3.023238-3.803429 4.583619-4.583619a28.135619 28.135619 0 0 1 8.338286-7.558095 47.299048 47.299048 0 0 1 39.545905-19.797334c25.112381 0 45.641143 20.528762 45.641143 45.592381 0 13.653333-6.046476 26.624-18.236953 38.765715-5.36381 5.36381-5.36381 5.36381-9.898666 9.118476l-3.023238 2.291809a424.228571 424.228571 0 0 1-293.644191 117.028572c-225.133714 0-413.013333-175.542857-427.495619-399.701334a308.565333 308.565333 0 0 1-214.503619-92.696381 308.662857 308.662857 0 0 1-89.721905-218.063238c0-82.846476 31.939048-161.109333 91.282286-220.403809a310.272 310.272 0 0 1 220.550095-91.184762h73.825524a45.104762 45.104762 0 0 1 45.641143 44.860952 33.987048 33.987048 0 0 1-9.167238 25.84381 45.397333 45.397333 0 0 1-33.450667 14.433524H313.782857a221.42781 221.42781 0 0 0-221.379047 221.135238 220.94019 220.94019 0 0 0 221.379047 221.086476h41.057524c6.095238 0 19.017143 2.29181 31.207619 15.213714 12.190476 13.653333 11.410286 26.575238 10.630095 38.765714v9.849905c-0.78019 186.172952 149.845333 337.383619 335.481905 337.383619z m174.226286-881.42019c10.630095-10.630095 25.84381-16.725333 41.057524-16.725334h171.154285c13.653333-18.236952 34.962286-30.378667 59.343238-30.378666 36.473905 0 68.461714 25.84381 73.776762 60.806095a75.093333 75.093333 0 0 1-16.725333 62.268952c-13.702095 16.725333-35.011048 25.112381-57.831619 25.112381-24.380952 0-47.932952-12.190476-60.854857-33.450666h-146.041905a27.794286 27.794286 0 0 0-17.505524 7.606857l-146.041905 145.895619a26.575238 26.575238 0 0 1-18.236952 7.558095H701.68381c-13.653333 18.236952-35.742476 30.427429-58.514286 30.427429h-0.780191c-36.571429 0-68.461714-27.355429-73.825523-61.537524-3.803429-23.600762 2.29181-46.372571 16.774095-63.878095 13.653333-16.676571 34.962286-25.84381 57.782857-25.84381 24.380952 0 47.932952 11.410286 60.854857 32.670476h46.421333c6.095238 0 12.190476-2.243048 16.725334-6.826666l121.709714-119.271619 17.505524-14.433524z m-355.230476 334.311619c28.867048 0 54.759619 14.433524 66.901333 41.788952h220.598857c15.213714 0 29.696 5.36381 41.106286 15.993905l101.912381 101.034667a24.771048 24.771048 0 0 0 17.505524 7.606857h95.817142c8.387048-15.213714 21.308952-22.820571 35.011048-28.135619 8.387048-3.023238 16.725333-5.315048 25.84381-5.315048 31.207619 0 59.343238 19.017143 70.753523 47.104 6.826667 17.505524 6.095238 38.034286-1.511619 56.271238-8.387048 18.236952-22.820571 33.401905-41.106285 40.228572a81.724952 81.724952 0 0 1-26.624 4.583619c-23.552 0-45.592381-9.118476-60.074667-30.378667h-122.441143c-15.213714 0-30.427429-6.095238-41.106286-16.725333l-98.108952-101.083429a28.42819 28.42819 0 0 0-19.797333-9.118476h-209.188572l-3.023238 0.78019a71.338667 71.338667 0 0 1-52.467809 22.77181c-42.617905 0-74.605714-31.110095-74.605715-73.679238 0-41.057524 33.499429-73.728 74.605715-73.728z m507.367619-85.820953h171.885714c13.653333-21.308952 35.742476-31.207619 60.074667-31.207619 42.617905 0 74.605714 31.939048 74.605714 74.508191 0 42.520381-31.98781 74.459429-75.337143 74.459428-24.380952 0-47.152762-11.410286-60.854857-32.670476h-168.862476a72.021333 72.021333 0 0 1-60.854857 33.401905h-0.780191c-42.569143 0-74.556952-31.890286-74.556952-74.459429 0-42.520381 31.98781-74.459429 75.337143-74.459428 23.552-0.731429 45.641143 12.190476 59.343238 30.427428z"  horiz-adv-x="1365" />

    
    <glyph glyph-name="home_icon_b1" unicode="&#58962;" d="M512 896C260.017231 896 51.042462 713.885538 8.428308 474.230154c-1.772308-11.697231-0.787692-4.371692-0.787693-4.371692l-1.063384-7.325539A522.515692 522.515692 0 0 1 0 384.078769c0-282.781538 229.218462-512 512-512S1024 101.218462 1024 384 794.781538 896 512 896z m136.546462-76.209231c-89.6-16.226462-165.415385-44.622769-229.494154-80.699077a54.429538 54.429538 0 0 1-68.096-3.347692c-38.990769 14.414769-70.734769 23.630769-90.899693 28.947692a456.231385 456.231385 0 0 0 388.489847 55.099077zM221.932308 736.610462c37.612308-8.664615 74.752-19.219692 111.300923-31.586462a55.059692 55.059692 0 0 1-1.024-10.318769c0.039385-4.529231 0.669538-9.019077 1.811692-13.390769-94.247385-75.106462-155.411692-166.754462-194.678154-250.171077-17.801846 0-34.500923-8.664615-44.780307-23.236923-12.327385 8.270769-24.418462 16.935385-36.352 25.875692a455.837538 455.837538 0 0 0 163.721846 302.867692zM78.099692 242.097231A455.128615 455.128615 0 0 0 55.374769 384c0 4.371692 0.512 8.546462 0.669539 12.957538 9.334154-7.483077 18.865231-14.808615 28.514461-21.897846 0.315077-14.887385 6.695385-28.987077 17.723077-39.069538a798.601846 798.601846 0 0 1-24.182154-93.892923z m70.301539-133.513846c-15.753846 20.676923-29.696 42.614154-41.668923 65.654153a925.932308 925.932308 0 0 0 32.610461 147.219693c7.049846 0 14.020923 1.378462 20.558769 4.017231 23.394462-13.942154 47.379692-26.860308 71.876924-38.833231a64.275692 64.275692 0 0 1 1.417846-38.006154 645.041231 645.041231 0 0 1-84.795077-140.012308zM182.114462 68.923077a577.575385 577.575385 0 0 0 76.8 144.935385 68.765538 68.765538 0 0 1 98.894769 21.464615 996.036923 996.036923 0 0 1 193.102769-43.008c1.181538-53.956923 7.876923-107.716923 20.125538-160.295385a37.021538 37.021538 0 1 1 18.628924-69.356307c2.756923-8.861538 5.671385-17.762462 8.585846-26.781539l0.078769-0.078769A454.931692 454.931692 0 0 0 182.114462 68.923077z m565.76-75.224615c-36.076308-21.897846-75.067077-38.596923-115.79077-49.703385-3.859692 12.681846-6.931692 15.438769-10.16123 27.805538 0 0 17.801846 15.635692 13.23323 37.415385-4.568615 21.858462-28.987077 30.995692-30.444307 29.538462-12.012308 56.792615-12.721231 101.257846-13.587693 149.661538a1028.332308 1028.332308 0 0 1 126.424616-2.244923 68.923077 68.923077 0 0 1 49.230769-52.932923 700.022154 700.022154 0 0 0-18.904615-139.579077z m41.196307 27.963076c9.255385 37.100308 15.517538 74.830769 18.707693 112.876308a68.765538 68.765538 0 0 1 46.395076 64.905846l-0.078769 1.181539c27.057231 4.647385 54.862769 10.633846 82.983385 17.604923a457.255385 457.255385 0 0 0-148.007385-196.529231z m55.099077 213.031385a68.765538 68.765538 0 0 1-40.014769 30.680615 485.218462 485.218462 0 0 1-53.405539 158.956308c-9.609846-11.894154-21.149538-22.055385-34.185846-30.011077 19.337846-41.944615 33.161846-86.173538 41.117539-131.623384a69.080615 69.080615 0 0 1-37.060923-39.50277 1023.921231 1023.921231 0 0 0-129.260308 4.17477c1.654154 50.924308 9.846154 101.376 24.339692 150.212923a135.010462 135.010462 0 0 0-36.115692 13.942154A607.862154 607.862154 0 0 1 551.384615 231.975385a1039.241846 1039.241846 0 0 0-184.201846 42.653538 68.923077 68.923077 0 0 1-14.926769 38.439385 714.752 714.752 0 0 0 187.864615 112.324923 135.049846 135.049846 0 0 0-22.646153 42.062769c-74.003692-32.295385-142.257231-76.406154-202.082462-130.599385a67.150769 67.150769 0 0 1-16.817231 2.363077c-17.723077 0-34.776615-6.892308-47.537231-19.180307a1053.302154 1053.302154 0 0 0-63.054769 31.428923 53.76 53.76 0 0 1-12.445538 65.851077c47.340308 103.581538 110.867692 179.2 178.018461 234.299077a54.350769 54.350769 0 0 1 79.43877 13.272615 706.56 706.56 0 0 0 112.206769-66.244923c7.561846 8.546462 16.147692 16.147692 25.6 22.528a876.425846 876.425846 0 0 1-129.181539 76.051692 53.681231 53.681231 0 0 1-2.48123 13.824c112.955077 65.536 220.002462 83.495385 262.144 88.221539a456.900923 456.900923 0 0 0 126.109538-85.504 617.196308 617.196308 0 0 1-109.213538-91.057231c11.027692-7.049846 20.992-15.596308 29.538461-25.481846A516.726154 516.726154 0 0 0 858.584615 680.881231a455.601231 455.601231 0 0 0 81.526154-139.185231 1151.606154 1151.606154 0 0 1-161.988923-6.380308c3.072-14.887385 3.465846-30.208 1.181539-45.292307a1173.779692 1173.779692 0 0 0 173.056 13.390769 448.590769 448.590769 0 0 0-2.008616-246.626462c-36.036923-9.294769-71.561846-16.817231-106.180923-22.134154zM549.297231 510.542769a95.822769 95.822769 0 1 0 191.645538 0 95.822769 95.822769 0 0 0-191.645538 0zM582.892308 510.542769a62.306462 62.306462 0 1 1 124.534154-4.253538 62.306462 62.306462 0 0 1-124.573539 4.253538zM614.163692 514.914462a30.995692 30.995692 0 1 1 61.952 0 30.995692 30.995692 0 0 1-61.952 0zM546.107077 508.494769a102.4 102.4 0 1 1 204.8 0 102.4 102.4 0 0 1-204.8 0z"  horiz-adv-x="1024" />

    
    <glyph glyph-name="home_icon_b8" unicode="&#58963;" d="M60.15193-0.137783l1.732124 18.935261c11.455636 123.689374 63.02568 227.065662 154.710133 310.207597 43.263724 39.090881 92.707981 68.103952 147.230509 88.298939l3.346148 1.377825c-5.038905 3.897278-9.841612 7.400892-14.447486 11.219437-53.105336 43.97232-85.425188 99.990773-94.636936 168.724589-15.707212 117.626941 46.767338 228.719053 154.710133 275.919422a251.039828 251.039828 0 0 0 130.184838 19.801322c114.398893-12.557896 205.689682-96.841458 228.128556-210.256189 27.320314-138.412425-62.198985-275.958788-198.958019-305.798555-18.699062-3.936645-37.791788-6.023066-56.884515-6.298631-85.818853-1.928956-163.17392-28.776872-230.96294-81.764109-78.142396-61.017992-126.130094-141.089343-144.750423-238.836229a383.429187 383.429187 0 0 1-1.889589-130.696602c3.424881-22.005843-9.447947-40.54744-30.115332-43.814855-20.628018-3.267415-39.169614 10.983239-41.807166 32.477318-1.968322 15.904044-3.228049 31.926188-4.881439 47.908966-0.118099 1.456559-0.472397 2.913117-0.708596 4.409042v38.185452zM515.54298 445.529755a186.203291 186.203291 0 0 1 132.389359 54.83746 188.722743 188.722743 0 0 1 54.994925 133.058588c0.275565 104.321083-83.2994 188.998308-186.675688 189.116408A187.659849 187.659849 0 0 1 328.394895 634.606797a188.683377 188.683377 0 0 1 54.522528-133.688452 186.124558 186.124558 0 0 1 132.625557-55.309857zM653.876672-127.527603a11.140704 11.140704 0 0 1-1.968322 0.944795c-20.431186 5.235737-31.965554 23.619868-27.556512 44.247886a252508.589882 252508.589882 0 0 0 59.836998 280.210364l33.067815 154.552668a36.571429 36.571429 0 0 0 40.547439 29.406735c18.777795-2.519453 33.185914-19.683223 31.256959-38.736583-1.141627-10.943872-4.054744-21.730278-6.337998-32.516684a567498.028602 567498.028602 0 0 0-86.999846-407.20652c-3.503614-16.337075-13.109027-26.493618-29.367369-30.154698a8.778718 8.778718 0 0 1-1.574658-0.747963h-10.904506zM515.582347 120.441642l47.475934-67.78902c14.95925-21.257881 29.997232-42.515762 44.720283-63.970475 6.889128-10.038444 8.385053-22.832539 3.976011-34.209442a36.374596 36.374596 0 0 0-25.981855-22.399508c-14.526219-3.306781-29.091804 2.558819-38.224819 15.589113-16.533907 23.501768-32.989082 47.003537-49.444257 70.584038l-55.703521 79.520221c-10.62894 15.195448-10.62894 30.942027 0 45.940643 34.56374 48.30263 69.166846 96.644626 103.809319 144.907889a36.217131 36.217131 0 0 0 41.452868 13.542057c15.274181-5.275104 25.273258-20.076888 24.525296-36.33523a38.500384 38.500384 0 0 0-7.952022-21.37598 62134.030447 62134.030447 0 0 1-84.795326-118.374904 341.385822 341.385822 0 0 0-3.857911-5.629402z m293.280024-204.548054a34.56374 34.56374 0 0 0-30.784561 20.903583c-6.377364 13.856989-4.527141 27.241581 4.960172 39.20898 26.769183 33.579579 53.538367 67.080424 80.42565 100.58127 5.393203 6.692296 10.62894 13.581424 16.218976 20.076888 2.44072 2.873751 2.598185 4.881439 0.55113 8.148854A32469.720437 32469.720437 0 0 0 801.737044 230.707058c-8.463786 13.660157-8.227587 29.642934 0.551131 41.846533a36.177764 36.177764 0 0 0 60.624327-2.165155c19.840689-31.611256 39.484546-63.379978 59.207135-95.069968 11.613102-18.620329 23.226203-37.201292 34.760572-55.82162 9.999077-16.140243 9.093649-31.493157-2.676918-46.216208l-113.808396-142.34907a37.398124 37.398124 0 0 0-31.611257-14.998616z"  horiz-adv-x="1024" />

    
    <glyph glyph-name="home_icon_storage" unicode="&#58964;" d="M865.792 85.504l-375.4752-212.48L38.4 128.768V640.256L490.3168 896l377.6-213.6832a76.544 76.544 0 0 0 40.7552 11.648c41.8304 0 75.7504-33.2032 75.7504-74.1632 0-40.96-33.92-74.1888-75.776-74.1888-41.8304 0-75.7504 33.2288-75.7504 74.1888 0 4.3008 0.384 8.5248 1.1008 12.6464L490.3168 826.9568 99.4048 605.696v-442.4448l390.912-221.2352 343.296 194.304a73.5232 73.5232 0 0 0-0.7168 10.3168c0 40.96 33.92 74.1632 75.776 74.1632 41.8304 0 75.7504-33.2032 75.7504-74.1632 0-40.96-33.92-74.1888-75.776-74.1888a76.544 76.544 0 0 0-42.8544 13.0304zM325.376 444.16v-153.0112l138.8544-78.592v153.1136l-138.8544 78.5152z m22.3744 46.336l142.9248-80.768 142.592 80.5888-142.9504 80.896-142.592-80.6912z m168.6528-277.9392l138.8544 78.592v152.6016l-138.8544-78.4896v-152.704zM490.2912 640.256l225.9712-127.872v-255.744l-225.9456-127.8976-225.9712 127.872v255.744l225.9712 127.8976z"  horiz-adv-x="1024" />

    
    <glyph glyph-name="icon_githubb" unicode="&#58965;" d="M0 384C0 666.76736 229.23264 896 512 896s512-229.23264 512-512-229.23264-512-512-512S0 101.23264 0 384z m411.29984-319.13984c-1.69984-1.72032-3.39968-5.12-3.39968-10.24 0-10.24 6.81984-17.08032 17.05984-17.08032h174.08c3.42016 0 6.81984 1.72032 10.24 3.42016 6.81984 5.12 8.54016 17.05984 3.42016 23.90016-5.12 5.12-6.84032 8.51968-6.84032 11.93984v104.09984c0 35.84-11.93984 58.04032-25.6 69.98016 85.34016 10.24 174.08 42.65984 174.08 187.74016 0 42.65984-15.36 75.07968-39.23968 102.4 5.12 10.24 17.05984 47.77984-3.42016 100.67968 0 0-30.72 10.24-104.09984-39.23968-30.72 6.81984-63.16032 11.93984-95.58016 11.93984-32.41984 0-64.86016-3.42016-95.58016-11.93984-71.68 49.47968-104.09984 39.23968-104.09984 39.23968-20.48-52.89984-6.81984-90.43968-3.42016-100.67968-23.87968-27.32032-39.23968-61.44-39.23968-102.4 0-145.08032 88.73984-177.50016 174.08-187.74016-10.24-10.24-20.48-27.29984-23.90016-51.2-22.17984-8.54016-76.8-25.6-110.94016 32.41984 0 0-20.48 35.84-58.01984 39.26016 0 0-37.53984 0-3.42016-23.90016 0 0 25.6-11.93984 42.68032-56.32 0 0 22.17984-66.56 128-44.35968V76.8c0-1.69984-3.42016-6.81984-6.84032-11.93984z"  horiz-adv-x="1024" />

    
    <glyph glyph-name="home_icon_encryp" unicode="&#58966;" d="M512.5888-127.2064c-4.9152 0-10.4448 1.2032-15.36 2.9952l-212.5824 94.464C140.8768 34.176 51.7888 153.7536 51.7888 282.88V721.664c0 10.1632 4.3008 19.7376 12.288 26.9056a38.912 38.912 0 0 0 28.8768 8.96c19.0464-2.3808 39.3216-3.584 58.368-3.584 108.1344 0 209.5104 32.896 285.696 92.672L489.216 887.296a36.9152 36.9152 0 0 0 46.08 0l52.224-40.6528c76.1856-59.776 177.5616-92.672 285.696-92.672 19.6608 0 39.3216 1.2032 58.368 3.584 10.4448 1.2032 20.8896-1.792 28.8768-8.96 7.9872-6.5792 12.288-16.7424 12.288-26.88v-438.2208c0-129.1264-89.088-249.2928-232.8576-312.6528l-212.5824-94.464c-4.3008-2.3808-9.216-3.584-14.7456-3.584zM125.5168 682.8288v-399.3344c0-101.0176 72.4992-195.4816 189.8496-247.5008l197.2224-87.296 197.2224 87.296c116.736 52.0192 189.8496 147.072 189.8496 247.5008v399.36c-8.6016-0.6144-17.2032-0.6144-25.8048-0.6144-124.7232 0-242.688 38.272-331.776 108.2112l-28.8768 22.7072-28.8768-22.7072C395.2384 720.512 277.248 682.24 152.5504 682.24c-9.216 0-18.432 0.5888-27.0336 0.5888z m417.792-420.864h-19.6608c-72.4992 0-130.8672 57.3952-130.8672 127.3344 0 70.5536 58.9824 127.3344 130.8672 127.3344h19.6608c20.2752 0 36.864-16.128 36.864-35.84 0-19.7376-16.5888-35.8912-36.864-35.8912h-19.6608c-31.9488 0-57.1392-25.088-57.1392-55.6032 0-30.464 25.8048-55.5776 57.1392-55.5776h19.6608c20.2752 0 36.864-16.128 36.864-35.8656s-16.5888-35.8912-36.864-35.8912z"  horiz-adv-x="1024" />

    
    <glyph glyph-name="home_icon_b5" unicode="&#58967;" d="M547.095273 427.892364c-92.392727 0-174.312727-45.568-226.722909-115.898182l74.472727-77.265455c32.581818 51.293091 88.576 85.178182 152.250182 85.178182 63.674182 0 119.621818-33.885091 152.203636-85.178182l74.472727 77.265455c-52.363636 70.376727-134.283636 115.898182-226.676363 115.898182z m0 467.781818C330.100364 895.720727 135.028364 798.626909 0 644.096l73.821091-76.520727C189.905455 702.603636 358.865455 787.735273 547.095273 787.735273c188.276364 0 357.189818-85.178182 473.274182-220.16l73.82109 76.474182c-134.981818 154.530909-330.053818 251.671273-547.095272 251.671272z m0-233.890909c-154.670545 0-293.236364-71.168-387.118546-183.528728l71.307637-73.914181c73.262545 91.322182 183.621818 149.457455 307.2 149.457454 127.906909 0 241.710545-62.417455 314.833454-159.464727l80.942546 83.874909c-93.928727 112.407273-232.448 183.575273-387.165091 183.575273z m0-449.861818c-43.147636 0-78.149818-36.212364-78.149818-80.989091 0-44.683636 35.002182-80.989091 78.196363-80.989091 43.101091 0 78.056727 36.305455 78.056727 80.989091 0 44.776727-34.909091 80.989091-78.103272 80.989091z m677.096727-48.965819h-9.402182v61.579637h0.139637c-0.558545 69.957818-60.509091 126.464-134.376728 126.464s-133.818182-56.552727-134.330182-126.464h0.093091v-61.579637h-3.723636c-43.333818 0-78.475636-32.395636-78.475636-73.495272v-141.963637c0-41.099636 35.141818-74.379636 78.522181-74.379636h281.6c43.287273 0 78.522182 33.28 78.522182 74.426182v141.963636c0 41.053091-35.234909 73.448727-78.568727 73.448727z m-225.326545 61.579637c0.558545 42.356364 36.864 76.520727 81.687272 76.520727 44.823273 0 81.128727-34.164364 81.687273-76.520727v-61.579637h-163.374545v61.579637z m240.407272-293.143273h-312.692363v171.380364h312.692363v-171.380364z"  horiz-adv-x="1303" />

    
    <glyph glyph-name="icon_reddit" unicode="&#58968;" d="M401.36704 281.8048c-28.4672 0-51.4048 22.91712-51.4048 50.7904a51.28192 51.28192 0 0 0 51.4048 51.4048c28.07808 0 50.7904-22.91712 50.7904-51.4048a50.8928 50.8928 0 0 0-50.7904-50.7904zM1025.88416 384c0-282.8288-229.1712-512-512-512s-512 229.1712-512 512 229.1712 512 512 512 512-229.1712 512-512z m-273.12128 85.05344c-19.41504 0-36.5568-8.04864-49.152-20.64384-46.24384 32.01024-108.58496 52.6336-177.74592 54.92736l35.92192 161.64864 114.3808-25.8048a50.8928 50.8928 0 0 1 50.7904-50.7904c28.4672 0 51.4048 23.32672 51.4048 51.4048a51.54816 51.54816 0 0 1-51.4048 51.4048c-20.02944 0-37.1712-11.9808-45.62944-28.48768l-126.3616 28.0576c-6.18496 1.65888-12.5952-2.8672-14.2336-9.07264l-39.44448-178.3808c-68.52608-2.8672-130.2528-23.32672-176.51712-55.31648a68.4032 68.4032 0 0 1-49.74592 21.05344c-72.04864 0-95.58016-96.82944-29.73696-129.6384a149.01248 149.01248 0 0 1-3.50208-32.01024c0-108.58496 122.22464-196.54656 272.50688-196.54656 150.9376 0 273.14176 87.9616 273.14176 196.54656a131.8912 131.8912 0 0 1-3.91168 32.62464c64.6144 33.03424 40.87808 129.024-30.76096 129.024zM610.5088 229.1712c-37.5808-37.5808-157.10208-36.9664-193.2288 0a12.4928 12.4928 0 0 1-17.14176 0c-5.16096-5.16096-5.16096-13.23008 0-17.75616 47.06304-47.08352 180.224-47.08352 227.51232 0 5.16096 4.52608 5.16096 12.57472 0 17.75616a12.4928 12.4928 0 0 1-17.14176 0z m15.89248 154.8288c-28.0576 0-50.7904-22.91712-50.7904-51.4048a50.8928 50.8928 0 0 1 50.7904-50.7904c28.48768 0 51.4048 22.91712 51.4048 50.7904a51.15904 51.15904 0 0 1-51.4048 51.4048z"  horiz-adv-x="1044" />

    
    <glyph glyph-name="icon_facebook" unicode="&#58971;" d="M513.88416 896c-282.76736 0-512-229.23264-512-512s229.23264-512 512-512V256h-128V384h128v96.01024a160.01024 160.01024 0 0 0 160.01024 160.01024h160.01024v-128h-160.01024c-17.67424 0-32.01024-14.336-32.01024-32.01024V384h176.00512l-32.01024-128h-143.9744v-367.86176C862.69952-55.02976 1025.88416 145.42848 1025.88416 384c0 282.76736-229.25312 512-512 512z"  horiz-adv-x="1044" />

    
    <glyph glyph-name="home_icon_sharing" unicode="&#58972;" d="M874.9312 84.992a87.552 87.552 0 0 1-81.5104-61.0304l-166.5792-0.896a117.0176 117.0176 0 0 1-82.4832 86.0928v182.8864l214.016 1.1008c54.144 1.5872 96.9472 46.72 95.8976 101.1712a98.3552 98.3552 0 0 1-27.264 70.0928 97.408 97.408 0 0 1-68.6592 30.0544l-485.376-2.6112c-54.144-1.5872-96.896-46.6944-95.872-101.0944a98.304 98.304 0 0 1 27.2384-70.0928 97.3312 97.3312 0 0 1 68.608-30.0544l214.016 1.1008v-182.6816a119.0144 119.0144 0 0 1-82.2784-86.8352l-168.8064-0.896a86.4 86.4 0 0 1-81.536 60.2112 89.2416 89.2416 0 0 1-86.4768-91.2128 86.3232 86.3232 0 0 1 71.2192-89.088c42.7008-7.424 84.224 18.176 96.9216 59.8016l168.704 0.896A115.6096 115.6096 0 0 1 515.4048-128a117.0432 117.0432 0 0 1 111.2064 91.008l166.5024 0.8704a86.4 86.4 0 0 1 81.536-60.2112 89.3184 89.3184 0 0 1 86.4768 91.2128 88.32 88.32 0 0 1-24.4736 63.1808 87.424 87.424 0 0 1-61.8752 27.008l0.128-0.0768zM234.368 390.912a39.7824 39.7824 0 0 0 38.4512 40.6016l485.4016 2.5344c10.4192-0.1792 20.3264-4.5056 27.5456-12.032 7.2192-7.552 11.136-17.664 10.9056-28.1088a39.7056 39.7056 0 0 0-38.4512-40.6272l-485.376-2.5344a39.424 39.424 0 0 0-38.4768 40.0896v0.0512zM515.584-67.9424a58.368 58.368 0 0 0-41.1392 17.9968 58.9312 58.9312 0 0 0-16.3328 41.984 59.264 59.264 0 0 0 57.472 60.5696c15.5392-0.256 30.3104-6.7328 41.088-17.9968a58.88 58.88 0 0 0 16.3072-41.9328 59.3408 59.3408 0 0 0-57.3952-60.416v-0.2048zM261.632 131.4048l93.7984 0.5632a29.6448 29.6448 0 0 1 28.7488 30.2336c0.1536 7.808-2.7904 15.36-8.192 20.992-5.376 5.632-12.7744 8.9088-20.5568 9.0368l-93.824-0.5376a206.2592 206.2592 0 0 0-145.3568 63.6416 208.2816 208.2816 0 0 0-57.7536 148.4032c-1.6384 105.3184 74.0608 195.7888 177.5872 212.3008l18.4064 2.5344 5.376 18.6368a283.0336 283.0336 0 0 0 94.5408 141.3632 255.2064 255.2064 0 0 0 318.1568 1.5104 279.0656 279.0656 0 0 0 94.4896-140.4928l5.4272-18.432 18.2272-2.3808a198.9376 198.9376 0 0 0 125.1328-69.7856 218.368 218.368 0 0 0 50.6112-140.4928c2.176-115.2512-88.3968-210.7648-203.0592-214.144l-91.1104-0.4864a29.6448 29.6448 0 0 1-28.672-30.3104c-0.1536-7.7824 2.7648-15.3344 8.1408-20.9664 5.376-5.632 12.7744-8.8576 20.5312-8.9856l91.1104 0.4608a254.208 254.208 0 0 1 184.2432 81.0496c97.2288 103.9104 102.0672 264.3712 11.264 374.016a257.2544 257.2544 0 0 1-142.6688 86.2976 339.0464 339.0464 0 0 1-109.2352 153.1904 310.7072 310.7072 0 0 1-387.2256-2.048 344.1664 344.1664 0 0 1-109.1072-154.0096C86.528 643.5328-0.768 531.5328 0.9472 403.456a277.1968 277.1968 0 0 1 76.288-192.9216 250.7776 250.7776 0 0 1 184.3712-79.104z"  horiz-adv-x="1024" />

    
    <glyph glyph-name="home_icon_distrbution" unicode="&#58973;" d="M511.744-128c-11.9552 0-23.68 3.1488-33.9968 9.1648l-263.168 153.5488-3.0208-2.7392a110.9248 110.9248 0 0 0-123.2896-16.5632 113.2032 113.2032 0 0 0-62.208 108.8 112.8192 112.8192 0 0 0 75.776 99.6352l3.84 1.3056V532.2752c0.0768 24.576 13.056 47.232 34.0736 59.5456l266.9568 155.7248-1.2544 4.352A113.0752 113.0752 0 0 0 466.6368 885.76a110.9504 110.9504 0 0 0 119.7824-17.664 113.7664 113.7664 0 0 0 33.7408-117.4528l-1.28-4.352 264.8064-154.496a69.2992 69.2992 0 0 0 34.048-59.5456v-307.1232l3.84-1.3056a112.7936 112.7936 0 0 0 75.6736-99.6096 113.152 113.152 0 0 0-62.1568-108.7488 110.8992 110.8992 0 0 0-123.2128 16.4864l-3.0464 2.7392-263.0656-153.5488a68.6848 68.6848 0 0 0-34.048-9.1648zM246.784 143.1552l0.7936-3.968a113.5616 113.5616 0 0 0 0-44.4672l-0.7936-3.9424 264.9856-154.7008 264.9856 154.4192-0.7936 4.0448a112.7424 112.7424 0 0 0 0 44.3648l0.8192 4.0448-93.6192 54.656-155.2896-90.3168a32.256 32.256 0 0 0-32-0.1024l-155.4944 90.7008-93.5936-54.7328z m638.8736 22.0672a48.1024 48.1024 0 0 1-47.744-48.384 48.0768 48.0768 0 0 1 47.872-48.2816 48.1024 48.1024 0 0 1 47.8208 48.2816 48.1024 48.1024 0 0 1-47.7184 48.384h-0.256z m-747.904 0a48.1024 48.1024 0 0 1-47.744-48.384 48.1024 48.1024 0 0 1 47.8464-48.2816 48.1024 48.1024 0 0 1 47.8464 48.2816 48.0768 48.0768 0 0 1-47.744 48.384h-0.2048z m234.6752 251.136v-162.5856l139.3152-81.3824 139.3408 81.3824v162.6112l-139.3408 81.3312-139.3152-81.3312z m206.08 274.944c-9.3952-6.912-19.7888-12.3136-30.848-15.9488l-3.9168-1.2288v-120.4224l155.2384-90.5216c10.0352-5.7088 16.256-16.4608 16.2304-28.1088v-181.2992l93.6448-54.656 3.072 2.7392a112.0512 112.0512 0 0 0 37.8624 22.0928l3.84 1.3056V534.6304L581.4528 693.4784l-2.9696-2.176z m-408.6528-156.672v-309.2736l3.84-1.3312a110.3616 110.3616 0 0 0 37.888-22.0928l3.072-2.7136 93.6448 54.6304v181.2992c0.0256 11.52 6.1184 22.144 15.9744 27.9296l155.4688 90.7008v121.088l-3.7888 1.4336a107.3152 107.3152 0 0 0-29.4656 15.744l-2.9952 2.2784-273.6384-159.6928zM513.024 831.2576a47.872 47.872 0 0 1-44.2624-29.8496c-7.424-18.0736-3.328-38.912 10.3936-52.736 13.696-13.824 34.304-17.9456 52.1728-10.4448a48.384 48.384 0 0 1 29.5424 44.6976 48.128 48.128 0 0 1-47.872 48.3328z"  horiz-adv-x="1024" />

    


  </font>
</defs>
</svg>
