<?xml version="1.0" encoding="UTF-8"?>
<svg width="140px" height="110px" viewBox="0 0 140 110" version="1.1" xmlns="http://www.w3.org/2000/svg" xmlns:xlink="http://www.w3.org/1999/xlink">
    <!-- Generator: Sketch 54 (76480) - https://sketchapp.com -->
    <title>iconquanxiankongzhi</title>
    <desc>Created with Sketch.</desc>
    <defs>
        <filter x="-39.1%" y="-52.4%" width="178.2%" height="204.9%" filterUnits="objectBoundingBox" id="filter-1">
            <feOffset dx="7" dy="6" in="SourceAlpha" result="shadowOffsetOuter1"></feOffset>
            <feGaussianBlur stdDeviation="7.5" in="shadowOffsetOuter1" result="shadowBlurOuter1"></feGaussianBlur>
            <feColorMatrix values="0 0 0 0 0   0 0 0 0 0   0 0 0 0 0  0 0 0 0.12 0" type="matrix" in="shadowBlurOuter1" result="shadowMatrixOuter1"></feColorMatrix>
            <feMerge>
                <feMergeNode in="shadowMatrixOuter1"></feMergeNode>
                <feMergeNode in="SourceGraphic"></feMergeNode>
            </feMerge>
        </filter>
        <linearGradient x1="-13.47136%" y1="50%" x2="100%" y2="50%" id="linearGradient-2">
            <stop stop-color="#484EED" offset="0%"></stop>
            <stop stop-color="#3A72F0" offset="100%"></stop>
        </linearGradient>
    </defs>
    <g id="Page-1" stroke="none" stroke-width="1" fill="none" fill-rule="evenodd">
        <g id="ipfsex1.2" transform="translate(-1094.000000, -1105.000000)">
            <g id="iconquanxiankongzhi" filter="url(#filter-1)" transform="translate(1102.000000, 1113.000000)">
                <path d="M39.1026385,70.6055206 L39.1026385,47.0392497 C46.6127011,40.6890286 51.3811053,31.1995281 51.3811053,20.5967281 C51.3811053,9.99392818 46.6127011,0.50442774 39.1026385,-5.84579344 L39.1026385,-29.4120634 C58.2144691,-20.8628288 71.5303842,-1.68751189 71.5303842,20.5967281 C71.5303842,42.8809682 58.2144691,62.0562851 39.1026385,70.6055206 L39.1026385,70.6055206 Z" id="路径" fill="#FFFFFF" fill-rule="nonzero" transform="translate(55.316511, 20.596729) rotate(90.000000) translate(-55.316511, -20.596729) "></path>
                <g transform="translate(31.000000, 0.000000)" fill="url(#linearGradient-2)" id="形状结合">
                    <path d="M24.5,53.9214286 C21.0381529,53.9214286 18.2046875,51.1578055 18.2046875,47.7633929 L18.2046875,43.7857143 C18.2046875,40.3632105 21.0288811,37.5785714 24.5,37.5785714 C27.9711189,37.5785714 30.7953125,40.3632105 30.7953125,43.7857143 L30.7953125,47.7633929 C30.7953125,51.1571526 27.9605267,53.9214286 24.5,53.9214286 Z M22.8265625,43.7857143 L22.8265625,47.7142857 C22.8265625,48.6230319 23.5783455,49.3642857 24.5,49.3642857 C25.4216545,49.3642857 26.1734375,48.6230319 26.1734375,47.7142857 L26.1734375,43.7857143 C26.1734375,42.8769681 25.4216545,42.1357143 24.5,42.1357143 C23.5783455,42.1357143 22.8265625,42.8769681 22.8265625,43.7857143 Z M0.275,27.7571429 L48.725,27.7571429 L48.725,39.8571429 C48.725,53.0283966 37.8583455,63.7428571 24.5,63.7428571 C11.1416545,63.7428571 0.275,53.0283966 0.275,39.8571429 L0.275,27.7571429 Z M4.896875,32.3142857 L4.896875,39.8571429 C4.896875,50.5146391 13.6911189,59.1857143 24.5,59.1857143 C35.3088811,59.1857143 44.103125,50.5146391 44.103125,39.8571429 L44.103125,32.3142857 L4.896875,32.3142857 Z M8.24375,15.6689286 C8.24375,7.16792113 15.5391189,0.257142857 24.5,0.257142857 C33.4608811,0.257142857 40.75625,7.16792113 40.75625,15.6689286 L40.75625,24.4571429 L36.134375,24.4571429 L36.134375,15.6689286 C36.134375,9.68651149 30.9199507,4.81428571 24.5,4.81428571 C18.0800493,4.81428571 12.865625,9.68651149 12.865625,15.6689286 L12.865625,24.4571429 L8.24375,24.4571429 L8.24375,15.6689286 Z"></path>
                </g>
                <path d="M16.7021295,93.1000465 L16.7021295,69.4493601 C22.689508,74.5484744 30.4226284,77.6211788 38.866004,77.6211788 C57.8706476,77.6211788 73.2769553,62.0540681 73.2769553,42.8510638 C73.2769553,23.6480596 57.8706476,8.08094889 38.866004,8.08094889 C30.4226284,8.08094889 22.689508,11.1536532 16.7021295,16.2527676 L16.7021295,-7.39791889 C23.4723154,-10.4513949 30.9729665,-12.1489362 38.866004,-12.1489362 C68.9278948,-12.1489362 93.2978723,12.4754026 93.2978723,42.8510638 C93.2978723,73.2267251 68.9278948,97.8510638 38.866004,97.8510638 C30.9729665,97.8510638 23.4723154,96.1535226 16.7021277,93.1000457 L16.7021295,93.1000465 Z" id="路径" fill="#FFFFFF" fill-rule="nonzero" transform="translate(55.000000, 42.851064) rotate(90.000000) translate(-55.000000, -42.851064) "></path>
            </g>
        </g>
    </g>
</svg>