<?xml version="1.0" encoding="UTF-8"?>
<svg width="140px" height="115px" viewBox="0 0 140 115" version="1.1" xmlns="http://www.w3.org/2000/svg" xmlns:xlink="http://www.w3.org/1999/xlink">
    <!-- Generator: Sketch 54 (76480) - https://sketchapp.com -->
    <title>jiamicaogaoxiang</title>
    <desc>Created with Sketch.</desc>
    <defs>
        <filter x="-39.1%" y="-49.4%" width="178.2%" height="198.9%" filterUnits="objectBoundingBox" id="filter-1">
            <feOffset dx="7" dy="6" in="SourceAlpha" result="shadowOffsetOuter1"></feOffset>
            <feGaussianBlur stdDeviation="7.5" in="shadowOffsetOuter1" result="shadowBlurOuter1"></feGaussianBlur>
            <feColorMatrix values="0 0 0 0 0   0 0 0 0 0   0 0 0 0 0  0 0 0 0.12 0" type="matrix" in="shadowBlurOuter1" result="shadowMatrixOuter1"></feColorMatrix>
            <feMerge>
                <feMergeNode in="shadowMatrixOuter1"></feMergeNode>
                <feMergeNode in="SourceGraphic"></feMergeNode>
            </feMerge>
        </filter>
        <linearGradient x1="-13.47136%" y1="50%" x2="100%" y2="50%" id="linearGradient-2">
            <stop stop-color="#484EED" offset="0%"></stop>
            <stop stop-color="#3A72F0" offset="100%"></stop>
        </linearGradient>
    </defs>
    <g id="Page-1" stroke="none" stroke-width="1" fill="none" fill-rule="evenodd">
        <g id="ipfsex1.2" transform="translate(-1094.000000, -760.000000)">
            <g id="jiamicaogaoxiang" filter="url(#filter-1)" transform="translate(1102.000000, 768.000000)">
                <path d="M39.1026385,75.6055206 L39.1026385,52.0392497 C46.6127011,45.6890286 51.3811053,36.1995281 51.3811053,25.5967281 C51.3811053,14.9939282 46.6127011,5.50442774 39.1026385,-0.845793441 L39.1026385,-24.4120634 C58.2144691,-15.8628288 71.5303842,3.31248811 71.5303842,25.5967281 C71.5303842,47.8809682 58.2144691,67.0562851 39.1026385,75.6055206 L39.1026385,75.6055206 Z" id="路径" fill="#FFFFFF" fill-rule="nonzero" transform="translate(55.316511, 25.596729) rotate(90.000000) translate(-55.316511, -25.596729) "></path>
                <g transform="translate(26.000000, 0.000000)" fill="url(#linearGradient-2)" id="形状结合">
                    <path d="M5.86513406,54.8860436 L32.0476767,54.8860436 L32.1096675,55.2084716 C32.2516769,55.9470946 32.4805751,56.6782639 32.7819217,57.3715241 L33.0227566,57.9255747 L5.86513406,57.9255747 C2.69032322,57.9255747 0.0947654524,55.3395082 0.0947654524,52.1568465 L0.0947654524,29.9711915 C0.0947654524,28.9757436 0.332496915,28.0327936 0.814329747,27.1653497 C1.32877823,26.2648531 2.07188944,25.5132156 2.9657986,24.9834387 L21.8399256,14.2390477 C24.0565609,12.9858722 26.7871127,12.9858722 28.971607,14.2390477 L31.4968584,15.6666994 L43.967143,3.16366633 L45.8157046,1.34500048 C46.6258077,0.534706864 47.7319934,0.0744253441 48.8909361,0.0744253441 C50.0457256,0.0744253441 51.1439784,0.522617884 51.9602152,1.33916989 L55.6679644,4.89591928 C56.4774917,5.705637 56.9369995,6.81048265 56.9369995,7.96763485 C56.9369995,9.14009296 56.4970191,10.2101008 55.6679644,11.0393504 L53.968779,12.7389355 C53.9607695,12.7469469 53.9574999,12.750972 53.9298564,12.7873927 C53.889229,12.8420212 53.8596275,12.8784624 53.8166473,12.9214521 L43.9597456,22.7514163 L47.846337,24.9534329 C48.7319909,25.4596399 49.4880341,26.2242634 50.0243966,27.129588 L50.0412858,27.1911674 C50.4978733,28.0761724 50.7471097,29.0441603 50.7471097,29.9711915 L50.7471097,30.8656088 L50.2346781,30.7161144 C49.5994354,30.5307917 48.9111948,30.4068792 48.0255259,30.3046626 L47.671957,30.2638566 C47.6194704,30.2523233 47.5605099,30.245628 47.4879075,30.2371675 C47.1417435,30.1968282 47.0205523,30.1859185 46.8579821,30.1859185 C45.7591872,30.1859185 44.6603187,30.3655144 43.4832843,30.7155258 L41.2248254,31.3871175 L46.3688152,27.6876764 C46.3455234,27.6737944 46.3212935,27.6596679 46.2960584,27.6452439 L41.6766829,25.0336784 L32.2627862,34.4391268 C32.1613034,34.5913868 32.0292883,34.6904215 31.7539785,34.8174078 C31.7048552,34.8296916 31.6592238,34.8425034 31.6116148,34.8571558 L31.4417357,34.9105565 L23.8042182,36.6383918 C22.8298923,36.8820306 21.8023358,36.5814481 21.0934397,35.8722177 C20.3668718,35.1800855 20.0671732,34.1357289 20.282046,33.1328201 L21.9717776,25.6008299 L21.9869408,25.4622201 C22.0692019,25.1742384 22.1962173,24.9396934 22.3918109,24.744055 L29.2750079,17.8880458 L27.4836485,16.8710886 C26.2105185,16.1513241 24.6616993,16.1513241 23.3900234,16.8702625 L4.51710895,27.6443146 C4.49100403,27.6592352 4.46598305,27.6738282 4.44197038,27.6881527 L19.7119874,38.7055221 L19.6932076,38.6941108 L25.4054023,42.8043603 L38.2451178,33.5367647 L36.9634106,35.4139916 C36.1127367,36.6599143 35.5126513,37.9848046 35.1704783,39.4108607 L35.0166174,39.6399233 L26.3019908,45.9267722 C25.7701405,46.2950628 25.0413921,46.2950628 24.5033348,45.9223861 L18.7597613,41.7813747 L3.24974631,52.8709893 C3.57882005,54.0407701 4.64622394,54.8860436 5.86513406,54.8860436 Z M28.0022196,32.4975993 L24.3617163,28.8798849 L23.3143923,33.4936932 L28.0022196,32.4975993 Z M53.3710111,8.87173433 C53.6050145,8.6376759 53.7404763,8.31125939 53.7404763,7.96763485 C53.7404763,7.6424062 53.5966035,7.28918082 53.3722018,7.06472129 L49.7602421,3.48226685 C49.5268148,3.24878466 49.2020777,3.1139564 48.8605935,3.1139564 C48.5374753,3.1139564 48.1859579,3.25720087 47.9609449,3.48226685 L47.948442,3.49424068 L47.1605029,4.21668801 L52.5927329,9.65019563 L53.3710111,8.87173433 Z M25.6353217,25.8423504 L31.0791145,31.2599232 L50.4820734,11.8524007 L45.0374263,6.40647301 L32.7899333,18.6568467 L25.6353217,25.8423504 Z M3.1395756,30.5367524 L3.1395756,49.1963898 L16.1366265,39.8945886 L3.1395756,30.5367524 Z M56.8459717,47.9078838 L56.8459337,53.5778143 C56.8792852,55.9796896 54.913914,57.9559244 52.5017051,57.9559244 L41.1839166,57.9559244 C38.7778092,57.9559244 36.8093074,55.9869596 36.8093074,53.5832839 L36.8093074,47.9078838 C36.8093074,46.0697227 37.9529583,44.4561522 39.6311689,43.8293685 L39.6311689,42.2628334 C39.6311689,38.3113213 42.8740597,35.0676678 46.8276395,35.0676678 C50.7812193,35.0676678 54.0241102,38.3113213 54.0241102,42.2628334 L54.0241102,43.8293685 C55.7023207,44.4561522 56.8459717,46.0697227 56.8459717,47.9078838 Z M39.8844601,47.9078838 L39.8844601,53.5832839 C39.8844601,54.3056308 40.4647365,54.8860436 41.1839166,54.8860436 L52.5017051,54.8860436 C53.2208852,54.8860436 53.8011615,54.3056308 53.8011615,53.5832839 L53.8011615,47.9078838 C53.8011615,47.185537 53.2208852,46.6051242 52.5017051,46.6051242 L41.1839166,46.6051242 C40.4647365,46.6051242 39.8844601,47.185537 39.8844601,47.9078838 Z M50.9793,43.5655931 L50.9793,42.2628334 C50.9793,39.9926502 49.1246346,38.1375486 46.8579821,38.1375486 C44.5913296,38.1375486 42.7366642,39.9926502 42.7366642,42.2628334 L42.7366642,43.5655931 L50.9793,43.5655931 Z"></path>
                </g>
                <path d="M16.7021295,98.1000465 L16.7021295,74.4493601 C22.689508,79.5484744 30.4226284,82.6211788 38.866004,82.6211788 C57.8706476,82.6211788 73.2769553,67.0540681 73.2769553,47.8510638 C73.2769553,28.6480596 57.8706476,13.0809489 38.866004,13.0809489 C30.4226284,13.0809489 22.689508,16.1536532 16.7021295,21.2527676 L16.7021295,-2.39791889 C23.4723154,-5.45139494 30.9729665,-7.14893617 38.866004,-7.14893617 C68.9278948,-7.14893617 93.2978723,17.4754026 93.2978723,47.8510638 C93.2978723,78.2267251 68.9278948,102.851064 38.866004,102.851064 C30.9729665,102.851064 23.4723154,101.153523 16.7021277,98.1000457 L16.7021295,98.1000465 Z" id="路径" fill="#FFFFFF" fill-rule="nonzero" transform="translate(55.000000, 47.851064) rotate(90.000000) translate(-55.000000, -47.851064) "></path>
            </g>
        </g>
    </g>
</svg>