<?xml version="1.0" encoding="UTF-8"?>
<svg width="145px" height="116px" viewBox="0 0 145 116" version="1.1" xmlns="http://www.w3.org/2000/svg" xmlns:xlink="http://www.w3.org/1999/xlink">
    <!-- Generator: Sketch 54 (76480) - https://sketchapp.com -->
    <title>jiedian_1</title>
    <desc>Created with Sketch.</desc>
    <defs>
        <filter x="-37.4%" y="-50.0%" width="174.8%" height="200.0%" filterUnits="objectBoundingBox" id="filter-1">
            <feOffset dx="7" dy="6" in="SourceAlpha" result="shadowOffsetOuter1"></feOffset>
            <feGaussianBlur stdDeviation="7.5" in="shadowOffsetOuter1" result="shadowBlurOuter1"></feGaussianBlur>
            <feColorMatrix values="0 0 0 0 0   0 0 0 0 0   0 0 0 0 0  0 0 0 0.12 0" type="matrix" in="shadowBlurOuter1" result="shadowMatrixOuter1"></feColorMatrix>
            <feMerge>
                <feMergeNode in="shadowMatrixOuter1"></feMergeNode>
                <feMergeNode in="SourceGraphic"></feMergeNode>
            </feMerge>
        </filter>
        <linearGradient x1="-13.47136%" y1="50%" x2="100%" y2="50%" id="linearGradient-2">
            <stop stop-color="#484EED" offset="0%"></stop>
            <stop stop-color="#3A72F0" offset="100%"></stop>
        </linearGradient>
    </defs>
    <g id="Page-1" stroke="none" stroke-width="1" fill="none" fill-rule="evenodd">
        <g id="ipfsex1.2" transform="translate(-654.000000, -761.000000)">
            <g id="jiedian_1" filter="url(#filter-1)" transform="translate(662.000000, 770.000000)">
                <path d="M40.8797115,74.965509 L40.8797115,50.3518484 C48.7311406,43.7193951 53.7162904,33.8081391 53.7162904,22.7341036 C53.7162904,11.6600681 48.7311406,1.74881207 40.8797115,-4.88364116 L40.8797115,-29.4973009 C60.8602616,-20.5681003 74.7814456,-0.5405471 74.7814456,22.7341036 C74.7814456,46.0087543 60.8602616,66.0363076 40.8797115,74.965509 L40.8797115,74.965509 Z" id="路径" fill="#FFFFFF" fill-rule="nonzero" transform="translate(57.830579, 22.734104) rotate(90.000000) translate(-57.830579, -22.734104) "></path>
                <g transform="translate(29.000000, 0.000000)" fill="url(#linearGradient-2)" id="形状">
                    <path d="M18.6724512,45.0132245 L37.3310195,45.0132245 L37.3310195,37.0697143 C37.3310195,35.6644571 37.8925536,34.3180408 38.8947852,33.3246694 C39.8854936,32.3356797 41.2433282,31.7767853 42.662039,31.7740408 L50.6585683,31.7740408 L50.6585683,13.2391837 C49.2440711,13.2391837 47.8864382,12.6819265 46.8913145,11.6885551 C45.8872624,10.6873842 45.3258973,9.34297737 45.3275488,7.9435102 L26.6689805,7.9435102 L26.6689805,15.8870204 C26.6689805,17.2922776 26.1074464,18.6386939 25.1052148,19.6320653 C24.1145064,20.621055 22.7566718,21.1799494 21.337961,21.1826939 L5.34490239,21.1826939 C2.40217961,21.1826939 0.0138828633,18.8117551 0.0138828633,15.8870204 L0.0138828633,5.29567347 C0.0138828633,2.37093878 2.40217961,0 5.34490239,0 L21.337961,0 C22.7524581,0 24.1100911,0.557257143 25.1052148,1.55062857 C26.1074464,2.544 26.6689805,3.89041633 26.6689805,5.29567347 L46.0419054,5.29567347 C47.1398871,3.37714516 49.3650828,2.34638344 51.5861657,2.7274449 C53.8103863,3.13260069 55.5371727,4.8488785 55.9078456,7.02282449 C56.3045015,9.20288126 55.2760804,11.3947648 53.3240781,12.5296327 L53.3240781,31.7740408 L58.6550976,31.7740408 C60.0695948,31.7740408 61.4272278,32.331298 62.4223514,33.3246694 C63.4245831,34.3180408 63.9861171,35.6644571 63.9861171,37.0697143 L63.9861171,47.6610612 C63.9861171,50.5857959 61.5978204,52.9567347 58.6550976,52.9567347 L42.662039,52.9567347 C41.2475419,52.9567347 39.8899089,52.3994776 38.8947852,51.4061061 C37.8907331,50.4049352 37.3293681,49.0605284 37.3310195,47.6610612 L17.9580946,47.6610612 C16.8601129,49.5795895 14.6349172,50.6103513 12.4138343,50.2292898 C10.1896137,49.824134 8.46282728,48.1078562 8.09215445,45.9339102 C7.69549851,43.7538534 8.72391957,41.5619698 10.6759219,40.427102 L10.6759219,26.4783673 L6.67765727,26.4783673 C6.32041205,26.4747148 5.97929086,26.3329918 5.72934657,26.0843802 C5.47940228,25.8357685 5.34111209,25.5006362 5.34490239,25.1527184 C5.34490239,24.4258612 5.94197657,23.8305306 6.67765727,23.8305306 L20.0052061,23.8305306 C20.7408868,23.8305306 21.337961,24.4224 21.337961,25.1561796 C21.3438799,25.8793392 20.7477347,26.4707578 20.0052061,26.4783673 L13.3414317,26.4783673 L13.3414317,39.717551 C14.7559289,39.717551 16.1135618,40.2748082 17.1086855,41.2681796 C18.1109171,42.261551 18.6724512,43.6079673 18.6724512,45.0132245 Z M50.6585683,10.5913469 C51.6172483,10.5891525 52.5002469,10.0837694 52.9686768,9.26915918 C53.4463531,8.44661295 53.4463531,7.44040746 52.9686768,6.61786122 C52.5002469,5.80325105 51.6172483,5.29786788 50.6585683,5.29567347 C49.1721118,5.31089045 47.9792485,6.49584468 47.9930586,7.9435102 C47.9930586,9.40414694 49.1872069,10.5913469 50.6585683,10.5913469 L50.6585683,10.5913469 Z M13.3414317,47.6610612 C14.8127931,47.6610612 16.0069414,46.4738612 16.0069414,45.0132245 C16.0207515,43.565559 14.8278882,42.3806047 13.3414317,42.3653878 C11.8549751,42.3806047 10.6621119,43.565559 10.6759219,45.0132245 C10.6759219,46.4738612 11.8700703,47.6610612 13.3414317,47.6610612 L13.3414317,47.6610612 Z"></path>
                </g>
                <path d="M17.5000019,98.5330274 L17.5000019,73.8073097 C23.7534862,79.138202 31.8303008,82.3505747 40.6489375,82.3505747 C60.498232,82.3505747 76.5892644,66.0758681 76.5892644,46 C76.5892644,25.9241319 60.498232,9.64942529 40.6489375,9.64942529 C31.8303008,9.64942529 23.7534862,12.861798 17.5000019,18.1926903 L17.5000019,-6.53302738 C24.5710849,-9.72529781 32.4050983,-11.5 40.6489375,-11.5 C72.0469123,-11.5 97.5,14.2436269 97.5,46 C97.5,77.7563731 72.0469123,103.5 40.6489375,103.5 C32.4050983,103.5 24.5710849,101.725298 17.5,98.5330265 L17.5000019,98.5330274 Z" id="路径" fill="#FFFFFF" fill-rule="nonzero" transform="translate(57.500000, 46.000000) rotate(90.000000) translate(-57.500000, -46.000000) "></path>
            </g>
        </g>
    </g>
</svg>